0
SECTION
2
HEADER
9
$INSUNITS
70
4
9
$ACADVER
1
AC1014
9
$HANDSEED
5
FFFF
0
ENDSEC
0
SECTION
2
TABLES
0
TABLE
2
VPORT
5
8
100
AcDbSymbolTable
0
ENDTAB
0
TABLE
2
LTYPE
5
5
100
AcDbSymbolTable
0
LTYPE
5
14
100
AcDbSymbolTableRecord
100
AcDbLinetypeTableRecord
2
BYBLOCK
70
0
0
LTYPE
5
15
100
AcDbSymbolTableRecord
100
AcDbLinetypeTableRecord
2
BYLAYER
70
0
0
LTYPE
5
16
100
AcDbSymbolTableRecord
100
AcDbLinetypeTableRecord
2
DASHED
70
0
3
Dashed __ __ __ __ __ __ __ __ __ __ __ __ __ _
72
65
73
2
40
0.75
49
0.5
74
0
49
-0.25
74
0
0
ENDTAB
0
TABLE
2
LAYER
5
2
100
AcDbSymbolTable
70
2
0
LAYER
5
50
100
AcDbSymbolTableRecord
100
AcDbLayerTableRecord
2
0
70
0
62
7
6
CONTINUOUS
0
ENDTAB
0
TABLE
2
STYLE
5
3
100
AcDbSymbolTable
70
1
0
STYLE
5
11
100
AcDbSymbolTableRecord
100
AcDbTextStyleTableRecord
2
STANDARD
70
0
0
ENDTAB
0
TABLE
2
VIEW
5
6
100
AcDbSymbolTable
70
0
0
ENDTAB
0
TABLE
2
UCS
5
7
100
AcDbSymbolTable
70
0
0
ENDTAB
0
TABLE
2
APPID
5
9
100
AcDbSymbolTable
70
2
0
APPID
5
12
100
AcDbSymbolTableRecord
100
AcDbRegAppTableRecord
2
ACAD
70
0
0
ENDTAB
0
TABLE
2
DIMSTYLE
5
A
100
AcDbSymbolTable
70
1
0
ENDTAB
0
TABLE
2
BLOCK_RECORD
5
1
100
AcDbSymbolTable
70
1
0
BLOCK_RECORD
5
1F
100
AcDbSymbolTableRecord
100
AcDbBlockTableRecord
2
*MODEL_SPACE
0
BLOCK_RECORD
5
1B
100
AcDbSymbolTableRecord
100
AcDbBlockTableRecord
2
*PAPER_SPACE
0
ENDTAB
0
ENDSEC
0
SECTION
2
BLOCKS
0
BLOCK
5
20
100
AcDbEntity
100
AcDbBlockBegin
2
*MODEL_SPACE
0
ENDBLK
5
21
100
AcDbEntity
100
AcDbBlockEnd
0
BLOCK
5
1C
100
AcDbEntity
100
AcDbBlockBegin
2
*PAPER_SPACE
0
ENDBLK
5
1D
100
AcDbEntity
100
AcDbBlockEnd
0
ENDSEC
0
SECTION
2
ENTITIES
0
POINT
5
100
100
AcDbEntity
8
0
100
AcDbPoint
10
0
20
-47.535532824297178
30
0
0
POINT
5
101
100
AcDbEntity
8
0
100
AcDbPoint
10
0
20
0.95071065648594022
30
0
0
POINT
5
102
100
AcDbEntity
8
0
100
AcDbPoint
10
0
20
0.95071065648594022
30
0
0
POINT
5
103
100
AcDbEntity
8
0
100
AcDbPoint
10
0
20
0.95071065648594022
30
0
0
POINT
5
104
100
AcDbEntity
8
0
100
AcDbPoint
10
0
20
-47.535532824297178
30
0
0
LINE
5
105
100
AcDbEntity
8
0
100
AcDbLine
10
-32.042497743647502
20
-19.871787087161561
30
0
11
-42.154995375194815
21
-29.984284718708871
31
0
0
LINE
5
106
100
AcDbEntity
8
0
100
AcDbLine
10
-39.604995307348915
20
-87.43927914698989
30
0
11
-34.504995307348914
21
-87.43927914698989
31
0
0
LINE
5
107
100
AcDbEntity
8
0
100
AcDbLine
10
-28.560000000000002
20
0.95071065648594366
30
0
11
-28.560000000000002
21
-6.1892893435140568
31
0
0
LINE
5
108
100
AcDbEntity
8
0
100
AcDbLine
10
34.504995307348906
20
-87.43927914698989
30
0
11
25.922498149258502
21
-96.021776305080309
31
0
0
LINE
5
109
100
AcDbEntity
8
0
100
AcDbLine
10
42.154995375194815
20
-29.984284718708874
30
0
11
42.154995375194815
21
-50.894284718708889
31
0
0
LINE
5
110
100
AcDbEntity
8
0
100
AcDbLine
10
46.14749255541237
20
-54.886781898926444
30
0
11
46.14749255541237
21
-80.896781898926449
31
0
0
LINE
5
111
100
AcDbEntity
8
0
100
AcDbLine
10
-32.042497743647502
20
-9.6717870871615617
30
0
11
-32.042497743647502
21
-19.871787087161561
31
0
0
LINE
5
112
100
AcDbEntity
8
0
100
AcDbLine
10
42.154995375194815
20
-50.894284718708889
30
0
11
46.14749255541237
21
-54.886781898926444
31
0
0
LINE
5
113
100
AcDbEntity
8
0
100
AcDbLine
10
-46.147492555412384
20
-80.896781898926449
30
0
11
-39.604995307348915
21
-87.43927914698989
31
0
0
LINE
5
114
100
AcDbEntity
8
0
100
AcDbLine
10
28.560000000000002
20
0.95071065648594022
30
0
11
28.560000000000002
21
-6.1892893435140603
31
0
0
LINE
5
115
100
AcDbEntity
8
0
100
AcDbLine
10
25.922498149258502
20
-96.021776305080309
30
0
11
0
21
-96.021776305080309
31
0
0
LINE
5
116
100
AcDbEntity
8
0
100
AcDbLine
10
-34.504995307348914
20
-87.43927914698989
30
0
11
-25.922498149258509
21
-96.021776305080309
31
0
0
LINE
5
117
100
AcDbEntity
8
0
100
AcDbLine
10
28.560000000000002
20
0.95071065648594022
30
0
11
0
21
0.95071065648594022
31
0
0
LINE
5
118
100
AcDbEntity
8
0
100
AcDbLine
10
46.14749255541237
20
-80.896781898926449
30
0
11
39.604995307348908
21
-87.43927914698989
31
0
0
LINE
5
119
100
AcDbEntity
8
0
100
AcDbLine
10
-42.154995375194815
20
-50.894284718708882
30
0
11
-46.14749255541237
21
-54.886781898926429
31
0
0
LINE
5
120
100
AcDbEntity
8
0
100
AcDbLine
10
32.042497743647502
20
-19.871787087161565
30
0
11
42.154995375194815
21
-29.984284718708874
31
0
0
LINE
5
121
100
AcDbEntity
8
0
100
AcDbLine
10
-25.922498149258509
20
-96.021776305080309
30
0
11
-1.1875704576284054e-14
21
-96.021776305080309
31
0
0
LINE
5
122
100
AcDbEntity
8
0
100
AcDbLine
10
28.560000000000002
20
-6.1892893435140603
30
0
11
32.042497743647502
21
-9.6717870871615652
31
0
0
LINE
5
123
100
AcDbEntity
8
0
100
AcDbLine
10
32.042497743647502
20
-9.6717870871615652
30
0
11
32.042497743647502
21
-19.871787087161565
31
0
0
LINE
5
124
100
AcDbEntity
8
0
100
AcDbLine
10
-28.560000000000002
20
0.95071065648594366
30
0
11
0
21
0.95071065648594022
31
0
0
LINE
5
125
100
AcDbEntity
8
0
100
AcDbLine
10
-46.14749255541237
20
-54.886781898926429
30
0
11
-46.147492555412384
21
-80.896781898926449
31
0
0
LINE
5
126
100
AcDbEntity
8
0
100
AcDbLine
10
-28.560000000000002
20
-6.1892893435140568
30
0
11
-32.042497743647502
21
-9.6717870871615617
31
0
0
LINE
5
127
100
AcDbEntity
8
0
100
AcDbLine
10
39.604995307348908
20
-87.43927914698989
30
0
11
34.504995307348906
21
-87.43927914698989
31
0
0
LINE
5
128
100
AcDbEntity
8
0
100
AcDbLine
10
-42.154995375194815
20
-29.984284718708871
30
0
11
-42.154995375194815
21
-50.894284718708882
31
0
0
ENDSEC
0
SECTION
2
OBJECTS
0
DICTIONARY
5
C
100
AcDbDictionary
3
ACAD_GROUP
350
D
3
ACAD_MLINESTYLE
350
17
0
DICTIONARY
5
D
100
AcDbDictionary
0
DICTIONARY
5
1A
330
C
100
AcDbDictionary
0
DICTIONARY
5
17
100
AcDbDictionary
0
ENDSEC
0
EOF
