0
SECTION
2
HEADER
9
$ACADVER
1
AC1009
0
ENDSEC
0
SECTION
2
TABLES
0
TABLE
2
VPORT
70
1
0
VPORT
2
ACTIVE
70
0
10
0.0
20
0.0
11
0.0
21
0.0
12
0.0
22
0.0
13
0.0
23
0.0
14
0.0
24
0.0
15
0.0
25
0.0
16
0.0
26
0.0
36
0.0
17
0.0
27
0.0
37
0.0
40
0.0
41
0.0
42
0.0
43
0.0
44
0.0
50
0.0
51
0.0
71
0
72
1000
73
1
74
3
75
0
76
0
77
0
78
0
0
ENDTAB
0
ENDSEC
0
SECTION
2
ENTITIES
0
LINE
8
boundary
62
5
39
2
10
9.383983
20
6.687216
11
59.653969
21
6.667500
0
LINE
8
boundary
62
5
39
2
10
59.653969
20
6.667500
11
61.125768
21
6.667500
0
LINE
8
boundary
62
5
39
2
10
61.125768
20
6.667500
11
61.665784
21
6.720697
0
LINE
8
boundary
62
5
39
2
10
61.665784
20
6.720697
11
62.310915
21
6.929221
0
LINE
8
boundary
62
5
39
2
10
62.310915
20
6.929221
11
62.842843
21
7.252879
0
LINE
8
boundary
62
5
39
2
10
62.842843
20
7.252879
11
63.393824
21
7.801064
0
LINE
8
boundary
62
5
39
2
10
63.393824
20
7.801064
11
63.605507
21
8.282735
0
LINE
8
boundary
62
5
39
2
10
63.605507
20
8.282735
11
35.456746
21
8.282735
0
LINE
8
boundary
62
5
39
2
10
35.456746
20
8.282735
11
35.456747
21
11.028735
0
LINE
8
boundary
62
5
39
2
10
35.456747
20
11.028735
11
63.981693
21
11.028735
0
LINE
8
boundary
62
5
39
2
10
63.981693
20
11.028735
11
63.991993
21
11.539952
0
LINE
8
boundary
62
5
39
2
10
63.991993
20
11.539952
11
63.991993
21
12.085996
0
LINE
8
boundary
62
5
39
2
10
63.991993
20
12.085996
11
63.991993
21
12.702842
0
LINE
8
boundary
62
5
39
2
10
63.991993
20
12.702842
11
63.991993
21
13.359721
0
LINE
8
boundary
62
5
39
2
10
63.991993
20
13.359721
11
63.991993
21
13.966680
0
LINE
8
boundary
62
5
39
2
10
63.991993
20
13.966680
11
63.991993
21
42.748345
0
LINE
8
boundary
62
5
39
2
10
63.991993
20
42.748345
11
35.456746
21
42.898345
0
LINE
8
boundary
62
5
39
2
10
35.456746
20
42.898345
11
35.456746
21
45.644345
0
LINE
8
boundary
62
5
39
2
10
35.456746
20
45.644345
11
63.981693
21
45.644345
0
LINE
8
boundary
62
5
39
2
10
63.981693
20
45.644345
11
63.991993
21
56.339217
0
LINE
8
boundary
62
5
39
2
10
63.991993
20
56.339217
11
63.991993
21
64.057241
0
LINE
8
boundary
62
5
39
2
10
63.991993
20
64.057241
11
63.991993
21
76.127022
0
LINE
8
boundary
62
5
39
2
10
63.991993
20
76.127022
11
35.456747
21
76.277019
0
LINE
8
boundary
62
5
39
2
10
35.456747
20
76.277019
11
35.456747
21
79.023019
0
LINE
8
boundary
62
5
39
2
10
35.456747
20
79.023019
11
63.981693
21
79.023019
0
LINE
8
boundary
62
5
39
2
10
63.981693
20
79.023019
11
63.991993
21
104.917102
0
LINE
8
boundary
62
5
39
2
10
63.991993
20
104.917102
11
63.991993
21
191.142637
0
LINE
8
boundary
62
5
39
2
10
63.991993
20
191.142637
11
63.991993
21
191.940946
0
LINE
8
boundary
62
5
39
2
10
63.991993
20
191.940946
11
35.456747
21
192.166789
0
LINE
8
boundary
62
5
39
2
10
35.456747
20
192.166789
11
35.456746
21
194.912789
0
LINE
8
boundary
62
5
39
2
10
35.456746
20
194.912789
11
63.981693
21
194.912790
0
LINE
8
boundary
62
5
39
2
10
63.981693
20
194.912790
11
63.991993
21
199.137140
0
LINE
8
boundary
62
5
39
2
10
63.991993
20
199.137140
11
63.991993
21
201.954170
0
LINE
8
boundary
62
5
39
2
10
63.991993
20
201.954170
11
63.991993
21
203.847515
0
LINE
8
boundary
62
5
39
2
10
63.991993
20
203.847515
11
63.991993
21
208.450692
0
LINE
8
boundary
62
5
39
2
10
63.991993
20
208.450692
11
63.991993
21
209.490261
0
LINE
8
boundary
62
5
39
2
10
63.991993
20
209.490261
11
49.999005
21
209.490261
0
LINE
8
boundary
62
5
39
2
10
49.999005
20
209.490261
11
35.667882
21
209.490261
0
LINE
8
boundary
62
5
39
2
10
35.667882
20
209.490261
11
21.336759
21
209.490262
0
LINE
8
boundary
62
5
39
2
10
21.336759
20
209.490262
11
7.005636
21
209.490262
0
LINE
8
boundary
62
5
39
2
10
7.005636
20
209.490262
11
6.667500
21
208.890199
0
LINE
8
boundary
62
5
39
2
10
6.667500
20
208.890199
11
6.667500
21
203.847515
0
LINE
8
boundary
62
5
39
2
10
6.667500
20
203.847515
11
6.667500
21
201.954170
0
LINE
8
boundary
62
5
39
2
10
6.667500
20
201.954170
11
6.667500
21
199.615835
0
LINE
8
boundary
62
5
39
2
10
6.667500
20
199.615835
11
6.667500
21
191.940946
0
LINE
8
boundary
62
5
39
2
10
6.667500
20
191.940946
11
6.667500
21
191.142637
0
LINE
8
boundary
62
5
39
2
10
6.667500
20
191.142637
11
6.667500
21
104.917102
0
LINE
8
boundary
62
5
39
2
10
6.667500
20
104.917102
11
6.667500
21
64.057240
0
LINE
8
boundary
62
5
39
2
10
6.667500
20
64.057240
11
6.667500
21
56.339217
0
LINE
8
boundary
62
5
39
2
10
6.667500
20
56.339217
11
6.667500
21
13.966681
0
LINE
8
boundary
62
5
39
2
10
6.667500
20
13.966681
11
6.667500
21
13.359722
0
LINE
8
boundary
62
5
39
2
10
6.667500
20
13.359722
11
6.667500
21
12.702842
0
LINE
8
boundary
62
5
39
2
10
6.667500
20
12.702842
11
6.667500
21
12.085996
0
LINE
8
boundary
62
5
39
2
10
6.667500
20
12.085996
11
6.667500
21
11.539952
0
LINE
8
boundary
62
5
39
2
10
6.667500
20
11.539952
11
6.667500
21
10.589797
0
LINE
8
boundary
62
5
39
2
10
6.667500
20
10.589797
11
6.667500
21
9.885529
0
LINE
8
boundary
62
5
39
2
10
6.667500
20
9.885529
11
6.680514
21
9.268820
0
LINE
8
boundary
62
5
39
2
10
6.680514
20
9.268820
11
6.845404
21
8.555522
0
LINE
8
boundary
62
5
39
2
10
6.845404
20
8.555522
11
7.118559
21
7.992779
0
LINE
8
boundary
62
5
39
2
10
7.118559
20
7.992779
11
7.506999
21
7.507008
0
LINE
8
boundary
62
5
39
2
10
7.506999
20
7.507008
11
7.987059
21
7.122117
0
LINE
8
boundary
62
5
39
2
10
7.987059
20
7.122117
11
8.530087
21
6.854039
0
LINE
8
boundary
62
5
39
2
10
8.530087
20
6.854039
11
9.383983
21
6.687216
0
LINE
8
annotation
62
1
39
211
10
30.143593
20
7.378985
11
30.143593
21
11.932486
0
LINE
8
annotation
62
1
39
211
10
30.143593
20
11.932486
11
29.131291
21
10.919899
0
LINE
8
annotation
62
1
39
211
10
30.395042
20
41.871306
11
28.263247
21
41.871306
0
LINE
8
annotation
62
1
39
211
10
28.263247
20
41.871306
11
30.233095
21
45.042509
0
LINE
8
annotation
62
1
39
211
10
30.233095
20
45.042509
11
30.233095
21
45.042509
0
LINE
8
annotation
62
1
39
211
10
30.233095
20
45.042509
11
30.235450
21
45.045423
0
LINE
8
annotation
62
1
39
211
10
30.235450
20
45.045423
11
30.237708
21
45.048362
0
LINE
8
annotation
62
1
39
211
10
30.237708
20
45.048362
11
30.239885
21
45.051350
0
LINE
8
annotation
62
1
39
211
10
30.239885
20
45.051350
11
30.241994
21
45.054413
0
LINE
8
annotation
62
1
39
211
10
30.241994
20
45.054413
11
30.244052
21
45.057574
0
LINE
8
annotation
62
1
39
211
10
30.244052
20
45.057574
11
30.246072
21
45.060860
0
LINE
8
annotation
62
1
39
211
10
30.246072
20
45.060860
11
30.248071
21
45.064294
0
LINE
8
annotation
62
1
39
211
10
30.248071
20
45.064294
11
30.250061
21
45.067902
0
LINE
8
annotation
62
1
39
211
10
30.250061
20
45.067902
11
30.252059
21
45.071708
0
LINE
8
annotation
62
1
39
211
10
30.252059
20
45.071708
11
30.252059
21
45.071708
0
LINE
8
annotation
62
1
39
211
10
30.252059
20
45.071708
11
30.333394
21
45.246340
0
LINE
8
annotation
62
1
39
211
10
30.333394
20
45.246340
11
30.380908
21
45.427361
0
LINE
8
annotation
62
1
39
211
10
30.380908
20
45.427361
11
30.395767
21
45.610682
0
LINE
8
annotation
62
1
39
211
10
30.395767
20
45.610682
11
30.379133
21
45.792212
0
LINE
8
annotation
62
1
39
211
10
30.379133
20
45.792212
11
30.332173
21
45.967860
0
LINE
8
annotation
62
1
39
211
10
30.332173
20
45.967860
11
30.256051
21
46.133536
0
LINE
8
annotation
62
1
39
211
10
30.256051
20
46.133536
11
30.151930
21
46.285149
0
LINE
8
annotation
62
1
39
211
10
30.151930
20
46.285149
11
30.020975
21
46.418611
0
LINE
8
annotation
62
1
39
211
10
30.020975
20
46.418611
11
29.864351
21
46.529829
0
LINE
8
annotation
62
1
39
211
10
29.864351
20
46.529829
11
29.864351
21
46.529829
0
LINE
8
annotation
62
1
39
211
10
29.864351
20
46.529829
11
29.689233
21
46.610008
0
LINE
8
annotation
62
1
39
211
10
29.689233
20
46.610008
11
29.507934
21
46.656790
0
LINE
8
annotation
62
1
39
211
10
29.507934
20
46.656790
11
29.324507
21
46.671228
0
LINE
8
annotation
62
1
39
211
10
29.324507
20
46.671228
11
29.143004
21
46.654376
0
LINE
8
annotation
62
1
39
211
10
29.143004
20
46.654376
11
28.967480
21
46.607286
0
LINE
8
annotation
62
1
39
211
10
28.967480
20
46.607286
11
28.801988
21
46.531011
0
LINE
8
annotation
62
1
39
211
10
28.801988
20
46.531011
11
28.650579
21
46.426603
0
LINE
8
annotation
62
1
39
211
10
28.650579
20
46.426603
11
28.517309
21
46.295117
0
LINE
8
annotation
62
1
39
211
10
28.517309
20
46.295117
11
28.406230
21
46.137605
0
LINE
8
annotation
62
1
39
211
10
28.406230
20
46.137605
11
28.266257
21
45.869099
0
LINE
8
annotation
62
1
39
211
10
28.263247
20
75.250169
11
29.329144
21
75.250169
0
LINE
8
annotation
62
1
39
211
10
29.329144
20
75.250169
11
29.329144
21
75.250169
0
LINE
8
annotation
62
1
39
211
10
29.329144
20
75.250169
11
29.520849
21
75.267366
0
LINE
8
annotation
62
1
39
211
10
29.520849
20
75.267366
11
29.701236
21
75.316930
0
LINE
8
annotation
62
1
39
211
10
29.701236
20
75.316930
11
29.867305
21
75.395816
0
LINE
8
annotation
62
1
39
211
10
29.867305
20
75.395816
11
30.016057
21
75.500985
0
LINE
8
annotation
62
1
39
211
10
30.016057
20
75.500985
11
30.144491
21
75.629392
0
LINE
8
annotation
62
1
39
211
10
30.144491
20
75.629392
11
30.249607
21
75.777995
0
LINE
8
annotation
62
1
39
211
10
30.249607
20
75.777995
11
30.328404
21
75.943753
0
LINE
8
annotation
62
1
39
211
10
30.328404
20
75.943753
11
30.377882
21
76.123623
0
LINE
8
annotation
62
1
39
211
10
30.377882
20
76.123623
11
30.395042
21
76.314562
0
LINE
8
annotation
62
1
39
211
10
30.395042
20
76.314562
11
30.395042
21
76.848263
0
LINE
8
annotation
62
1
39
211
10
30.395042
20
76.848263
11
30.395042
21
76.848263
0
LINE
8
annotation
62
1
39
211
10
30.395042
20
76.848263
11
30.377882
21
77.039123
0
LINE
8
annotation
62
1
39
211
10
30.377882
20
77.039123
11
30.328404
21
77.218950
0
LINE
8
annotation
62
1
39
211
10
30.328404
20
77.218950
11
30.249607
21
77.384696
0
LINE
8
annotation
62
1
39
211
10
30.249607
20
77.384696
11
30.144491
21
77.533309
0
LINE
8
annotation
62
1
39
211
10
30.144491
20
77.533309
11
30.016057
21
77.661741
0
LINE
8
annotation
62
1
39
211
10
30.016057
20
77.661741
11
29.867305
21
77.766941
0
LINE
8
annotation
62
1
39
211
10
29.867305
20
77.766941
11
29.701236
21
77.845860
0
LINE
8
annotation
62
1
39
211
10
29.701236
20
77.845860
11
29.520849
21
77.895448
0
LINE
8
annotation
62
1
39
211
10
29.520849
20
77.895448
11
29.329144
21
77.912655
0
LINE
8
annotation
62
1
39
211
10
29.329144
20
77.912655
11
28.795443
21
77.912655
0
LINE
8
annotation
62
1
39
211
10
28.795443
20
77.912655
11
29.329144
21
77.912655
0
LINE
8
annotation
62
1
39
211
10
29.329144
20
77.912655
11
29.329144
21
77.912655
0
LINE
8
annotation
62
1
39
211
10
29.329144
20
77.912655
11
29.520849
21
77.929866
0
LINE
8
annotation
62
1
39
211
10
29.520849
20
77.929866
11
29.701236
21
77.979483
0
LINE
8
annotation
62
1
39
211
10
29.701236
20
77.979483
11
29.867305
21
78.058481
0
LINE
8
annotation
62
1
39
211
10
29.867305
20
78.058481
11
30.016057
21
78.163834
0
LINE
8
annotation
62
1
39
211
10
30.016057
20
78.163834
11
30.144491
21
78.292517
0
LINE
8
annotation
62
1
39
211
10
30.144491
20
78.292517
11
30.249607
21
78.441507
0
LINE
8
annotation
62
1
39
211
10
30.249607
20
78.441507
11
30.328404
21
78.607777
0
LINE
8
annotation
62
1
39
211
10
30.328404
20
78.607777
11
30.377882
21
78.788302
0
LINE
8
annotation
62
1
39
211
10
30.377882
20
78.788302
11
30.395042
21
78.980058
0
LINE
8
annotation
62
1
39
211
10
30.395042
20
78.980058
11
30.395042
21
78.980058
0
LINE
8
annotation
62
1
39
211
10
30.395042
20
78.980058
11
30.377882
21
79.170917
0
LINE
8
annotation
62
1
39
211
10
30.377882
20
79.170917
11
30.328404
21
79.350745
0
LINE
8
annotation
62
1
39
211
10
30.328404
20
79.350745
11
30.249607
21
79.516490
0
LINE
8
annotation
62
1
39
211
10
30.249607
20
79.516490
11
30.144491
21
79.665104
0
LINE
8
annotation
62
1
39
211
10
30.144491
20
79.665104
11
30.016057
21
79.793536
0
LINE
8
annotation
62
1
39
211
10
30.016057
20
79.793536
11
29.867305
21
79.898736
0
LINE
8
annotation
62
1
39
211
10
29.867305
20
79.898736
11
29.701236
21
79.977655
0
LINE
8
annotation
62
1
39
211
10
29.701236
20
79.977655
11
29.520849
21
80.027243
0
LINE
8
annotation
62
1
39
211
10
29.520849
20
80.027243
11
29.329144
21
80.044450
0
LINE
8
annotation
62
1
39
211
10
29.329144
20
80.044450
11
28.263247
21
80.044450
0
LINE
8
annotation
62
1
39
211
10
30.661742
20
192.206891
11
27.996547
21
192.206891
0
LINE
8
annotation
62
1
39
211
10
27.996547
20
192.206891
11
29.060939
21
195.939789
0
LINE
8
annotation
62
1
39
211
10
29.862846
20
191.139789
11
29.862846
21
193.271584
0
LINE
8
annotation
62
1
39
211
10
22.688930
20
129.301334
11
14.579686
21
129.301334
0
LINE
8
annotation
62
1
39
211
10
14.579686
20
129.301334
11
22.688930
21
143.906034
0
LINE
8
annotation
62
1
39
211
10
22.688930
20
143.906034
11
14.579686
21
143.906034
0
LINE
8
annotation
62
1
39
211
10
36.152666
20
136.603684
11
28.167066
21
136.603684
0
LINE
8
annotation
62
1
39
211
10
49.737298
20
132.548146
11
41.628054
21
132.548146
0
LINE
8
annotation
62
1
39
211
10
41.628054
20
132.548146
11
44.866623
21
143.906034
0
LINE
8
annotation
62
1
39
211
10
47.306540
20
129.301334
11
47.306540
21
135.787631
0
LINE
8
boundary
62
5
39
2
10
6.667500
20
215.531487
11
6.765165
21
214.789654
0
LINE
8
boundary
62
5
39
2
10
6.765165
20
214.789654
11
7.051503
21
214.098375
0
LINE
8
boundary
62
5
39
2
10
7.051503
20
214.098375
11
7.506999
21
213.504759
0
LINE
8
boundary
62
5
39
2
10
7.506999
20
213.504759
11
8.100613
21
213.049264
0
LINE
8
boundary
62
5
39
2
10
8.100613
20
213.049264
11
8.791892
21
212.762927
0
LINE
8
boundary
62
5
39
2
10
8.791892
20
212.762927
11
9.408755
21
212.681715
0
LINE
8
boundary
62
5
39
2
10
9.408755
20
212.681715
11
11.706538
21
212.665262
0
LINE
8
boundary
62
5
39
2
10
11.706538
20
212.665262
11
63.871281
21
212.665262
0
LINE
8
boundary
62
5
39
2
10
63.871281
20
212.665262
11
63.991993
21
215.337047
0
LINE
8
boundary
62
5
39
2
10
63.991993
20
215.337047
11
63.991993
21
216.015888
0
LINE
8
boundary
62
5
39
2
10
63.991993
20
216.015888
11
63.991993
21
216.844337
0
LINE
8
boundary
62
5
39
2
10
63.991993
20
216.844337
11
63.991993
21
217.740745
0
LINE
8
boundary
62
5
39
2
10
63.991993
20
217.740745
11
63.991993
21
218.597115
0
LINE
8
boundary
62
5
39
2
10
63.991993
20
218.597115
11
63.991993
21
241.675061
0
LINE
8
boundary
62
5
39
2
10
63.991993
20
241.675061
11
63.991993
21
253.867541
0
LINE
8
boundary
62
5
39
2
10
63.991993
20
253.867541
11
63.991993
21
256.723974
0
LINE
8
boundary
62
5
39
2
10
63.991993
20
256.723974
11
63.991993
21
258.769567
0
LINE
8
boundary
62
5
39
2
10
63.991993
20
258.769567
11
63.991993
21
259.291640
0
LINE
8
boundary
62
5
39
2
10
63.991993
20
259.291640
11
63.991993
21
266.827933
0
LINE
8
boundary
62
5
39
2
10
63.991993
20
266.827933
11
63.991993
21
268.649859
0
LINE
8
boundary
62
5
39
2
10
63.991993
20
268.649859
11
63.991993
21
269.391693
0
LINE
8
boundary
62
5
39
2
10
63.991993
20
269.391693
11
63.991993
21
270.082972
0
LINE
8
boundary
62
5
39
2
10
63.991993
20
270.082972
11
63.991993
21
270.676589
0
LINE
8
boundary
62
5
39
2
10
63.991993
20
270.676589
11
63.991993
21
271.223479
0
LINE
8
boundary
62
5
39
2
10
63.991993
20
271.223479
11
63.991993
21
273.555275
0
LINE
8
boundary
62
5
39
2
10
63.991993
20
273.555275
11
63.991993
21
277.788289
0
LINE
8
boundary
62
5
39
2
10
63.991993
20
277.788289
11
63.991993
21
278.520853
0
LINE
8
boundary
62
5
39
2
10
63.991993
20
278.520853
11
60.084148
21
278.520853
0
LINE
8
boundary
62
5
39
2
10
60.084148
20
278.520853
11
6.667500
21
278.520853
0
LINE
8
boundary
62
5
39
2
10
6.667500
20
278.520853
11
6.667500
21
277.788289
0
LINE
8
boundary
62
5
39
2
10
6.667500
20
277.788289
11
6.667500
21
274.488505
0
LINE
8
boundary
62
5
39
2
10
6.667500
20
274.488505
11
35.202746
21
274.338505
0
LINE
8
boundary
62
5
39
2
10
35.202746
20
274.338505
11
35.202746
21
271.592505
0
LINE
8
boundary
62
5
39
2
10
35.202746
20
271.592505
11
6.677800
21
271.592505
0
LINE
8
boundary
62
5
39
2
10
6.677800
20
271.592505
11
6.667500
21
270.960830
0
LINE
8
boundary
62
5
39
2
10
6.667500
20
270.960830
11
6.667500
21
270.082972
0
LINE
8
boundary
62
5
39
2
10
6.667500
20
270.082972
11
6.667500
21
269.391693
0
LINE
8
boundary
62
5
39
2
10
6.667500
20
269.391693
11
6.667500
21
268.649860
0
LINE
8
boundary
62
5
39
2
10
6.667500
20
268.649860
11
6.667500
21
266.827933
0
LINE
8
boundary
62
5
39
2
10
6.667500
20
266.827933
11
6.667500
21
259.494495
0
LINE
8
boundary
62
5
39
2
10
6.667500
20
259.494495
11
6.667500
21
258.937840
0
LINE
8
boundary
62
5
39
2
10
6.667500
20
258.937840
11
6.667500
21
256.723974
0
LINE
8
boundary
62
5
39
2
10
6.667500
20
256.723974
11
6.667500
21
253.867541
0
LINE
8
boundary
62
5
39
2
10
6.667500
20
253.867541
11
6.667500
21
252.267110
0
LINE
8
boundary
62
5
39
2
10
6.667500
20
252.267110
11
35.202746
21
252.117110
0
LINE
8
boundary
62
5
39
2
10
35.202746
20
252.117110
11
35.202746
21
249.371110
0
LINE
8
boundary
62
5
39
2
10
35.202746
20
249.371110
11
6.677800
21
249.371110
0
LINE
8
boundary
62
5
39
2
10
6.677800
20
249.371110
11
6.667500
21
232.224862
0
LINE
8
boundary
62
5
39
2
10
6.667500
20
232.224862
11
6.667500
21
220.032382
0
LINE
8
boundary
62
5
39
2
10
6.667500
20
220.032382
11
6.667500
21
219.213085
0
LINE
8
boundary
62
5
39
2
10
6.667500
20
219.213085
11
35.202746
21
218.785018
0
LINE
8
boundary
62
5
39
2
10
35.202746
20
218.785018
11
35.202746
21
216.039018
0
LINE
8
boundary
62
5
39
2
10
35.202746
20
216.039018
11
6.677800
21
216.039018
0
LINE
8
boundary
62
5
39
2
10
6.677800
20
216.039018
11
6.667500
21
215.531487
0
LINE
8
annotation
62
1
39
211
10
42.395042
20
215.011979
11
40.263247
21
215.011979
0
LINE
8
annotation
62
1
39
211
10
40.263247
20
215.011979
11
42.233095
21
218.183182
0
LINE
8
annotation
62
1
39
211
10
42.233095
20
218.183182
11
42.233095
21
218.183182
0
LINE
8
annotation
62
1
39
211
10
42.233095
20
218.183182
11
42.235450
21
218.186096
0
LINE
8
annotation
62
1
39
211
10
42.235450
20
218.186096
11
42.237708
21
218.189034
0
LINE
8
annotation
62
1
39
211
10
42.237708
20
218.189034
11
42.239885
21
218.192023
0
LINE
8
annotation
62
1
39
211
10
42.239885
20
218.192023
11
42.241994
21
218.195085
0
LINE
8
annotation
62
1
39
211
10
42.241994
20
218.195085
11
42.244052
21
218.198247
0
LINE
8
annotation
62
1
39
211
10
42.244052
20
218.198247
11
42.246072
21
218.201532
0
LINE
8
annotation
62
1
39
211
10
42.246072
20
218.201532
11
42.248070
21
218.204967
0
LINE
8
annotation
62
1
39
211
10
42.248070
20
218.204967
11
42.250061
21
218.208574
0
LINE
8
annotation
62
1
39
211
10
42.250061
20
218.208574
11
42.252059
21
218.212380
0
LINE
8
annotation
62
1
39
211
10
42.252059
20
218.212380
11
42.252059
21
218.212380
0
LINE
8
annotation
62
1
39
211
10
42.252059
20
218.212380
11
42.333394
21
218.387012
0
LINE
8
annotation
62
1
39
211
10
42.333394
20
218.387012
11
42.380908
21
218.568034
0
LINE
8
annotation
62
1
39
211
10
42.380908
20
218.568034
11
42.395766
21
218.751355
0
LINE
8
annotation
62
1
39
211
10
42.395766
20
218.751355
11
42.379133
21
218.932884
0
LINE
8
annotation
62
1
39
211
10
42.379133
20
218.932884
11
42.332173
21
219.108532
0
LINE
8
annotation
62
1
39
211
10
42.332173
20
219.108532
11
42.256050
21
219.274208
0
LINE
8
annotation
62
1
39
211
10
42.256050
20
219.274208
11
42.151930
21
219.425822
0
LINE
8
annotation
62
1
39
211
10
42.151930
20
219.425822
11
42.020975
21
219.559283
0
LINE
8
annotation
62
1
39
211
10
42.020975
20
219.559283
11
41.864351
21
219.670501
0
LINE
8
annotation
62
1
39
211
10
41.864351
20
219.670501
11
41.864351
21
219.670501
0
LINE
8
annotation
62
1
39
211
10
41.864351
20
219.670501
11
41.689233
21
219.750680
0
LINE
8
annotation
62
1
39
211
10
41.689233
20
219.750680
11
41.507934
21
219.797462
0
LINE
8
annotation
62
1
39
211
10
41.507934
20
219.797462
11
41.324507
21
219.811901
0
LINE
8
annotation
62
1
39
211
10
41.324507
20
219.811901
11
41.143004
21
219.795048
0
LINE
8
annotation
62
1
39
211
10
41.143004
20
219.795048
11
40.967480
21
219.747958
0
LINE
8
annotation
62
1
39
211
10
40.967480
20
219.747958
11
40.801987
21
219.671683
0
LINE
8
annotation
62
1
39
211
10
40.801987
20
219.671683
11
40.650579
21
219.567276
0
LINE
8
annotation
62
1
39
211
10
40.650579
20
219.567276
11
40.517309
21
219.435790
0
LINE
8
annotation
62
1
39
211
10
40.517309
20
219.435790
11
40.406230
21
219.278278
0
LINE
8
annotation
62
1
39
211
10
40.406230
20
219.278278
11
40.266257
21
219.009771
0
LINE
8
annotation
62
1
39
211
10
40.263247
20
248.344260
11
41.329144
21
248.344260
0
LINE
8
annotation
62
1
39
211
10
41.329144
20
248.344260
11
41.329144
21
248.344260
0
LINE
8
annotation
62
1
39
211
10
41.329144
20
248.344260
11
41.520849
21
248.361458
0
LINE
8
annotation
62
1
39
211
10
41.520849
20
248.361458
11
41.701236
21
248.411021
0
LINE
8
annotation
62
1
39
211
10
41.701236
20
248.411021
11
41.867305
21
248.489908
0
LINE
8
annotation
62
1
39
211
10
41.867305
20
248.489908
11
42.016057
21
248.595076
0
LINE
8
annotation
62
1
39
211
10
42.016057
20
248.595076
11
42.144491
21
248.723483
0
LINE
8
annotation
62
1
39
211
10
42.144491
20
248.723483
11
42.249607
21
248.872086
0
LINE
8
annotation
62
1
39
211
10
42.249607
20
248.872086
11
42.328404
21
249.037844
0
LINE
8
annotation
62
1
39
211
10
42.328404
20
249.037844
11
42.377882
21
249.217714
0
LINE
8
annotation
62
1
39
211
10
42.377882
20
249.217714
11
42.395042
21
249.408653
0
LINE
8
annotation
62
1
39
211
10
42.395042
20
249.408653
11
42.395042
21
249.942354
0
LINE
8
annotation
62
1
39
211
10
42.395042
20
249.942354
11
42.395042
21
249.942354
0
LINE
8
annotation
62
1
39
211
10
42.395042
20
249.942354
11
42.377882
21
250.133214
0
LINE
8
annotation
62
1
39
211
10
42.377882
20
250.133214
11
42.328404
21
250.313041
0
LINE
8
annotation
62
1
39
211
10
42.328404
20
250.313041
11
42.249607
21
250.478787
0
LINE
8
annotation
62
1
39
211
10
42.249607
20
250.478787
11
42.144491
21
250.627400
0
LINE
8
annotation
62
1
39
211
10
42.144491
20
250.627400
11
42.016057
21
250.755832
0
LINE
8
annotation
62
1
39
211
10
42.016057
20
250.755832
11
41.867305
21
250.861032
0
LINE
8
annotation
62
1
39
211
10
41.867305
20
250.861032
11
41.701236
21
250.939951
0
LINE
8
annotation
62
1
39
211
10
41.701236
20
250.939951
11
41.520849
21
250.989539
0
LINE
8
annotation
62
1
39
211
10
41.520849
20
250.989539
11
41.329144
21
251.006746
0
LINE
8
annotation
62
1
39
211
10
41.329144
20
251.006746
11
40.795443
21
251.006746
0
LINE
8
annotation
62
1
39
211
10
40.795443
20
251.006746
11
41.329144
21
251.006746
0
LINE
8
annotation
62
1
39
211
10
41.329144
20
251.006746
11
41.329144
21
251.006746
0
LINE
8
annotation
62
1
39
211
10
41.329144
20
251.006746
11
41.520849
21
251.023957
0
LINE
8
annotation
62
1
39
211
10
41.520849
20
251.023957
11
41.701236
21
251.073574
0
LINE
8
annotation
62
1
39
211
10
41.701236
20
251.073574
11
41.867305
21
251.152572
0
LINE
8
annotation
62
1
39
211
10
41.867305
20
251.152572
11
42.016057
21
251.257925
0
LINE
8
annotation
62
1
39
211
10
42.016057
20
251.257925
11
42.144491
21
251.386609
0
LINE
8
annotation
62
1
39
211
10
42.144491
20
251.386609
11
42.249607
21
251.535598
0
LINE
8
annotation
62
1
39
211
10
42.249607
20
251.535598
11
42.328404
21
251.701868
0
LINE
8
annotation
62
1
39
211
10
42.328404
20
251.701868
11
42.377882
21
251.882393
0
LINE
8
annotation
62
1
39
211
10
42.377882
20
251.882393
11
42.395042
21
252.074149
0
LINE
8
annotation
62
1
39
211
10
42.395042
20
252.074149
11
42.395042
21
252.074149
0
LINE
8
annotation
62
1
39
211
10
42.395042
20
252.074149
11
42.377882
21
252.265009
0
LINE
8
annotation
62
1
39
211
10
42.377882
20
252.265009
11
42.328404
21
252.444836
0
LINE
8
annotation
62
1
39
211
10
42.328404
20
252.444836
11
42.249607
21
252.610581
0
LINE
8
annotation
62
1
39
211
10
42.249607
20
252.610581
11
42.144491
21
252.759195
0
LINE
8
annotation
62
1
39
211
10
42.144491
20
252.759195
11
42.016057
21
252.887627
0
LINE
8
annotation
62
1
39
211
10
42.016057
20
252.887627
11
41.867305
21
252.992827
0
LINE
8
annotation
62
1
39
211
10
41.867305
20
252.992827
11
41.701236
21
253.071746
0
LINE
8
annotation
62
1
39
211
10
41.701236
20
253.071746
11
41.520849
21
253.121334
0
LINE
8
annotation
62
1
39
211
10
41.520849
20
253.121334
11
41.329144
21
253.138541
0
LINE
8
annotation
62
1
39
211
10
41.329144
20
253.138541
11
40.263247
21
253.138541
0
LINE
8
annotation
62
1
39
211
10
42.661742
20
271.632606
11
39.996547
21
271.632606
0
LINE
8
annotation
62
1
39
211
10
39.996547
20
271.632606
11
41.060939
21
275.365505
0
LINE
8
annotation
62
1
39
211
10
41.862846
20
270.565505
11
41.862846
21
272.697299
0
LINE
8
annotation
62
1
39
211
10
27.927799
20
241.386557
11
23.183343
21
234.524136
0
LINE
8
annotation
62
1
39
211
10
23.183343
20
234.524136
11
18.437995
21
241.386557
0
LINE
8
annotation
62
1
39
211
10
23.183343
20
235.076377
11
23.183343
21
227.159435
0
LINE
8
annotation
62
1
39
211
10
41.043079
20
234.272996
11
33.264419
21
234.272996
0
LINE
8
annotation
62
1
39
211
10
54.275676
20
230.322554
11
46.376577
21
230.322554
0
LINE
8
annotation
62
1
39
211
10
46.376577
20
230.322554
11
49.531221
21
241.386111
0
LINE
8
annotation
62
1
39
211
10
51.907909
20
227.159881
11
51.907909
21
233.478090
0
LINE
8
boundary
62
5
39
2
10
6.667500
20
291.479201
11
6.667500
21
284.994451
0
LINE
8
boundary
62
5
39
2
10
6.667500
20
284.994451
11
35.202746
21
284.844452
0
LINE
8
boundary
62
5
39
2
10
35.202746
20
284.844452
11
35.202746
21
282.098452
0
LINE
8
boundary
62
5
39
2
10
35.202746
20
282.098452
11
6.677800
21
282.098452
0
LINE
8
boundary
62
5
39
2
10
6.677800
20
282.098452
11
7.404846
21
281.695854
0
LINE
8
boundary
62
5
39
2
10
7.404846
20
281.695854
11
8.193589
21
281.695854
0
LINE
8
boundary
62
5
39
2
10
8.193589
20
281.695854
11
9.007099
21
281.695854
0
LINE
8
boundary
62
5
39
2
10
9.007099
20
281.695854
11
51.119872
21
281.695854
0
LINE
8
boundary
62
5
39
2
10
51.119872
20
281.695854
11
61.652394
21
281.695853
0
LINE
8
boundary
62
5
39
2
10
61.652394
20
281.695853
11
62.465904
21
281.695853
0
LINE
8
boundary
62
5
39
2
10
62.465904
20
281.695853
11
63.254647
21
281.695854
0
LINE
8
boundary
62
5
39
2
10
63.254647
20
281.695854
11
63.991993
21
281.695854
0
LINE
8
boundary
62
5
39
2
10
63.991993
20
281.695854
11
63.991993
21
291.244567
0
LINE
8
boundary
62
5
39
2
10
63.991993
20
291.244567
11
51.768662
21
291.562500
0
LINE
8
boundary
62
5
39
2
10
51.768662
20
291.562500
11
39.545331
21
291.562500
0
LINE
8
boundary
62
5
39
2
10
39.545331
20
291.562500
11
31.114162
21
291.562500
0
LINE
8
boundary
62
5
39
2
10
31.114162
20
291.562500
11
18.890831
21
291.562500
0
LINE
8
boundary
62
5
39
2
10
18.890831
20
291.562500
11
6.667500
21
291.562500
0
LINE
8
boundary
62
5
39
2
10
6.667500
20
291.562500
11
6.667500
21
291.479201
0
LINE
8
annotation
62
1
39
211
10
38.110672
20
282.118700
11
38.711499
21
282.118700
0
LINE
8
annotation
62
1
39
211
10
38.711499
20
282.118700
11
38.711499
21
282.118700
0
LINE
8
annotation
62
1
39
211
10
38.711499
20
282.118700
11
38.819559
21
282.128394
0
LINE
8
annotation
62
1
39
211
10
38.819559
20
282.128394
11
38.921240
21
282.156331
0
LINE
8
annotation
62
1
39
211
10
38.921240
20
282.156331
11
39.014850
21
282.200798
0
LINE
8
annotation
62
1
39
211
10
39.014850
20
282.200798
11
39.098699
21
282.260080
0
LINE
8
annotation
62
1
39
211
10
39.098699
20
282.260080
11
39.171095
21
282.332461
0
LINE
8
annotation
62
1
39
211
10
39.171095
20
282.332461
11
39.230347
21
282.416226
0
LINE
8
annotation
62
1
39
211
10
39.230347
20
282.416226
11
39.274763
21
282.509660
0
LINE
8
annotation
62
1
39
211
10
39.274763
20
282.509660
11
39.302653
21
282.611050
0
LINE
8
annotation
62
1
39
211
10
39.302653
20
282.611050
11
39.312326
21
282.718679
0
LINE
8
annotation
62
1
39
211
10
39.312326
20
282.718679
11
39.312326
21
283.019516
0
LINE
8
annotation
62
1
39
211
10
39.312326
20
283.019516
11
39.312326
21
283.019516
0
LINE
8
annotation
62
1
39
211
10
39.312326
20
283.019516
11
39.302653
21
283.127101
0
LINE
8
annotation
62
1
39
211
10
39.302653
20
283.127101
11
39.274763
21
283.228466
0
LINE
8
annotation
62
1
39
211
10
39.274763
20
283.228466
11
39.230347
21
283.321894
0
LINE
8
annotation
62
1
39
211
10
39.230347
20
283.321894
11
39.171095
21
283.405665
0
LINE
8
annotation
62
1
39
211
10
39.171095
20
283.405665
11
39.098699
21
283.478059
0
LINE
8
annotation
62
1
39
211
10
39.098699
20
283.478059
11
39.014850
21
283.537359
0
LINE
8
annotation
62
1
39
211
10
39.014850
20
283.537359
11
38.921240
21
283.581844
0
LINE
8
annotation
62
1
39
211
10
38.921240
20
283.581844
11
38.819559
21
283.609796
0
LINE
8
annotation
62
1
39
211
10
38.819559
20
283.609796
11
38.711499
21
283.619495
0
LINE
8
annotation
62
1
39
211
10
38.711499
20
283.619495
11
38.410661
21
283.619495
0
LINE
8
annotation
62
1
39
211
10
38.410661
20
283.619495
11
38.711499
21
283.619495
0
LINE
8
annotation
62
1
39
211
10
38.711499
20
283.619495
11
38.711499
21
283.619495
0
LINE
8
annotation
62
1
39
211
10
38.711499
20
283.619495
11
38.819559
21
283.629197
0
LINE
8
annotation
62
1
39
211
10
38.819559
20
283.629197
11
38.921240
21
283.657165
0
LINE
8
annotation
62
1
39
211
10
38.921240
20
283.657165
11
39.014850
21
283.701694
0
LINE
8
annotation
62
1
39
211
10
39.014850
20
283.701694
11
39.098699
21
283.761080
0
LINE
8
annotation
62
1
39
211
10
39.098699
20
283.761080
11
39.171095
21
283.833617
0
LINE
8
annotation
62
1
39
211
10
39.171095
20
283.833617
11
39.230347
21
283.917599
0
LINE
8
annotation
62
1
39
211
10
39.230347
20
283.917599
11
39.274763
21
284.011322
0
LINE
8
annotation
62
1
39
211
10
39.274763
20
284.011322
11
39.302653
21
284.113081
0
LINE
8
annotation
62
1
39
211
10
39.302653
20
284.113081
11
39.312326
21
284.221171
0
LINE
8
annotation
62
1
39
211
10
39.312326
20
284.221171
11
39.312326
21
284.221171
0
LINE
8
annotation
62
1
39
211
10
39.312326
20
284.221171
11
39.302653
21
284.328755
0
LINE
8
annotation
62
1
39
211
10
39.302653
20
284.328755
11
39.274763
21
284.430120
0
LINE
8
annotation
62
1
39
211
10
39.274763
20
284.430120
11
39.230347
21
284.523548
0
LINE
8
annotation
62
1
39
211
10
39.230347
20
284.523548
11
39.171095
21
284.607319
0
LINE
8
annotation
62
1
39
211
10
39.171095
20
284.607319
11
39.098699
21
284.679713
0
LINE
8
annotation
62
1
39
211
10
39.098699
20
284.679713
11
39.014850
21
284.739013
0
LINE
8
annotation
62
1
39
211
10
39.014850
20
284.739013
11
38.921240
21
284.783498
0
LINE
8
annotation
62
1
39
211
10
38.921240
20
284.783498
11
38.819559
21
284.811450
0
LINE
8
annotation
62
1
39
211
10
38.819559
20
284.811450
11
38.711499
21
284.821149
0
LINE
8
annotation
62
1
39
211
10
38.711499
20
284.821149
11
38.110672
21
284.821149
0
LINE
8
annotation
62
1
39
211
10
42.956542
20
287.797409
11
41.579927
21
285.806261
0
LINE
8
annotation
62
1
39
211
10
41.579927
20
285.806261
11
40.203052
21
287.797409
0
LINE
8
annotation
62
1
39
211
10
41.579927
20
285.966495
11
41.579927
21
283.669374
0
LINE
8
annotation
62
1
39
211
10
46.761973
20
285.733392
11
44.504976
21
285.733392
0
LINE
8
annotation
62
1
39
211
10
48.309501
20
283.669633
11
49.226123
21
283.669633
0
LINE
8
annotation
62
1
39
211
10
49.226123
20
283.669633
11
49.226123
21
283.669633
0
LINE
8
annotation
62
1
39
211
10
49.226123
20
283.669633
11
49.390980
21
283.684422
0
LINE
8
annotation
62
1
39
211
10
49.390980
20
283.684422
11
49.546104
21
283.727044
0
LINE
8
annotation
62
1
39
211
10
49.546104
20
283.727044
11
49.688917
21
283.794883
0
LINE
8
annotation
62
1
39
211
10
49.688917
20
283.794883
11
49.816836
21
283.885323
0
LINE
8
annotation
62
1
39
211
10
49.816836
20
283.885323
11
49.927283
21
283.995747
0
LINE
8
annotation
62
1
39
211
10
49.927283
20
283.995747
11
50.017678
21
284.123539
0
LINE
8
annotation
62
1
39
211
10
50.017678
20
284.123539
11
50.085440
21
284.266083
0
LINE
8
annotation
62
1
39
211
10
50.085440
20
284.266083
11
50.127989
21
284.420762
0
LINE
8
annotation
62
1
39
211
10
50.127989
20
284.420762
11
50.142745
21
284.584961
0
LINE
8
annotation
62
1
39
211
10
50.142745
20
284.584961
11
50.142745
21
285.043919
0
LINE
8
annotation
62
1
39
211
10
50.142745
20
285.043919
11
50.142745
21
285.043919
0
LINE
8
annotation
62
1
39
211
10
50.142745
20
285.043919
11
50.127989
21
285.208050
0
LINE
8
annotation
62
1
39
211
10
50.127989
20
285.208050
11
50.085440
21
285.362693
0
LINE
8
annotation
62
1
39
211
10
50.085440
20
285.362693
11
50.017678
21
285.505226
0
LINE
8
annotation
62
1
39
211
10
50.017678
20
285.505226
11
49.927283
21
285.633027
0
LINE
8
annotation
62
1
39
211
10
49.927283
20
285.633027
11
49.816836
21
285.743472
0
LINE
8
annotation
62
1
39
211
10
49.816836
20
285.743472
11
49.688917
21
285.833940
0
LINE
8
annotation
62
1
39
211
10
49.688917
20
285.833940
11
49.546104
21
285.901806
0
LINE
8
annotation
62
1
39
211
10
49.546104
20
285.901806
11
49.390980
21
285.944450
0
LINE
8
annotation
62
1
39
211
10
49.390980
20
285.944450
11
49.226123
21
285.959247
0
LINE
8
annotation
62
1
39
211
10
49.226123
20
285.959247
11
48.767165
21
285.959247
0
LINE
8
annotation
62
1
39
211
10
48.767165
20
285.959247
11
49.226123
21
285.959247
0
LINE
8
annotation
62
1
39
211
10
49.226123
20
285.959247
11
49.226123
21
285.959247
0
LINE
8
annotation
62
1
39
211
10
49.226123
20
285.959247
11
49.390980
21
285.974048
0
LINE
8
annotation
62
1
39
211
10
49.390980
20
285.974048
11
49.546104
21
286.016716
0
LINE
8
annotation
62
1
39
211
10
49.546104
20
286.016716
11
49.688917
21
286.084650
0
LINE
8
annotation
62
1
39
211
10
49.688917
20
286.084650
11
49.816836
21
286.175249
0
LINE
8
annotation
62
1
39
211
10
49.816836
20
286.175249
11
49.927283
21
286.285911
0
LINE
8
annotation
62
1
39
211
10
49.927283
20
286.285911
11
50.017678
21
286.414035
0
LINE
8
annotation
62
1
39
211
10
50.017678
20
286.414035
11
50.085440
21
286.557019
0
LINE
8
annotation
62
1
39
211
10
50.085440
20
286.557019
11
50.127989
21
286.712262
0
LINE
8
annotation
62
1
39
211
10
50.127989
20
286.712262
11
50.142745
21
286.877163
0
LINE
8
annotation
62
1
39
211
10
50.142745
20
286.877163
11
50.142745
21
286.877163
0
LINE
8
annotation
62
1
39
211
10
50.142745
20
286.877163
11
50.127989
21
287.041294
0
LINE
8
annotation
62
1
39
211
10
50.127989
20
287.041294
11
50.085440
21
287.195937
0
LINE
8
annotation
62
1
39
211
10
50.085440
20
287.195937
11
50.017678
21
287.338470
0
LINE
8
annotation
62
1
39
211
10
50.017678
20
287.338470
11
49.927283
21
287.466271
0
LINE
8
annotation
62
1
39
211
10
49.927283
20
287.466271
11
49.816836
21
287.576716
0
LINE
8
annotation
62
1
39
211
10
49.816836
20
287.576716
11
49.688917
21
287.667184
0
LINE
8
annotation
62
1
39
211
10
49.688917
20
287.667184
11
49.546104
21
287.735051
0
LINE
8
annotation
62
1
39
211
10
49.546104
20
287.735051
11
49.390980
21
287.777694
0
LINE
8
annotation
62
1
39
211
10
49.390980
20
287.777694
11
49.226123
21
287.792491
0
LINE
8
annotation
62
1
39
211
10
49.226123
20
287.792491
11
48.309501
21
287.792491
0
LINE
8
annotation
62
1
39
211
10
53.948047
20
285.733392
11
51.691050
21
285.733392
0
LINE
8
annotation
62
1
39
211
10
55.495575
20
283.669633
11
56.412197
21
283.669633
0
LINE
8
annotation
62
1
39
211
10
56.412197
20
283.669633
11
56.412197
21
283.669633
0
LINE
8
annotation
62
1
39
211
10
56.412197
20
283.669633
11
56.577054
21
283.684422
0
LINE
8
annotation
62
1
39
211
10
56.577054
20
283.684422
11
56.732178
21
283.727044
0
LINE
8
annotation
62
1
39
211
10
56.732178
20
283.727044
11
56.874990
21
283.794883
0
LINE
8
annotation
62
1
39
211
10
56.874990
20
283.794883
11
57.002910
21
283.885323
0
LINE
8
annotation
62
1
39
211
10
57.002910
20
283.885323
11
57.113357
21
283.995747
0
LINE
8
annotation
62
1
39
211
10
57.113357
20
283.995747
11
57.203752
21
284.123539
0
LINE
8
annotation
62
1
39
211
10
57.203752
20
284.123539
11
57.271514
21
284.266083
0
LINE
8
annotation
62
1
39
211
10
57.271514
20
284.266083
11
57.314063
21
284.420762
0
LINE
8
annotation
62
1
39
211
10
57.314063
20
284.420762
11
57.328819
21
284.584961
0
LINE
8
annotation
62
1
39
211
10
57.328819
20
284.584961
11
57.328819
21
285.043919
0
LINE
8
annotation
62
1
39
211
10
57.328819
20
285.043919
11
57.328819
21
285.043919
0
LINE
8
annotation
62
1
39
211
10
57.328819
20
285.043919
11
57.314063
21
285.208050
0
LINE
8
annotation
62
1
39
211
10
57.314063
20
285.208050
11
57.271514
21
285.362693
0
LINE
8
annotation
62
1
39
211
10
57.271514
20
285.362693
11
57.203752
21
285.505226
0
LINE
8
annotation
62
1
39
211
10
57.203752
20
285.505226
11
57.113357
21
285.633027
0
LINE
8
annotation
62
1
39
211
10
57.113357
20
285.633027
11
57.002910
21
285.743472
0
LINE
8
annotation
62
1
39
211
10
57.002910
20
285.743472
11
56.874990
21
285.833940
0
LINE
8
annotation
62
1
39
211
10
56.874990
20
285.833940
11
56.732178
21
285.901806
0
LINE
8
annotation
62
1
39
211
10
56.732178
20
285.901806
11
56.577054
21
285.944450
0
LINE
8
annotation
62
1
39
211
10
56.577054
20
285.944450
11
56.412197
21
285.959247
0
LINE
8
annotation
62
1
39
211
10
56.412197
20
285.959247
11
55.953239
21
285.959247
0
LINE
8
annotation
62
1
39
211
10
55.953239
20
285.959247
11
56.412197
21
285.959247
0
LINE
8
annotation
62
1
39
211
10
56.412197
20
285.959247
11
56.412197
21
285.959247
0
LINE
8
annotation
62
1
39
211
10
56.412197
20
285.959247
11
56.577054
21
285.974048
0
LINE
8
annotation
62
1
39
211
10
56.577054
20
285.974048
11
56.732178
21
286.016716
0
LINE
8
annotation
62
1
39
211
10
56.732178
20
286.016716
11
56.874990
21
286.084650
0
LINE
8
annotation
62
1
39
211
10
56.874990
20
286.084650
11
57.002910
21
286.175249
0
LINE
8
annotation
62
1
39
211
10
57.002910
20
286.175249
11
57.113357
21
286.285911
0
LINE
8
annotation
62
1
39
211
10
57.113357
20
286.285911
11
57.203752
21
286.414035
0
LINE
8
annotation
62
1
39
211
10
57.203752
20
286.414035
11
57.271514
21
286.557019
0
LINE
8
annotation
62
1
39
211
10
57.271514
20
286.557019
11
57.314063
21
286.712262
0
LINE
8
annotation
62
1
39
211
10
57.314063
20
286.712262
11
57.328819
21
286.877163
0
LINE
8
annotation
62
1
39
211
10
57.328819
20
286.877163
11
57.328819
21
286.877163
0
LINE
8
annotation
62
1
39
211
10
57.328819
20
286.877163
11
57.314063
21
287.041294
0
LINE
8
annotation
62
1
39
211
10
57.314063
20
287.041294
11
57.271514
21
287.195937
0
LINE
8
annotation
62
1
39
211
10
57.271514
20
287.195937
11
57.203752
21
287.338470
0
LINE
8
annotation
62
1
39
211
10
57.203752
20
287.338470
11
57.113357
21
287.466271
0
LINE
8
annotation
62
1
39
211
10
57.113357
20
287.466271
11
57.002910
21
287.576716
0
LINE
8
annotation
62
1
39
211
10
57.002910
20
287.576716
11
56.874990
21
287.667184
0
LINE
8
annotation
62
1
39
211
10
56.874990
20
287.667184
11
56.732178
21
287.735051
0
LINE
8
annotation
62
1
39
211
10
56.732178
20
287.735051
11
56.577054
21
287.777694
0
LINE
8
annotation
62
1
39
211
10
56.577054
20
287.777694
11
56.412197
21
287.792491
0
LINE
8
annotation
62
1
39
211
10
56.412197
20
287.792491
11
55.495575
21
287.792491
0
LINE
8
boundary
62
5
39
2
10
67.166993
20
12.207455
11
67.166993
21
11.072854
0
LINE
8
boundary
62
5
39
2
10
67.166993
20
11.072854
11
67.166994
21
6.667500
0
LINE
8
boundary
62
5
39
2
10
67.166994
20
6.667500
11
117.187769
21
6.667500
0
LINE
8
boundary
62
5
39
2
10
117.187769
20
6.667500
11
124.491486
21
6.667500
0
LINE
8
boundary
62
5
39
2
10
124.491486
20
6.667500
11
124.491486
21
10.862349
0
LINE
8
boundary
62
5
39
2
10
124.491486
20
10.862349
11
95.956240
21
11.012350
0
LINE
8
boundary
62
5
39
2
10
95.956240
20
11.012350
11
95.956239
21
13.758349
0
LINE
8
boundary
62
5
39
2
10
95.956239
20
13.758349
11
124.481186
21
13.758349
0
LINE
8
boundary
62
5
39
2
10
124.481186
20
13.758349
11
124.491486
21
14.396587
0
LINE
8
boundary
62
5
39
2
10
124.491486
20
14.396587
11
124.491486
21
15.193165
0
LINE
8
boundary
62
5
39
2
10
124.491486
20
15.193165
11
124.491486
21
15.964310
0
LINE
8
boundary
62
5
39
2
10
124.491486
20
15.964310
11
124.491486
21
16.588377
0
LINE
8
boundary
62
5
39
2
10
124.491486
20
16.588377
11
124.491486
21
18.112324
0
LINE
8
boundary
62
5
39
2
10
124.491486
20
18.112324
11
124.491486
21
23.036439
0
LINE
8
boundary
62
5
39
2
10
124.491486
20
23.036439
11
124.491486
21
24.802663
0
LINE
8
boundary
62
5
39
2
10
124.491486
20
24.802663
11
124.491486
21
44.241023
0
LINE
8
boundary
62
5
39
2
10
124.491486
20
44.241023
11
95.956240
21
44.391023
0
LINE
8
boundary
62
5
39
2
10
95.956240
20
44.391023
11
95.956240
21
47.137023
0
LINE
8
boundary
62
5
39
2
10
95.956240
20
47.137023
11
124.481186
21
47.137023
0
LINE
8
boundary
62
5
39
2
10
124.481186
20
47.137023
11
124.491486
21
136.719650
0
LINE
8
boundary
62
5
39
2
10
124.491486
20
136.719650
11
124.491486
21
156.451861
0
LINE
8
boundary
62
5
39
2
10
124.491486
20
156.451861
11
124.491486
21
157.870706
0
LINE
8
boundary
62
5
39
2
10
124.491486
20
157.870706
11
124.491486
21
158.525665
0
LINE
8
boundary
62
5
39
2
10
124.491486
20
158.525665
11
124.491486
21
160.130794
0
LINE
8
boundary
62
5
39
2
10
124.491486
20
160.130794
11
95.956240
21
160.280794
0
LINE
8
boundary
62
5
39
2
10
95.956240
20
160.280794
11
95.956240
21
163.026794
0
LINE
8
boundary
62
5
39
2
10
95.956240
20
163.026794
11
124.481186
21
163.026793
0
LINE
8
boundary
62
5
39
2
10
124.481186
20
163.026793
11
124.491486
21
164.251632
0
LINE
8
boundary
62
5
39
2
10
124.491486
20
164.251632
11
124.491486
21
166.545460
0
LINE
8
boundary
62
5
39
2
10
124.491486
20
166.545460
11
124.393821
21
167.287293
0
LINE
8
boundary
62
5
39
2
10
124.393821
20
167.287293
11
124.107483
21
167.978572
0
LINE
8
boundary
62
5
39
2
10
124.107483
20
167.978572
11
123.651987
21
168.572189
0
LINE
8
boundary
62
5
39
2
10
123.651987
20
168.572189
11
123.058373
21
169.027684
0
LINE
8
boundary
62
5
39
2
10
123.058373
20
169.027684
11
122.367094
21
169.314016
0
LINE
8
boundary
62
5
39
2
10
122.367094
20
169.314016
11
121.818606
21
169.386229
0
LINE
8
boundary
62
5
39
2
10
121.818606
20
169.386229
11
79.592048
21
169.411685
0
LINE
8
boundary
62
5
39
2
10
79.592048
20
169.411685
11
70.033219
21
169.411684
0
LINE
8
boundary
62
5
39
2
10
70.033219
20
169.411684
11
69.291385
21
169.314016
0
LINE
8
boundary
62
5
39
2
10
69.291385
20
169.314016
11
68.600106
21
169.027684
0
LINE
8
boundary
62
5
39
2
10
68.600106
20
169.027684
11
68.006492
21
168.572189
0
LINE
8
boundary
62
5
39
2
10
68.006492
20
168.572189
11
67.550997
21
167.978572
0
LINE
8
boundary
62
5
39
2
10
67.550997
20
167.978572
11
67.264659
21
167.287293
0
LINE
8
boundary
62
5
39
2
10
67.264659
20
167.287293
11
67.194136
21
166.751627
0
LINE
8
boundary
62
5
39
2
10
67.194136
20
166.751627
11
67.166993
21
158.525665
0
LINE
8
boundary
62
5
39
2
10
67.166993
20
158.525665
11
67.166993
21
157.870706
0
LINE
8
boundary
62
5
39
2
10
67.166993
20
157.870706
11
67.166993
21
156.588088
0
LINE
8
boundary
62
5
39
2
10
67.166993
20
156.588088
11
67.166993
21
136.719650
0
LINE
8
boundary
62
5
39
2
10
67.166993
20
136.719650
11
67.166993
21
24.802663
0
LINE
8
boundary
62
5
39
2
10
67.166993
20
24.802663
11
67.166993
21
23.036439
0
LINE
8
boundary
62
5
39
2
10
67.166993
20
23.036439
11
67.166993
21
18.112324
0
LINE
8
boundary
62
5
39
2
10
67.166993
20
18.112324
11
67.166993
21
16.588377
0
LINE
8
boundary
62
5
39
2
10
67.166993
20
16.588377
11
67.166993
21
15.964309
0
LINE
8
boundary
62
5
39
2
10
67.166993
20
15.964309
11
67.166993
21
15.193165
0
LINE
8
boundary
62
5
39
2
10
67.166993
20
15.193165
11
67.166993
21
14.396587
0
LINE
8
boundary
62
5
39
2
10
67.166993
20
14.396587
11
67.166993
21
13.637997
0
LINE
8
boundary
62
5
39
2
10
67.166993
20
13.637997
11
67.166993
21
12.207455
0
LINE
8
annotation
62
1
39
211
10
90.894535
20
9.985310
11
88.762740
21
9.985310
0
LINE
8
annotation
62
1
39
211
10
88.762740
20
9.985310
11
90.732588
21
13.156513
0
LINE
8
annotation
62
1
39
211
10
90.732588
20
13.156513
11
90.732588
21
13.156513
0
LINE
8
annotation
62
1
39
211
10
90.732588
20
13.156513
11
90.734943
21
13.159427
0
LINE
8
annotation
62
1
39
211
10
90.734943
20
13.159427
11
90.737201
21
13.162366
0
LINE
8
annotation
62
1
39
211
10
90.737201
20
13.162366
11
90.739378
21
13.165354
0
LINE
8
annotation
62
1
39
211
10
90.739378
20
13.165354
11
90.741488
21
13.168417
0
LINE
8
annotation
62
1
39
211
10
90.741488
20
13.168417
11
90.743545
21
13.171578
0
LINE
8
annotation
62
1
39
211
10
90.743545
20
13.171578
11
90.745566
21
13.174864
0
LINE
8
annotation
62
1
39
211
10
90.745566
20
13.174864
11
90.747564
21
13.178298
0
LINE
8
annotation
62
1
39
211
10
90.747564
20
13.178298
11
90.749554
21
13.181906
0
LINE
8
annotation
62
1
39
211
10
90.749554
20
13.181906
11
90.751552
21
13.185712
0
LINE
8
annotation
62
1
39
211
10
90.751552
20
13.185712
11
90.751552
21
13.185712
0
LINE
8
annotation
62
1
39
211
10
90.751552
20
13.185712
11
90.832887
21
13.360344
0
LINE
8
annotation
62
1
39
211
10
90.832887
20
13.360344
11
90.880401
21
13.541366
0
LINE
8
annotation
62
1
39
211
10
90.880401
20
13.541366
11
90.895260
21
13.724686
0
LINE
8
annotation
62
1
39
211
10
90.895260
20
13.724686
11
90.878627
21
13.906216
0
LINE
8
annotation
62
1
39
211
10
90.878627
20
13.906216
11
90.831666
21
14.081864
0
LINE
8
annotation
62
1
39
211
10
90.831666
20
14.081864
11
90.755544
21
14.247540
0
LINE
8
annotation
62
1
39
211
10
90.755544
20
14.247540
11
90.651423
21
14.399154
0
LINE
8
annotation
62
1
39
211
10
90.651423
20
14.399154
11
90.520468
21
14.532615
0
LINE
8
annotation
62
1
39
211
10
90.520468
20
14.532615
11
90.363844
21
14.643833
0
LINE
8
annotation
62
1
39
211
10
90.363844
20
14.643833
11
90.363844
21
14.643833
0
LINE
8
annotation
62
1
39
211
10
90.363844
20
14.643833
11
90.188726
21
14.724012
0
LINE
8
annotation
62
1
39
211
10
90.188726
20
14.724012
11
90.007427
21
14.770794
0
LINE
8
annotation
62
1
39
211
10
90.007427
20
14.770794
11
89.824000
21
14.785232
0
LINE
8
annotation
62
1
39
211
10
89.824000
20
14.785232
11
89.642497
21
14.768380
0
LINE
8
annotation
62
1
39
211
10
89.642497
20
14.768380
11
89.466973
21
14.721290
0
LINE
8
annotation
62
1
39
211
10
89.466973
20
14.721290
11
89.301481
21
14.645015
0
LINE
8
annotation
62
1
39
211
10
89.301481
20
14.645015
11
89.150072
21
14.540608
0
LINE
8
annotation
62
1
39
211
10
89.150072
20
14.540608
11
89.016802
21
14.409121
0
LINE
8
annotation
62
1
39
211
10
89.016802
20
14.409121
11
88.905723
21
14.251609
0
LINE
8
annotation
62
1
39
211
10
88.905723
20
14.251609
11
88.765750
21
13.983103
0
LINE
8
annotation
62
1
39
211
10
88.762740
20
43.364174
11
89.828638
21
43.364174
0
LINE
8
annotation
62
1
39
211
10
89.828638
20
43.364174
11
89.828638
21
43.364174
0
LINE
8
annotation
62
1
39
211
10
89.828638
20
43.364174
11
90.020342
21
43.381371
0
LINE
8
annotation
62
1
39
211
10
90.020342
20
43.381371
11
90.200729
21
43.430934
0
LINE
8
annotation
62
1
39
211
10
90.200729
20
43.430934
11
90.366798
21
43.509821
0
LINE
8
annotation
62
1
39
211
10
90.366798
20
43.509821
11
90.515550
21
43.614989
0
LINE
8
annotation
62
1
39
211
10
90.515550
20
43.614989
11
90.643984
21
43.743396
0
LINE
8
annotation
62
1
39
211
10
90.643984
20
43.743396
11
90.749100
21
43.891999
0
LINE
8
annotation
62
1
39
211
10
90.749100
20
43.891999
11
90.827897
21
44.057757
0
LINE
8
annotation
62
1
39
211
10
90.827897
20
44.057757
11
90.877375
21
44.237627
0
LINE
8
annotation
62
1
39
211
10
90.877375
20
44.237627
11
90.894535
21
44.428566
0
LINE
8
annotation
62
1
39
211
10
90.894535
20
44.428566
11
90.894535
21
44.962267
0
LINE
8
annotation
62
1
39
211
10
90.894535
20
44.962267
11
90.894535
21
44.962267
0
LINE
8
annotation
62
1
39
211
10
90.894535
20
44.962267
11
90.877375
21
45.153127
0
LINE
8
annotation
62
1
39
211
10
90.877375
20
45.153127
11
90.827897
21
45.332954
0
LINE
8
annotation
62
1
39
211
10
90.827897
20
45.332954
11
90.749100
21
45.498700
0
LINE
8
annotation
62
1
39
211
10
90.749100
20
45.498700
11
90.643984
21
45.647313
0
LINE
8
annotation
62
1
39
211
10
90.643984
20
45.647313
11
90.515550
21
45.775745
0
LINE
8
annotation
62
1
39
211
10
90.515550
20
45.775745
11
90.366798
21
45.880945
0
LINE
8
annotation
62
1
39
211
10
90.366798
20
45.880945
11
90.200729
21
45.959864
0
LINE
8
annotation
62
1
39
211
10
90.200729
20
45.959864
11
90.020342
21
46.009452
0
LINE
8
annotation
62
1
39
211
10
90.020342
20
46.009452
11
89.828638
21
46.026659
0
LINE
8
annotation
62
1
39
211
10
89.828638
20
46.026659
11
89.294936
21
46.026659
0
LINE
8
annotation
62
1
39
211
10
89.294936
20
46.026659
11
89.828638
21
46.026659
0
LINE
8
annotation
62
1
39
211
10
89.828638
20
46.026659
11
89.828638
21
46.026659
0
LINE
8
annotation
62
1
39
211
10
89.828638
20
46.026659
11
90.020342
21
46.043871
0
LINE
8
annotation
62
1
39
211
10
90.020342
20
46.043871
11
90.200729
21
46.093487
0
LINE
8
annotation
62
1
39
211
10
90.200729
20
46.093487
11
90.366798
21
46.172485
0
LINE
8
annotation
62
1
39
211
10
90.366798
20
46.172485
11
90.515550
21
46.277838
0
LINE
8
annotation
62
1
39
211
10
90.515550
20
46.277838
11
90.643984
21
46.406522
0
LINE
8
annotation
62
1
39
211
10
90.643984
20
46.406522
11
90.749100
21
46.555511
0
LINE
8
annotation
62
1
39
211
10
90.749100
20
46.555511
11
90.827897
21
46.721781
0
LINE
8
annotation
62
1
39
211
10
90.827897
20
46.721781
11
90.877375
21
46.902306
0
LINE
8
annotation
62
1
39
211
10
90.877375
20
46.902306
11
90.894535
21
47.094062
0
LINE
8
annotation
62
1
39
211
10
90.894535
20
47.094062
11
90.894535
21
47.094062
0
LINE
8
annotation
62
1
39
211
10
90.894535
20
47.094062
11
90.877375
21
47.284922
0
LINE
8
annotation
62
1
39
211
10
90.877375
20
47.284922
11
90.827897
21
47.464749
0
LINE
8
annotation
62
1
39
211
10
90.827897
20
47.464749
11
90.749100
21
47.630495
0
LINE
8
annotation
62
1
39
211
10
90.749100
20
47.630495
11
90.643984
21
47.779108
0
LINE
8
annotation
62
1
39
211
10
90.643984
20
47.779108
11
90.515550
21
47.907540
0
LINE
8
annotation
62
1
39
211
10
90.515550
20
47.907540
11
90.366798
21
48.012740
0
LINE
8
annotation
62
1
39
211
10
90.366798
20
48.012740
11
90.200729
21
48.091659
0
LINE
8
annotation
62
1
39
211
10
90.200729
20
48.091659
11
90.020342
21
48.141247
0
LINE
8
annotation
62
1
39
211
10
90.020342
20
48.141247
11
89.828638
21
48.158454
0
LINE
8
annotation
62
1
39
211
10
89.828638
20
48.158454
11
88.762740
21
48.158454
0
LINE
8
annotation
62
1
39
211
10
91.161235
20
160.320895
11
88.496040
21
160.320895
0
LINE
8
annotation
62
1
39
211
10
88.496040
20
160.320895
11
89.560432
21
164.053794
0
LINE
8
annotation
62
1
39
211
10
90.362339
20
159.253794
11
90.362339
21
161.385588
0
LINE
8
annotation
62
1
39
211
10
89.797272
20
102.911829
11
86.543860
21
102.911829
0
LINE
8
annotation
62
1
39
211
10
86.543860
20
102.911829
11
89.797272
21
108.771206
0
LINE
8
annotation
62
1
39
211
10
89.797272
20
108.771206
11
86.543860
21
108.771206
0
LINE
8
annotation
62
1
39
211
10
95.198897
20
105.841518
11
91.995090
21
105.841518
0
LINE
8
annotation
62
1
39
211
10
97.395612
20
102.912013
11
98.696756
21
102.912013
0
LINE
8
annotation
62
1
39
211
10
98.696756
20
102.912013
11
98.696756
21
102.912013
0
LINE
8
annotation
62
1
39
211
10
98.696756
20
102.912013
11
98.930770
21
102.933006
0
LINE
8
annotation
62
1
39
211
10
98.930770
20
102.933006
11
99.150969
21
102.993508
0
LINE
8
annotation
62
1
39
211
10
99.150969
20
102.993508
11
99.353691
21
103.089805
0
LINE
8
annotation
62
1
39
211
10
99.353691
20
103.089805
11
99.535273
21
103.218184
0
LINE
8
annotation
62
1
39
211
10
99.535273
20
103.218184
11
99.692053
21
103.374931
0
LINE
8
annotation
62
1
39
211
10
99.692053
20
103.374931
11
99.820368
21
103.556332
0
LINE
8
annotation
62
1
39
211
10
99.820368
20
103.556332
11
99.916556
21
103.758673
0
LINE
8
annotation
62
1
39
211
10
99.916556
20
103.758673
11
99.976954
21
103.978240
0
LINE
8
annotation
62
1
39
211
10
99.976954
20
103.978240
11
99.997901
21
104.211320
0
LINE
8
annotation
62
1
39
211
10
99.997901
20
104.211320
11
99.997901
21
104.862811
0
LINE
8
annotation
62
1
39
211
10
99.997901
20
104.862811
11
99.997901
21
104.862811
0
LINE
8
annotation
62
1
39
211
10
99.997901
20
104.862811
11
99.976954
21
105.095795
0
LINE
8
annotation
62
1
39
211
10
99.976954
20
105.095795
11
99.916556
21
105.315311
0
LINE
8
annotation
62
1
39
211
10
99.916556
20
105.315311
11
99.820368
21
105.517637
0
LINE
8
annotation
62
1
39
211
10
99.820368
20
105.517637
11
99.692053
21
105.699050
0
LINE
8
annotation
62
1
39
211
10
99.692053
20
105.699050
11
99.535273
21
105.855827
0
LINE
8
annotation
62
1
39
211
10
99.535273
20
105.855827
11
99.353691
21
105.984245
0
LINE
8
annotation
62
1
39
211
10
99.353691
20
105.984245
11
99.150969
21
106.080582
0
LINE
8
annotation
62
1
39
211
10
99.150969
20
106.080582
11
98.930770
21
106.141114
0
LINE
8
annotation
62
1
39
211
10
98.930770
20
106.141114
11
98.696756
21
106.162119
0
LINE
8
annotation
62
1
39
211
10
98.696756
20
106.162119
11
98.045265
21
106.162119
0
LINE
8
annotation
62
1
39
211
10
98.045265
20
106.162119
11
98.696756
21
106.162119
0
LINE
8
annotation
62
1
39
211
10
98.696756
20
106.162119
11
98.696756
21
106.162119
0
LINE
8
annotation
62
1
39
211
10
98.696756
20
106.162119
11
98.930770
21
106.183128
0
LINE
8
annotation
62
1
39
211
10
98.930770
20
106.183128
11
99.150969
21
106.243696
0
LINE
8
annotation
62
1
39
211
10
99.150969
20
106.243696
11
99.353691
21
106.340128
0
LINE
8
annotation
62
1
39
211
10
99.353691
20
106.340128
11
99.535273
21
106.468733
0
LINE
8
annotation
62
1
39
211
10
99.535273
20
106.468733
11
99.692053
21
106.625818
0
LINE
8
annotation
62
1
39
211
10
99.692053
20
106.625818
11
99.820368
21
106.807690
0
LINE
8
annotation
62
1
39
211
10
99.820368
20
106.807690
11
99.916556
21
107.010656
0
LINE
8
annotation
62
1
39
211
10
99.916556
20
107.010656
11
99.976954
21
107.231024
0
LINE
8
annotation
62
1
39
211
10
99.976954
20
107.231024
11
99.997901
21
107.465101
0
LINE
8
annotation
62
1
39
211
10
99.997901
20
107.465101
11
99.997901
21
107.465101
0
LINE
8
annotation
62
1
39
211
10
99.997901
20
107.465101
11
99.976954
21
107.698084
0
LINE
8
annotation
62
1
39
211
10
99.976954
20
107.698084
11
99.916556
21
107.917600
0
LINE
8
annotation
62
1
39
211
10
99.916556
20
107.917600
11
99.820368
21
108.119926
0
LINE
8
annotation
62
1
39
211
10
99.820368
20
108.119926
11
99.692053
21
108.301339
0
LINE
8
annotation
62
1
39
211
10
99.692053
20
108.301339
11
99.535273
21
108.458116
0
LINE
8
annotation
62
1
39
211
10
99.535273
20
108.458116
11
99.353691
21
108.586534
0
LINE
8
annotation
62
1
39
211
10
99.353691
20
108.586534
11
99.150969
21
108.682871
0
LINE
8
annotation
62
1
39
211
10
99.150969
20
108.682871
11
98.930770
21
108.743403
0
LINE
8
annotation
62
1
39
211
10
98.930770
20
108.743403
11
98.696756
21
108.764408
0
LINE
8
annotation
62
1
39
211
10
98.696756
20
108.764408
11
97.395612
21
108.764408
0
LINE
8
annotation
62
1
39
211
10
105.399525
20
105.841518
11
102.195718
21
105.841518
0
LINE
8
annotation
62
1
39
211
10
110.198972
20
102.911782
11
107.596683
21
102.911782
0
LINE
8
annotation
62
1
39
211
10
107.596683
20
102.911782
11
110.001283
21
106.782880
0
LINE
8
annotation
62
1
39
211
10
110.001283
20
106.782880
11
110.001283
21
106.782880
0
LINE
8
annotation
62
1
39
211
10
110.001283
20
106.782880
11
110.004158
21
106.786437
0
LINE
8
annotation
62
1
39
211
10
110.004158
20
106.786437
11
110.006914
21
106.790024
0
LINE
8
annotation
62
1
39
211
10
110.006914
20
106.790024
11
110.009571
21
106.793672
0
LINE
8
annotation
62
1
39
211
10
110.009571
20
106.793672
11
110.012146
21
106.797411
0
LINE
8
annotation
62
1
39
211
10
110.012146
20
106.797411
11
110.014658
21
106.801270
0
LINE
8
annotation
62
1
39
211
10
110.014658
20
106.801270
11
110.017124
21
106.805281
0
LINE
8
annotation
62
1
39
211
10
110.017124
20
106.805281
11
110.019563
21
106.809473
0
LINE
8
annotation
62
1
39
211
10
110.019563
20
106.809473
11
110.021993
21
106.813877
0
LINE
8
annotation
62
1
39
211
10
110.021993
20
106.813877
11
110.024432
21
106.818523
0
LINE
8
annotation
62
1
39
211
10
110.024432
20
106.818523
11
110.024432
21
106.818523
0
LINE
8
annotation
62
1
39
211
10
110.024432
20
106.818523
11
110.123718
21
107.031697
0
LINE
8
annotation
62
1
39
211
10
110.123718
20
107.031697
11
110.181719
21
107.252670
0
LINE
8
annotation
62
1
39
211
10
110.181719
20
107.252670
11
110.199856
21
107.476451
0
LINE
8
annotation
62
1
39
211
10
110.199856
20
107.476451
11
110.179552
21
107.698045
0
LINE
8
annotation
62
1
39
211
10
110.179552
20
107.698045
11
110.122228
21
107.912459
0
LINE
8
annotation
62
1
39
211
10
110.122228
20
107.912459
11
110.029305
21
108.114700
0
LINE
8
annotation
62
1
39
211
10
110.029305
20
108.114700
11
109.902204
21
108.299775
0
LINE
8
annotation
62
1
39
211
10
109.902204
20
108.299775
11
109.742347
21
108.462692
0
LINE
8
annotation
62
1
39
211
10
109.742347
20
108.462692
11
109.551155
21
108.598456
0
LINE
8
annotation
62
1
39
211
10
109.551155
20
108.598456
11
109.551155
21
108.598456
0
LINE
8
annotation
62
1
39
211
10
109.551155
20
108.598456
11
109.337388
21
108.696331
0
LINE
8
annotation
62
1
39
211
10
109.337388
20
108.696331
11
109.116076
21
108.753438
0
LINE
8
annotation
62
1
39
211
10
109.116076
20
108.753438
11
108.892166
21
108.771063
0
LINE
8
annotation
62
1
39
211
10
108.892166
20
108.771063
11
108.670605
21
108.750491
0
LINE
8
annotation
62
1
39
211
10
108.670605
20
108.750491
11
108.456342
21
108.693008
0
LINE
8
annotation
62
1
39
211
10
108.456342
20
108.693008
11
108.254325
21
108.599899
0
LINE
8
annotation
62
1
39
211
10
108.254325
20
108.599899
11
108.069500
21
108.472449
0
LINE
8
annotation
62
1
39
211
10
108.069500
20
108.472449
11
107.906817
21
108.311943
0
LINE
8
annotation
62
1
39
211
10
107.906817
20
108.311943
11
107.771222
21
108.119667
0
LINE
8
annotation
62
1
39
211
10
107.771222
20
108.119667
11
107.600357
21
107.791901
0
LINE
8
boundary
62
5
39
2
10
67.166993
20
178.070172
11
67.166993
21
176.923215
0
LINE
8
boundary
62
5
39
2
10
67.166993
20
176.923215
11
67.166993
21
176.162930
0
LINE
8
boundary
62
5
39
2
10
67.166993
20
176.162930
11
67.166993
21
175.472174
0
LINE
8
boundary
62
5
39
2
10
67.166993
20
175.472174
11
67.264659
21
174.711083
0
LINE
8
boundary
62
5
39
2
10
67.264659
20
174.711083
11
67.550997
21
174.019797
0
LINE
8
boundary
62
5
39
2
10
67.550997
20
174.019797
11
68.006492
21
173.426193
0
LINE
8
boundary
62
5
39
2
10
68.006492
20
173.426193
11
68.600106
21
172.970691
0
LINE
8
boundary
62
5
39
2
10
68.600106
20
172.970691
11
69.291385
21
172.684359
0
LINE
8
boundary
62
5
39
2
10
69.291385
20
172.684359
11
69.909989
21
172.602910
0
LINE
8
boundary
62
5
39
2
10
69.909989
20
172.602910
11
71.505017
21
172.586685
0
LINE
8
boundary
62
5
39
2
10
71.505017
20
172.586685
11
121.625261
21
172.586685
0
LINE
8
boundary
62
5
39
2
10
121.625261
20
172.586685
11
122.367094
21
172.684359
0
LINE
8
boundary
62
5
39
2
10
122.367094
20
172.684359
11
123.058373
21
172.970691
0
LINE
8
boundary
62
5
39
2
10
123.058373
20
172.970691
11
123.651987
21
173.426193
0
LINE
8
boundary
62
5
39
2
10
123.651987
20
173.426193
11
124.107483
21
174.019797
0
LINE
8
boundary
62
5
39
2
10
124.107483
20
174.019797
11
95.956240
21
174.201920
0
LINE
8
boundary
62
5
39
2
10
95.956240
20
174.201920
11
95.956240
21
176.947920
0
LINE
8
boundary
62
5
39
2
10
95.956240
20
176.947920
11
124.481186
21
176.947920
0
LINE
8
boundary
62
5
39
2
10
124.481186
20
176.947920
11
124.491486
21
178.070172
0
LINE
8
boundary
62
5
39
2
10
124.491486
20
178.070172
11
124.393820
21
179.306076
0
LINE
8
boundary
62
5
39
2
10
124.393820
20
179.306076
11
124.228963
21
180.239689
0
LINE
8
boundary
62
5
39
2
10
124.228963
20
180.239689
11
124.158782
21
180.891834
0
LINE
8
boundary
62
5
39
2
10
124.158782
20
180.891834
11
124.115071
21
181.787489
0
LINE
8
boundary
62
5
39
2
10
124.115071
20
181.787489
11
124.114239
21
195.879994
0
LINE
8
boundary
62
5
39
2
10
124.114239
20
195.879994
11
124.114239
21
208.667530
0
LINE
8
boundary
62
5
39
2
10
124.114239
20
208.667530
11
95.956239
21
208.817530
0
LINE
8
boundary
62
5
39
2
10
95.956239
20
208.817530
11
95.956239
21
211.563530
0
LINE
8
boundary
62
5
39
2
10
95.956239
20
211.563530
11
124.103938
21
211.563530
0
LINE
8
boundary
62
5
39
2
10
124.103938
20
211.563530
11
124.114239
21
224.019065
0
LINE
8
boundary
62
5
39
2
10
124.114239
20
224.019065
11
124.114239
21
238.088600
0
LINE
8
boundary
62
5
39
2
10
124.114239
20
238.088600
11
124.222439
21
238.830431
0
LINE
8
boundary
62
5
39
2
10
124.222439
20
238.830431
11
124.458901
21
239.371245
0
LINE
8
boundary
62
5
39
2
10
124.458901
20
239.371245
11
124.491486
21
240.616899
0
LINE
8
boundary
62
5
39
2
10
124.491486
20
240.616899
11
124.491486
21
242.046203
0
LINE
8
boundary
62
5
39
2
10
124.491486
20
242.046203
11
95.956240
21
242.196203
0
LINE
8
boundary
62
5
39
2
10
95.956240
20
242.196203
11
95.956240
21
244.942203
0
LINE
8
boundary
62
5
39
2
10
95.956240
20
244.942203
11
124.428697
21
244.942203
0
LINE
8
boundary
62
5
39
2
10
124.428697
20
244.942203
11
124.393820
21
245.696797
0
LINE
8
boundary
62
5
39
2
10
124.393820
20
245.696797
11
124.228963
21
246.630410
0
LINE
8
boundary
62
5
39
2
10
124.228963
20
246.630410
11
124.158782
21
247.282560
0
LINE
8
boundary
62
5
39
2
10
124.158782
20
247.282560
11
124.115071
21
248.178214
0
LINE
8
boundary
62
5
39
2
10
124.115071
20
248.178214
11
124.102292
21
257.514834
0
LINE
8
boundary
62
5
39
2
10
124.102292
20
257.514834
11
110.844916
21
257.528067
0
LINE
8
boundary
62
5
39
2
10
110.844916
20
257.528067
11
110.160363
21
257.526780
0
LINE
8
boundary
62
5
39
2
10
110.160363
20
257.526780
11
95.829240
21
257.526780
0
LINE
8
boundary
62
5
39
2
10
95.829240
20
257.526780
11
81.498116
21
257.526780
0
LINE
8
boundary
62
5
39
2
10
81.498116
20
257.526780
11
80.813563
21
257.528067
0
LINE
8
boundary
62
5
39
2
10
80.813563
20
257.528067
11
67.556187
21
257.514833
0
LINE
8
boundary
62
5
39
2
10
67.556187
20
257.514833
11
67.542953
21
248.661237
0
LINE
8
boundary
62
5
39
2
10
67.542953
20
248.661237
11
67.520104
21
247.535155
0
LINE
8
boundary
62
5
39
2
10
67.520104
20
247.535155
11
67.460784
21
246.920965
0
LINE
8
boundary
62
5
39
2
10
67.460784
20
246.920965
11
67.375482
21
246.322915
0
LINE
8
boundary
62
5
39
2
10
67.375482
20
246.322915
11
67.267698
21
245.709539
0
LINE
8
boundary
62
5
39
2
10
67.267698
20
245.709539
11
67.191627
21
244.719426
0
LINE
8
boundary
62
5
39
2
10
67.191627
20
244.719426
11
67.166993
21
240.616899
0
LINE
8
boundary
62
5
39
2
10
67.166993
20
240.616899
11
67.166993
21
239.395206
0
LINE
8
boundary
62
5
39
2
10
67.166993
20
239.395206
11
67.420522
21
238.873484
0
LINE
8
boundary
62
5
39
2
10
67.420522
20
238.873484
11
67.539216
21
238.117450
0
LINE
8
boundary
62
5
39
2
10
67.539216
20
238.117450
11
67.544240
21
224.019065
0
LINE
8
boundary
62
5
39
2
10
67.544240
20
224.019065
11
67.544240
21
209.949526
0
LINE
8
boundary
62
5
39
2
10
67.544240
20
209.949526
11
67.544240
21
195.879994
0
LINE
8
boundary
62
5
39
2
10
67.544240
20
195.879994
11
67.544240
21
181.810456
0
LINE
8
boundary
62
5
39
2
10
67.544240
20
181.810456
11
67.520104
21
181.144428
0
LINE
8
boundary
62
5
39
2
10
67.520104
20
181.144428
11
67.460784
21
180.530244
0
LINE
8
boundary
62
5
39
2
10
67.460784
20
180.530244
11
67.375483
21
179.932192
0
LINE
8
boundary
62
5
39
2
10
67.375483
20
179.932192
11
67.267697
21
179.318818
0
LINE
8
boundary
62
5
39
2
10
67.267697
20
179.318818
11
67.191627
21
178.328704
0
LINE
8
boundary
62
5
39
2
10
67.191627
20
178.328704
11
67.166993
21
178.070172
0
LINE
8
annotation
62
1
39
211
10
90.643085
20
173.298169
11
90.643085
21
177.851671
0
LINE
8
annotation
62
1
39
211
10
90.643085
20
177.851671
11
89.630784
21
176.839083
0
LINE
8
annotation
62
1
39
211
10
90.894535
20
207.790491
11
88.762740
21
207.790491
0
LINE
8
annotation
62
1
39
211
10
88.762740
20
207.790491
11
90.732588
21
210.961694
0
LINE
8
annotation
62
1
39
211
10
90.732588
20
210.961694
11
90.732588
21
210.961694
0
LINE
8
annotation
62
1
39
211
10
90.732588
20
210.961694
11
90.734943
21
210.964608
0
LINE
8
annotation
62
1
39
211
10
90.734943
20
210.964608
11
90.737201
21
210.967546
0
LINE
8
annotation
62
1
39
211
10
90.737201
20
210.967546
11
90.739378
21
210.970535
0
LINE
8
annotation
62
1
39
211
10
90.739378
20
210.970535
11
90.741487
21
210.973597
0
LINE
8
annotation
62
1
39
211
10
90.741487
20
210.973597
11
90.743545
21
210.976759
0
LINE
8
annotation
62
1
39
211
10
90.743545
20
210.976759
11
90.745565
21
210.980044
0
LINE
8
annotation
62
1
39
211
10
90.745565
20
210.980044
11
90.747564
21
210.983479
0
LINE
8
annotation
62
1
39
211
10
90.747564
20
210.983479
11
90.749554
21
210.987086
0
LINE
8
annotation
62
1
39
211
10
90.749554
20
210.987086
11
90.751552
21
210.990892
0
LINE
8
annotation
62
1
39
211
10
90.751552
20
210.990892
11
90.751552
21
210.990892
0
LINE
8
annotation
62
1
39
211
10
90.751552
20
210.990892
11
90.832887
21
211.165524
0
LINE
8
annotation
62
1
39
211
10
90.832887
20
211.165524
11
90.880401
21
211.346546
0
LINE
8
annotation
62
1
39
211
10
90.880401
20
211.346546
11
90.895260
21
211.529867
0
LINE
8
annotation
62
1
39
211
10
90.895260
20
211.529867
11
90.878626
21
211.711396
0
LINE
8
annotation
62
1
39
211
10
90.878626
20
211.711396
11
90.831666
21
211.887044
0
LINE
8
annotation
62
1
39
211
10
90.831666
20
211.887044
11
90.755544
21
212.052720
0
LINE
8
annotation
62
1
39
211
10
90.755544
20
212.052720
11
90.651423
21
212.204334
0
LINE
8
annotation
62
1
39
211
10
90.651423
20
212.204334
11
90.520468
21
212.337795
0
LINE
8
annotation
62
1
39
211
10
90.520468
20
212.337795
11
90.363844
21
212.449013
0
LINE
8
annotation
62
1
39
211
10
90.363844
20
212.449013
11
90.363844
21
212.449013
0
LINE
8
annotation
62
1
39
211
10
90.363844
20
212.449013
11
90.188726
21
212.529192
0
LINE
8
annotation
62
1
39
211
10
90.188726
20
212.529192
11
90.007427
21
212.575974
0
LINE
8
annotation
62
1
39
211
10
90.007427
20
212.575974
11
89.824000
21
212.590413
0
LINE
8
annotation
62
1
39
211
10
89.824000
20
212.590413
11
89.642497
21
212.573560
0
LINE
8
annotation
62
1
39
211
10
89.642497
20
212.573560
11
89.466973
21
212.526470
0
LINE
8
annotation
62
1
39
211
10
89.466973
20
212.526470
11
89.301481
21
212.450195
0
LINE
8
annotation
62
1
39
211
10
89.301481
20
212.450195
11
89.150072
21
212.345788
0
LINE
8
annotation
62
1
39
211
10
89.150072
20
212.345788
11
89.016802
21
212.214302
0
LINE
8
annotation
62
1
39
211
10
89.016802
20
212.214302
11
88.905723
21
212.056790
0
LINE
8
annotation
62
1
39
211
10
88.905723
20
212.056790
11
88.765750
21
211.788283
0
LINE
8
annotation
62
1
39
211
10
88.762740
20
241.169354
11
89.828638
21
241.169354
0
LINE
8
annotation
62
1
39
211
10
89.828638
20
241.169354
11
89.828638
21
241.169354
0
LINE
8
annotation
62
1
39
211
10
89.828638
20
241.169354
11
90.020342
21
241.186551
0
LINE
8
annotation
62
1
39
211
10
90.020342
20
241.186551
11
90.200729
21
241.236114
0
LINE
8
annotation
62
1
39
211
10
90.200729
20
241.236114
11
90.366798
21
241.315001
0
LINE
8
annotation
62
1
39
211
10
90.366798
20
241.315001
11
90.515550
21
241.420169
0
LINE
8
annotation
62
1
39
211
10
90.515550
20
241.420169
11
90.643984
21
241.548576
0
LINE
8
annotation
62
1
39
211
10
90.643984
20
241.548576
11
90.749100
21
241.697180
0
LINE
8
annotation
62
1
39
211
10
90.749100
20
241.697180
11
90.827897
21
241.862938
0
LINE
8
annotation
62
1
39
211
10
90.827897
20
241.862938
11
90.877375
21
242.042807
0
LINE
8
annotation
62
1
39
211
10
90.877375
20
242.042807
11
90.894535
21
242.233746
0
LINE
8
annotation
62
1
39
211
10
90.894535
20
242.233746
11
90.894535
21
242.767447
0
LINE
8
annotation
62
1
39
211
10
90.894535
20
242.767447
11
90.894535
21
242.767447
0
LINE
8
annotation
62
1
39
211
10
90.894535
20
242.767447
11
90.877375
21
242.958307
0
LINE
8
annotation
62
1
39
211
10
90.877375
20
242.958307
11
90.827897
21
243.138135
0
LINE
8
annotation
62
1
39
211
10
90.827897
20
243.138135
11
90.749100
21
243.303880
0
LINE
8
annotation
62
1
39
211
10
90.749100
20
243.303880
11
90.643984
21
243.452494
0
LINE
8
annotation
62
1
39
211
10
90.643984
20
243.452494
11
90.515550
21
243.580925
0
LINE
8
annotation
62
1
39
211
10
90.515550
20
243.580925
11
90.366798
21
243.686126
0
LINE
8
annotation
62
1
39
211
10
90.366798
20
243.686126
11
90.200729
21
243.765045
0
LINE
8
annotation
62
1
39
211
10
90.200729
20
243.765045
11
90.020342
21
243.814633
0
LINE
8
annotation
62
1
39
211
10
90.020342
20
243.814633
11
89.828638
21
243.831840
0
LINE
8
annotation
62
1
39
211
10
89.828638
20
243.831840
11
89.294936
21
243.831840
0
LINE
8
annotation
62
1
39
211
10
89.294936
20
243.831840
11
89.828638
21
243.831840
0
LINE
8
annotation
62
1
39
211
10
89.828638
20
243.831840
11
89.828638
21
243.831840
0
LINE
8
annotation
62
1
39
211
10
89.828638
20
243.831840
11
90.020342
21
243.849051
0
LINE
8
annotation
62
1
39
211
10
90.020342
20
243.849051
11
90.200729
21
243.898668
0
LINE
8
annotation
62
1
39
211
10
90.200729
20
243.898668
11
90.366798
21
243.977665
0
LINE
8
annotation
62
1
39
211
10
90.366798
20
243.977665
11
90.515550
21
244.083018
0
LINE
8
annotation
62
1
39
211
10
90.515550
20
244.083018
11
90.643984
21
244.211702
0
LINE
8
annotation
62
1
39
211
10
90.643984
20
244.211702
11
90.749100
21
244.360691
0
LINE
8
annotation
62
1
39
211
10
90.749100
20
244.360691
11
90.827897
21
244.526961
0
LINE
8
annotation
62
1
39
211
10
90.827897
20
244.526961
11
90.877375
21
244.707486
0
LINE
8
annotation
62
1
39
211
10
90.877375
20
244.707486
11
90.894535
21
244.899242
0
LINE
8
annotation
62
1
39
211
10
90.894535
20
244.899242
11
90.894535
21
244.899242
0
LINE
8
annotation
62
1
39
211
10
90.894535
20
244.899242
11
90.877375
21
245.090102
0
LINE
8
annotation
62
1
39
211
10
90.877375
20
245.090102
11
90.827897
21
245.269930
0
LINE
8
annotation
62
1
39
211
10
90.827897
20
245.269930
11
90.749100
21
245.435675
0
LINE
8
annotation
62
1
39
211
10
90.749100
20
245.435675
11
90.643984
21
245.584288
0
LINE
8
annotation
62
1
39
211
10
90.643984
20
245.584288
11
90.515550
21
245.712720
0
LINE
8
annotation
62
1
39
211
10
90.515550
20
245.712720
11
90.366798
21
245.817921
0
LINE
8
annotation
62
1
39
211
10
90.366798
20
245.817921
11
90.200729
21
245.896840
0
LINE
8
annotation
62
1
39
211
10
90.200729
20
245.896840
11
90.020342
21
245.946428
0
LINE
8
annotation
62
1
39
211
10
90.020342
20
245.946428
11
89.828638
21
245.963635
0
LINE
8
annotation
62
1
39
211
10
89.828638
20
245.963635
11
88.762740
21
245.963635
0
LINE
8
annotation
62
1
39
211
10
89.785584
20
187.501760
11
81.295284
21
187.501760
0
LINE
8
annotation
62
1
39
211
10
81.295284
20
187.501760
11
89.785584
21
202.792738
0
LINE
8
annotation
62
1
39
211
10
89.785584
20
202.792738
11
81.295284
21
202.792738
0
LINE
8
annotation
62
1
39
211
10
103.881984
20
195.147249
11
95.521139
21
195.147249
0
LINE
8
annotation
62
1
39
211
10
113.014522
20
187.501760
11
113.014522
21
202.792738
0
LINE
8
annotation
62
1
39
211
10
113.014522
20
202.792738
11
109.615142
21
199.392398
0
LINE
8
boundary
62
5
39
2
10
95.696992
20
260.703067
11
123.169963
21
260.703067
0
LINE
8
boundary
62
5
39
2
10
123.169963
20
260.703067
11
124.076660
21
260.703067
0
LINE
8
boundary
62
5
39
2
10
124.076660
20
260.703067
11
124.491486
21
263.584827
0
LINE
8
boundary
62
5
39
2
10
124.491486
20
263.584827
11
124.491486
21
264.168456
0
LINE
8
boundary
62
5
39
2
10
124.491486
20
264.168456
11
124.491486
21
267.707839
0
LINE
8
boundary
62
5
39
2
10
124.491486
20
267.707839
11
77.251265
21
267.707839
0
LINE
8
boundary
62
5
39
2
10
77.251265
20
267.707839
11
67.166993
21
267.707839
0
LINE
8
boundary
62
5
39
2
10
67.166993
20
267.707839
11
67.166993
21
264.168456
0
LINE
8
boundary
62
5
39
2
10
67.166993
20
264.168456
11
67.177293
21
263.525490
0
LINE
8
boundary
62
5
39
2
10
67.177293
20
263.525490
11
95.702240
21
263.525490
0
LINE
8
boundary
62
5
39
2
10
95.702240
20
263.525490
11
95.702239
21
260.779490
0
LINE
8
boundary
62
5
39
2
10
95.702239
20
260.779490
11
95.696992
21
260.703067
0
LINE
8
annotation
62
1
39
211
10
99.202942
20
261.539178
11
97.976594
21
261.539178
0
LINE
8
annotation
62
1
39
211
10
97.976594
20
261.539178
11
98.466358
21
263.256813
0
LINE
8
annotation
62
1
39
211
10
98.835342
20
261.048168
11
98.835342
21
262.029080
0
LINE
8
annotation
62
1
39
211
10
106.360867
20
266.133247
11
105.672560
21
265.137672
0
LINE
8
annotation
62
1
39
211
10
105.672560
20
265.137672
11
104.984122
21
266.133247
0
LINE
8
annotation
62
1
39
211
10
105.672560
20
265.217790
11
105.672560
21
264.069229
0
LINE
8
annotation
62
1
39
211
10
108.263583
20
265.101238
11
107.135084
21
265.101238
0
LINE
8
annotation
62
1
39
211
10
109.954125
20
264.069277
11
109.037503
21
264.069277
0
LINE
8
annotation
62
1
39
211
10
109.037503
20
264.069277
11
109.884492
21
265.432820
0
LINE
8
annotation
62
1
39
211
10
109.884492
20
265.432820
11
109.884492
21
265.432820
0
LINE
8
annotation
62
1
39
211
10
109.884492
20
265.432820
11
109.885504
21
265.434073
0
LINE
8
annotation
62
1
39
211
10
109.885504
20
265.434073
11
109.886475
21
265.435337
0
LINE
8
annotation
62
1
39
211
10
109.886475
20
265.435337
11
109.887411
21
265.436622
0
LINE
8
annotation
62
1
39
211
10
109.887411
20
265.436622
11
109.888318
21
265.437939
0
LINE
8
annotation
62
1
39
211
10
109.888318
20
265.437939
11
109.889203
21
265.439298
0
LINE
8
annotation
62
1
39
211
10
109.889203
20
265.439298
11
109.890071
21
265.440711
0
LINE
8
annotation
62
1
39
211
10
109.890071
20
265.440711
11
109.890931
21
265.442187
0
LINE
8
annotation
62
1
39
211
10
109.890931
20
265.442187
11
109.891786
21
265.443739
0
LINE
8
annotation
62
1
39
211
10
109.891786
20
265.443739
11
109.892646
21
265.445375
0
LINE
8
annotation
62
1
39
211
10
109.892646
20
265.445375
11
109.892646
21
265.445375
0
LINE
8
annotation
62
1
39
211
10
109.892646
20
265.445375
11
109.927618
21
265.520463
0
LINE
8
annotation
62
1
39
211
10
109.927618
20
265.520463
11
109.948048
21
265.598298
0
LINE
8
annotation
62
1
39
211
10
109.948048
20
265.598298
11
109.954436
21
265.677122
0
LINE
8
annotation
62
1
39
211
10
109.954436
20
265.677122
11
109.947285
21
265.755175
0
LINE
8
annotation
62
1
39
211
10
109.947285
20
265.755175
11
109.927093
21
265.830700
0
LINE
8
annotation
62
1
39
211
10
109.927093
20
265.830700
11
109.894362
21
265.901936
0
LINE
8
annotation
62
1
39
211
10
109.894362
20
265.901936
11
109.849592
21
265.967127
0
LINE
8
annotation
62
1
39
211
10
109.849592
20
265.967127
11
109.793285
21
266.024512
0
LINE
8
annotation
62
1
39
211
10
109.793285
20
266.024512
11
109.725940
21
266.072333
0
LINE
8
annotation
62
1
39
211
10
109.725940
20
266.072333
11
109.725940
21
266.072333
0
LINE
8
annotation
62
1
39
211
10
109.725940
20
266.072333
11
109.650643
21
266.106808
0
LINE
8
annotation
62
1
39
211
10
109.650643
20
266.106808
11
109.572689
21
266.126923
0
LINE
8
annotation
62
1
39
211
10
109.572689
20
266.126923
11
109.493820
21
266.133132
0
LINE
8
annotation
62
1
39
211
10
109.493820
20
266.133132
11
109.415778
21
266.125886
0
LINE
8
annotation
62
1
39
211
10
109.415778
20
266.125886
11
109.340307
21
266.105638
0
LINE
8
annotation
62
1
39
211
10
109.340307
20
266.105638
11
109.269149
21
266.072841
0
LINE
8
annotation
62
1
39
211
10
109.269149
20
266.072841
11
109.204047
21
266.027949
0
LINE
8
annotation
62
1
39
211
10
109.204047
20
266.027949
11
109.146743
21
265.971413
0
LINE
8
annotation
62
1
39
211
10
109.146743
20
265.971413
11
109.098982
21
265.903686
0
LINE
8
annotation
62
1
39
211
10
109.098982
20
265.903686
11
109.038797
21
265.788235
0
LINE
8
annotation
62
1
39
211
10
111.856931
20
265.101238
11
110.728433
21
265.101238
0
LINE
8
annotation
62
1
39
211
10
112.630695
20
264.069359
11
113.089006
21
264.069359
0
LINE
8
annotation
62
1
39
211
10
113.089006
20
264.069359
11
113.089006
21
264.069359
0
LINE
8
annotation
62
1
39
211
10
113.089006
20
264.069359
11
113.171435
21
264.076753
0
LINE
8
annotation
62
1
39
211
10
113.171435
20
264.076753
11
113.248997
21
264.098064
0
LINE
8
annotation
62
1
39
211
10
113.248997
20
264.098064
11
113.320403
21
264.131983
0
LINE
8
annotation
62
1
39
211
10
113.320403
20
264.131983
11
113.384363
21
264.177203
0
LINE
8
annotation
62
1
39
211
10
113.384363
20
264.177203
11
113.439586
21
264.232415
0
LINE
8
annotation
62
1
39
211
10
113.439586
20
264.232415
11
113.484784
21
264.296311
0
LINE
8
annotation
62
1
39
211
10
113.484784
20
264.296311
11
113.518665
21
264.367583
0
LINE
8
annotation
62
1
39
211
10
113.518665
20
264.367583
11
113.539939
21
264.444923
0
LINE
8
annotation
62
1
39
211
10
113.539939
20
264.444923
11
113.547317
21
264.527023
0
LINE
8
annotation
62
1
39
211
10
113.547317
20
264.527023
11
113.547317
21
264.756502
0
LINE
8
annotation
62
1
39
211
10
113.547317
20
264.756502
11
113.547317
21
264.756502
0
LINE
8
annotation
62
1
39
211
10
113.547317
20
264.756502
11
113.539939
21
264.838567
0
LINE
8
annotation
62
1
39
211
10
113.539939
20
264.838567
11
113.518665
21
264.915889
0
LINE
8
annotation
62
1
39
211
10
113.518665
20
264.915889
11
113.484784
21
264.987155
0
LINE
8
annotation
62
1
39
211
10
113.484784
20
264.987155
11
113.439586
21
265.051056
0
LINE
8
annotation
62
1
39
211
10
113.439586
20
265.051056
11
113.384363
21
265.106278
0
LINE
8
annotation
62
1
39
211
10
113.384363
20
265.106278
11
113.320403
21
265.151512
0
LINE
8
annotation
62
1
39
211
10
113.320403
20
265.151512
11
113.248997
21
265.185445
0
LINE
8
annotation
62
1
39
211
10
113.248997
20
265.185445
11
113.171435
21
265.206767
0
LINE
8
annotation
62
1
39
211
10
113.171435
20
265.206767
11
113.089006
21
265.214165
0
LINE
8
annotation
62
1
39
211
10
113.089006
20
265.214165
11
112.859527
21
265.214165
0
LINE
8
annotation
62
1
39
211
10
112.859527
20
265.214165
11
113.089006
21
265.214165
0
LINE
8
annotation
62
1
39
211
10
113.089006
20
265.214165
11
113.089006
21
265.214165
0
LINE
8
annotation
62
1
39
211
10
113.089006
20
265.214165
11
113.171435
21
265.221566
0
LINE
8
annotation
62
1
39
211
10
113.171435
20
265.221566
11
113.248997
21
265.242900
0
LINE
8
annotation
62
1
39
211
10
113.248997
20
265.242900
11
113.320403
21
265.276867
0
LINE
8
annotation
62
1
39
211
10
113.320403
20
265.276867
11
113.384363
21
265.322166
0
LINE
8
annotation
62
1
39
211
10
113.384363
20
265.322166
11
113.439586
21
265.377497
0
LINE
8
annotation
62
1
39
211
10
113.439586
20
265.377497
11
113.484784
21
265.441559
0
LINE
8
annotation
62
1
39
211
10
113.484784
20
265.441559
11
113.518665
21
265.513051
0
LINE
8
annotation
62
1
39
211
10
113.518665
20
265.513051
11
113.539939
21
265.590673
0
LINE
8
annotation
62
1
39
211
10
113.539939
20
265.590673
11
113.547317
21
265.673124
0
LINE
8
annotation
62
1
39
211
10
113.547317
20
265.673124
11
113.547317
21
265.673124
0
LINE
8
annotation
62
1
39
211
10
113.547317
20
265.673124
11
113.539939
21
265.755189
0
LINE
8
annotation
62
1
39
211
10
113.539939
20
265.755189
11
113.518665
21
265.832511
0
LINE
8
annotation
62
1
39
211
10
113.518665
20
265.832511
11
113.484784
21
265.903777
0
LINE
8
annotation
62
1
39
211
10
113.484784
20
265.903777
11
113.439586
21
265.967678
0
LINE
8
annotation
62
1
39
211
10
113.439586
20
265.967678
11
113.384363
21
266.022900
0
LINE
8
annotation
62
1
39
211
10
113.384363
20
266.022900
11
113.320403
21
266.068134
0
LINE
8
annotation
62
1
39
211
10
113.320403
20
266.068134
11
113.248997
21
266.102067
0
LINE
8
annotation
62
1
39
211
10
113.248997
20
266.102067
11
113.171435
21
266.123389
0
LINE
8
annotation
62
1
39
211
10
113.171435
20
266.123389
11
113.089006
21
266.130788
0
LINE
8
annotation
62
1
39
211
10
113.089006
20
266.130788
11
112.630695
21
266.130788
0
LINE
8
boundary
62
5
39
2
10
67.166993
20
273.749064
11
67.239433
21
273.198843
0
LINE
8
boundary
62
5
39
2
10
67.239433
20
273.198843
11
67.550997
21
272.315952
0
LINE
8
boundary
62
5
39
2
10
67.550997
20
272.315952
11
68.006492
21
271.722347
0
LINE
8
boundary
62
5
39
2
10
68.006492
20
271.722347
11
68.600106
21
271.266846
0
LINE
8
boundary
62
5
39
2
10
68.600106
20
271.266846
11
69.291385
21
270.980514
0
LINE
8
boundary
62
5
39
2
10
69.291385
20
270.980514
11
70.033219
21
270.882839
0
LINE
8
boundary
62
5
39
2
10
70.033219
20
270.882839
11
89.748184
21
270.882839
0
LINE
8
boundary
62
5
39
2
10
89.748184
20
270.882839
11
121.625261
21
270.882839
0
LINE
8
boundary
62
5
39
2
10
121.625261
20
270.882839
11
122.175487
21
270.955285
0
LINE
8
boundary
62
5
39
2
10
122.175487
20
270.955285
11
123.058374
21
271.266846
0
LINE
8
boundary
62
5
39
2
10
123.058374
20
271.266846
11
123.651987
21
271.722347
0
LINE
8
boundary
62
5
39
2
10
123.651987
20
271.722347
11
124.107483
21
272.315952
0
LINE
8
boundary
62
5
39
2
10
124.107483
20
272.315952
11
95.956239
21
272.498074
0
LINE
8
boundary
62
5
39
2
10
95.956239
20
272.498074
11
95.956239
21
275.244074
0
LINE
8
boundary
62
5
39
2
10
95.956239
20
275.244074
11
124.268337
21
275.244074
0
LINE
8
boundary
62
5
39
2
10
124.268337
20
275.244074
11
124.107482
21
275.807278
0
LINE
8
boundary
62
5
39
2
10
124.107482
20
275.807278
11
123.739542
21
276.286791
0
LINE
8
boundary
62
5
39
2
10
123.739542
20
276.286791
11
123.172477
21
276.768831
0
LINE
8
boundary
62
5
39
2
10
123.172477
20
276.768831
11
122.499970
21
277.087688
0
LINE
8
boundary
62
5
39
2
10
122.499970
20
277.087688
11
121.625261
21
277.240391
0
LINE
8
boundary
62
5
39
2
10
121.625261
20
277.240391
11
102.971831
21
277.240391
0
LINE
8
boundary
62
5
39
2
10
102.971831
20
277.240391
11
70.033218
21
277.240391
0
LINE
8
boundary
62
5
39
2
10
70.033218
20
277.240391
11
69.362682
21
277.152115
0
LINE
8
boundary
62
5
39
2
10
69.362682
20
277.152115
11
68.732982
21
276.911425
0
LINE
8
boundary
62
5
39
2
10
68.732982
20
276.911425
11
68.120595
21
276.488449
0
LINE
8
boundary
62
5
39
2
10
68.120595
20
276.488449
11
67.638551
21
275.921382
0
LINE
8
boundary
62
5
39
2
10
67.638551
20
275.921382
11
67.319698
21
275.248875
0
LINE
8
boundary
62
5
39
2
10
67.319698
20
275.248875
11
67.166993
21
274.374166
0
LINE
8
boundary
62
5
39
2
10
67.166993
20
274.374166
11
67.166993
21
273.749064
0
LINE
8
annotation
62
1
39
211
10
90.643085
20
271.594324
11
90.643085
21
276.147825
0
LINE
8
annotation
62
1
39
211
10
90.643085
20
276.147825
11
89.630784
21
275.135238
0
LINE
8
annotation
62
1
39
211
10
79.600899
20
273.925456
11
78.454927
21
273.925456
0
LINE
8
annotation
62
1
39
211
10
78.454927
20
273.925456
11
79.600899
21
275.989344
0
LINE
8
annotation
62
1
39
211
10
79.600899
20
275.989344
11
78.454927
21
275.989344
0
LINE
8
annotation
62
1
39
211
10
81.503550
20
274.957400
11
80.375051
21
274.957400
0
LINE
8
annotation
62
1
39
211
10
83.194092
20
273.925439
11
82.277470
21
273.925439
0
LINE
8
annotation
62
1
39
211
10
82.277470
20
273.925439
11
83.124458
21
275.288982
0
LINE
8
annotation
62
1
39
211
10
83.124458
20
275.288982
11
83.124458
21
275.288982
0
LINE
8
annotation
62
1
39
211
10
83.124458
20
275.288982
11
83.125471
21
275.290235
0
LINE
8
annotation
62
1
39
211
10
83.125471
20
275.290235
11
83.126442
21
275.291499
0
LINE
8
annotation
62
1
39
211
10
83.126442
20
275.291499
11
83.127378
21
275.292784
0
LINE
8
annotation
62
1
39
211
10
83.127378
20
275.292784
11
83.128285
21
275.294100
0
LINE
8
annotation
62
1
39
211
10
83.128285
20
275.294100
11
83.129170
21
275.295460
0
LINE
8
annotation
62
1
39
211
10
83.129170
20
275.295460
11
83.130038
21
275.296873
0
LINE
8
annotation
62
1
39
211
10
83.130038
20
275.296873
11
83.130897
21
275.298349
0
LINE
8
annotation
62
1
39
211
10
83.130897
20
275.298349
11
83.131753
21
275.299900
0
LINE
8
annotation
62
1
39
211
10
83.131753
20
275.299900
11
83.132612
21
275.301537
0
LINE
8
annotation
62
1
39
211
10
83.132612
20
275.301537
11
83.132612
21
275.301537
0
LINE
8
annotation
62
1
39
211
10
83.132612
20
275.301537
11
83.167584
21
275.376625
0
LINE
8
annotation
62
1
39
211
10
83.167584
20
275.376625
11
83.188014
21
275.454460
0
LINE
8
annotation
62
1
39
211
10
83.188014
20
275.454460
11
83.194403
21
275.533283
0
LINE
8
annotation
62
1
39
211
10
83.194403
20
275.533283
11
83.187251
21
275.611337
0
LINE
8
annotation
62
1
39
211
10
83.187251
20
275.611337
11
83.167060
21
275.686861
0
LINE
8
annotation
62
1
39
211
10
83.167060
20
275.686861
11
83.134329
21
275.758098
0
LINE
8
annotation
62
1
39
211
10
83.134329
20
275.758098
11
83.089559
21
275.823289
0
LINE
8
annotation
62
1
39
211
10
83.089559
20
275.823289
11
83.033252
21
275.880674
0
LINE
8
annotation
62
1
39
211
10
83.033252
20
275.880674
11
82.965907
21
275.928495
0
LINE
8
annotation
62
1
39
211
10
82.965907
20
275.928495
11
82.965907
21
275.928495
0
LINE
8
annotation
62
1
39
211
10
82.965907
20
275.928495
11
82.890610
21
275.962970
0
LINE
8
annotation
62
1
39
211
10
82.890610
20
275.962970
11
82.812656
21
275.983085
0
LINE
8
annotation
62
1
39
211
10
82.812656
20
275.983085
11
82.733786
21
275.989293
0
LINE
8
annotation
62
1
39
211
10
82.733786
20
275.989293
11
82.655745
21
275.982047
0
LINE
8
annotation
62
1
39
211
10
82.655745
20
275.982047
11
82.580273
21
275.961800
0
LINE
8
annotation
62
1
39
211
10
82.580273
20
275.961800
11
82.509115
21
275.929003
0
LINE
8
annotation
62
1
39
211
10
82.509115
20
275.929003
11
82.444013
21
275.884110
0
LINE
8
annotation
62
1
39
211
10
82.444013
20
275.884110
11
82.386710
21
275.827574
0
LINE
8
annotation
62
1
39
211
10
82.386710
20
275.827574
11
82.338949
21
275.759848
0
LINE
8
annotation
62
1
39
211
10
82.338949
20
275.759848
11
82.278764
21
275.644396
0
LINE
8
annotation
62
1
39
211
10
85.096898
20
274.957400
11
83.968400
21
274.957400
0
LINE
8
annotation
62
1
39
211
10
86.329556
20
273.925456
11
86.329556
21
275.989344
0
LINE
8
annotation
62
1
39
211
10
86.329556
20
275.989344
11
85.870727
21
275.530386
0
LINE
8
boundary
62
5
39
2
10
67.166993
20
283.906717
11
67.166993
21
283.281616
0
LINE
8
boundary
62
5
39
2
10
67.166993
20
283.281616
11
67.228750
21
282.737130
0
LINE
8
boundary
62
5
39
2
10
67.228750
20
282.737130
11
67.550997
21
281.848504
0
LINE
8
boundary
62
5
39
2
10
67.550997
20
281.848504
11
68.006492
21
281.254899
0
LINE
8
boundary
62
5
39
2
10
68.006492
20
281.254899
11
68.600106
21
280.799397
0
LINE
8
boundary
62
5
39
2
10
68.600106
20
280.799397
11
69.291385
21
280.513065
0
LINE
8
boundary
62
5
39
2
10
69.291385
20
280.513065
11
70.033218
21
280.415391
0
LINE
8
boundary
62
5
39
2
10
70.033218
20
280.415391
11
107.991351
21
280.415391
0
LINE
8
boundary
62
5
39
2
10
107.991351
20
280.415391
11
121.625261
21
280.415391
0
LINE
8
boundary
62
5
39
2
10
121.625261
20
280.415391
11
122.339151
21
280.506550
0
LINE
8
boundary
62
5
39
2
10
122.339151
20
280.506550
11
123.058373
21
280.799397
0
LINE
8
boundary
62
5
39
2
10
123.058373
20
280.799397
11
123.651987
21
281.254899
0
LINE
8
boundary
62
5
39
2
10
123.651987
20
281.254899
11
124.107483
21
281.848503
0
LINE
8
boundary
62
5
39
2
10
124.107483
20
281.848503
11
95.956239
21
282.030626
0
LINE
8
boundary
62
5
39
2
10
95.956239
20
282.030626
11
95.956239
21
284.776626
0
LINE
8
boundary
62
5
39
2
10
95.956239
20
284.776626
11
124.268337
21
284.776626
0
LINE
8
boundary
62
5
39
2
10
124.268337
20
284.776626
11
124.107482
21
285.339830
0
LINE
8
boundary
62
5
39
2
10
124.107482
20
285.339830
11
123.704626
21
285.864846
0
LINE
8
boundary
62
5
39
2
10
123.704626
20
285.864846
11
123.126973
21
286.336298
0
LINE
8
boundary
62
5
39
2
10
123.126973
20
286.336298
11
122.446980
21
286.642189
0
LINE
8
boundary
62
5
39
2
10
122.446980
20
286.642189
11
121.901115
21
286.736626
0
LINE
8
boundary
62
5
39
2
10
121.901115
20
286.736626
11
81.544057
21
286.772942
0
LINE
8
boundary
62
5
39
2
10
81.544057
20
286.772942
11
70.033218
21
286.772942
0
LINE
8
boundary
62
5
39
2
10
70.033218
20
286.772942
11
69.291385
21
286.675280
0
LINE
8
boundary
62
5
39
2
10
69.291385
20
286.675280
11
68.679992
21
286.422027
0
LINE
8
boundary
62
5
39
2
10
68.679992
20
286.422027
11
68.075092
21
285.986085
0
LINE
8
boundary
62
5
39
2
10
68.075092
20
285.986085
11
67.603635
21
285.408430
0
LINE
8
boundary
62
5
39
2
10
67.603635
20
285.408430
11
67.297748
21
284.728437
0
LINE
8
boundary
62
5
39
2
10
67.297748
20
284.728437
11
67.203310
21
284.182571
0
LINE
8
boundary
62
5
39
2
10
67.203310
20
284.182571
11
67.166993
21
283.906717
0
LINE
8
annotation
62
1
39
211
10
90.643085
20
281.126875
11
90.643085
21
285.680377
0
LINE
8
annotation
62
1
39
211
10
90.643085
20
285.680377
11
89.630784
21
284.667789
0
LINE
8
annotation
62
1
39
211
10
79.601055
20
283.458007
11
78.455083
21
283.458007
0
LINE
8
annotation
62
1
39
211
10
78.455083
20
283.458007
11
79.601055
21
285.521895
0
LINE
8
annotation
62
1
39
211
10
79.601055
20
285.521895
11
78.455083
21
285.521895
0
LINE
8
annotation
62
1
39
211
10
81.503706
20
284.489951
11
80.375207
21
284.489951
0
LINE
8
annotation
62
1
39
211
10
82.277470
20
283.458072
11
82.735781
21
283.458072
0
LINE
8
annotation
62
1
39
211
10
82.735781
20
283.458072
11
82.735781
21
283.458072
0
LINE
8
annotation
62
1
39
211
10
82.735781
20
283.458072
11
82.818209
21
283.465466
0
LINE
8
annotation
62
1
39
211
10
82.818209
20
283.465466
11
82.895771
21
283.486777
0
LINE
8
annotation
62
1
39
211
10
82.895771
20
283.486777
11
82.967177
21
283.520697
0
LINE
8
annotation
62
1
39
211
10
82.967177
20
283.520697
11
83.031137
21
283.565917
0
LINE
8
annotation
62
1
39
211
10
83.031137
20
283.565917
11
83.086361
21
283.621129
0
LINE
8
annotation
62
1
39
211
10
83.086361
20
283.621129
11
83.131558
21
283.685025
0
LINE
8
annotation
62
1
39
211
10
83.131558
20
283.685025
11
83.165439
21
283.756297
0
LINE
8
annotation
62
1
39
211
10
83.165439
20
283.756297
11
83.186713
21
283.833637
0
LINE
8
annotation
62
1
39
211
10
83.186713
20
283.833637
11
83.194092
21
283.915736
0
LINE
8
annotation
62
1
39
211
10
83.194092
20
283.915736
11
83.194092
21
284.145215
0
LINE
8
annotation
62
1
39
211
10
83.194092
20
284.145215
11
83.194092
21
284.145215
0
LINE
8
annotation
62
1
39
211
10
83.194092
20
284.145215
11
83.186713
21
284.227280
0
LINE
8
annotation
62
1
39
211
10
83.186713
20
284.227280
11
83.165439
21
284.304602
0
LINE
8
annotation
62
1
39
211
10
83.165439
20
284.304602
11
83.131558
21
284.375869
0
LINE
8
annotation
62
1
39
211
10
83.131558
20
284.375869
11
83.086361
21
284.439769
0
LINE
8
annotation
62
1
39
211
10
83.086361
20
284.439769
11
83.031137
21
284.494992
0
LINE
8
annotation
62
1
39
211
10
83.031137
20
284.494992
11
82.967177
21
284.540225
0
LINE
8
annotation
62
1
39
211
10
82.967177
20
284.540225
11
82.895771
21
284.574159
0
LINE
8
annotation
62
1
39
211
10
82.895771
20
284.574159
11
82.818209
21
284.595480
0
LINE
8
annotation
62
1
39
211
10
82.818209
20
284.595480
11
82.735781
21
284.602879
0
LINE
8
annotation
62
1
39
211
10
82.735781
20
284.602879
11
82.506301
21
284.602879
0
LINE
8
annotation
62
1
39
211
10
82.506301
20
284.602879
11
82.735781
21
284.602879
0
LINE
8
annotation
62
1
39
211
10
82.735781
20
284.602879
11
82.735781
21
284.602879
0
LINE
8
annotation
62
1
39
211
10
82.735781
20
284.602879
11
82.818209
21
284.610279
0
LINE
8
annotation
62
1
39
211
10
82.818209
20
284.610279
11
82.895771
21
284.631613
0
LINE
8
annotation
62
1
39
211
10
82.895771
20
284.631613
11
82.967177
21
284.665580
0
LINE
8
annotation
62
1
39
211
10
82.967177
20
284.665580
11
83.031137
21
284.710880
0
LINE
8
annotation
62
1
39
211
10
83.031137
20
284.710880
11
83.086361
21
284.766211
0
LINE
8
annotation
62
1
39
211
10
83.086361
20
284.766211
11
83.131558
21
284.830273
0
LINE
8
annotation
62
1
39
211
10
83.131558
20
284.830273
11
83.165439
21
284.901765
0
LINE
8
annotation
62
1
39
211
10
83.165439
20
284.901765
11
83.186713
21
284.979387
0
LINE
8
annotation
62
1
39
211
10
83.186713
20
284.979387
11
83.194092
21
285.061837
0
LINE
8
annotation
62
1
39
211
10
83.194092
20
285.061837
11
83.194092
21
285.061837
0
LINE
8
annotation
62
1
39
211
10
83.194092
20
285.061837
11
83.186713
21
285.143902
0
LINE
8
annotation
62
1
39
211
10
83.186713
20
285.143902
11
83.165439
21
285.221224
0
LINE
8
annotation
62
1
39
211
10
83.165439
20
285.221224
11
83.131558
21
285.292491
0
LINE
8
annotation
62
1
39
211
10
83.131558
20
285.292491
11
83.086361
21
285.356391
0
LINE
8
annotation
62
1
39
211
10
83.086361
20
285.356391
11
83.031137
21
285.411614
0
LINE
8
annotation
62
1
39
211
10
83.031137
20
285.411614
11
82.967177
21
285.456847
0
LINE
8
annotation
62
1
39
211
10
82.967177
20
285.456847
11
82.895771
21
285.490781
0
LINE
8
annotation
62
1
39
211
10
82.895771
20
285.490781
11
82.818209
21
285.512102
0
LINE
8
annotation
62
1
39
211
10
82.818209
20
285.512102
11
82.735781
21
285.519501
0
LINE
8
annotation
62
1
39
211
10
82.735781
20
285.519501
11
82.277470
21
285.519501
0
LINE
8
annotation
62
1
39
211
10
85.096742
20
284.489951
11
83.968244
21
284.489951
0
LINE
8
annotation
62
1
39
211
10
86.329400
20
283.458007
11
86.329400
21
285.521895
0
LINE
8
annotation
62
1
39
211
10
86.329400
20
285.521895
11
85.870571
21
285.062937
0
LINE
8
boundary
62
5
39
2
10
127.666486
20
26.901254
11
127.666486
21
17.253000
0
LINE
8
boundary
62
5
39
2
10
127.666486
20
17.253000
11
127.666486
21
16.238342
0
LINE
8
boundary
62
5
39
2
10
127.666486
20
16.238342
11
127.666486
21
12.423656
0
LINE
8
boundary
62
5
39
2
10
127.666486
20
12.423656
11
127.666487
21
11.401933
0
LINE
8
boundary
62
5
39
2
10
127.666487
20
11.401933
11
127.666487
21
10.406498
0
LINE
8
boundary
62
5
39
2
10
127.666487
20
10.406498
11
127.666486
21
9.585017
0
LINE
8
boundary
62
5
39
2
10
127.666486
20
9.585017
11
127.666486
21
8.974368
0
LINE
8
boundary
62
5
39
2
10
127.666486
20
8.974368
11
127.666486
21
8.278774
0
LINE
8
boundary
62
5
39
2
10
127.666486
20
8.278774
11
127.666486
21
7.183144
0
LINE
8
boundary
62
5
39
2
10
127.666486
20
7.183144
11
127.666486
21
6.667500
0
LINE
8
boundary
62
5
39
2
10
127.666486
20
6.667500
11
130.337847
21
6.667500
0
LINE
8
boundary
62
5
39
2
10
130.337847
20
6.667500
11
184.990979
21
6.667500
0
LINE
8
boundary
62
5
39
2
10
184.990979
20
6.667500
11
184.990979
21
7.183144
0
LINE
8
boundary
62
5
39
2
10
184.990979
20
7.183144
11
184.990979
21
8.278774
0
LINE
8
boundary
62
5
39
2
10
184.990979
20
8.278774
11
184.990979
21
8.974368
0
LINE
8
boundary
62
5
39
2
10
184.990979
20
8.974368
11
184.990979
21
9.585017
0
LINE
8
boundary
62
5
39
2
10
184.990979
20
9.585017
11
184.990979
21
10.406498
0
LINE
8
boundary
62
5
39
2
10
184.990979
20
10.406498
11
184.980679
21
11.012349
0
LINE
8
boundary
62
5
39
2
10
184.980679
20
11.012349
11
156.455733
21
11.012349
0
LINE
8
boundary
62
5
39
2
10
156.455733
20
11.012349
11
156.455733
21
13.758349
0
LINE
8
boundary
62
5
39
2
10
156.455733
20
13.758349
11
184.980679
21
13.758349
0
LINE
8
boundary
62
5
39
2
10
184.980679
20
13.758349
11
184.990979
21
16.238341
0
LINE
8
boundary
62
5
39
2
10
184.990979
20
16.238341
11
184.990979
21
17.253001
0
LINE
8
boundary
62
5
39
2
10
184.990979
20
17.253001
11
184.990979
21
26.901254
0
LINE
8
boundary
62
5
39
2
10
184.990979
20
26.901254
11
184.990979
21
29.833277
0
LINE
8
boundary
62
5
39
2
10
184.990979
20
29.833277
11
184.990979
21
44.241023
0
LINE
8
boundary
62
5
39
2
10
184.990979
20
44.241023
11
156.455733
21
44.391023
0
LINE
8
boundary
62
5
39
2
10
156.455733
20
44.391023
11
156.455733
21
47.137023
0
LINE
8
boundary
62
5
39
2
10
156.455733
20
47.137023
11
184.980679
21
47.137023
0
LINE
8
boundary
62
5
39
2
10
184.980679
20
47.137023
11
184.990979
21
121.169920
0
LINE
8
boundary
62
5
39
2
10
184.990979
20
121.169920
11
184.990979
21
157.854812
0
LINE
8
boundary
62
5
39
2
10
184.990979
20
157.854812
11
184.990979
21
159.615547
0
LINE
8
boundary
62
5
39
2
10
184.990979
20
159.615547
11
184.990979
21
160.130794
0
LINE
8
boundary
62
5
39
2
10
184.990979
20
160.130794
11
156.455733
21
160.280794
0
LINE
8
boundary
62
5
39
2
10
156.455733
20
160.280794
11
156.455733
21
163.026794
0
LINE
8
boundary
62
5
39
2
10
156.455733
20
163.026794
11
184.980679
21
163.026794
0
LINE
8
boundary
62
5
39
2
10
184.980679
20
163.026794
11
184.990979
21
166.545459
0
LINE
8
boundary
62
5
39
2
10
184.990979
20
166.545459
11
184.922850
21
167.160617
0
LINE
8
boundary
62
5
39
2
10
184.922850
20
167.160617
11
184.723212
21
167.742868
0
LINE
8
boundary
62
5
39
2
10
184.723212
20
167.742868
11
184.405789
21
168.262310
0
LINE
8
boundary
62
5
39
2
10
184.405789
20
168.262310
11
183.824212
21
168.840767
0
LINE
8
boundary
62
5
39
2
10
183.824212
20
168.840767
11
183.295264
21
169.157183
0
LINE
8
boundary
62
5
39
2
10
183.295264
20
169.157183
11
182.718061
21
169.348653
0
LINE
8
boundary
62
5
39
2
10
182.718061
20
169.348653
11
182.124754
21
169.411685
0
LINE
8
boundary
62
5
39
2
10
182.124754
20
169.411685
11
179.879969
21
169.411685
0
LINE
8
boundary
62
5
39
2
10
179.879969
20
169.411685
11
130.532711
21
169.411685
0
LINE
8
boundary
62
5
39
2
10
130.532711
20
169.411685
11
129.790878
21
169.314016
0
LINE
8
boundary
62
5
39
2
10
129.790878
20
169.314016
11
129.099599
21
169.027684
0
LINE
8
boundary
62
5
39
2
10
129.099599
20
169.027684
11
128.505985
21
168.572189
0
LINE
8
boundary
62
5
39
2
10
128.505985
20
168.572189
11
128.050490
21
167.978572
0
LINE
8
boundary
62
5
39
2
10
128.050490
20
167.978572
11
127.764152
21
167.287293
0
LINE
8
boundary
62
5
39
2
10
127.764152
20
167.287293
11
127.679235
21
166.642292
0
LINE
8
boundary
62
5
39
2
10
127.679235
20
166.642292
11
127.666487
21
165.994407
0
LINE
8
boundary
62
5
39
2
10
127.666487
20
165.994407
11
127.666486
21
164.501660
0
LINE
8
boundary
62
5
39
2
10
127.666486
20
164.501660
11
127.666486
21
163.723559
0
LINE
8
boundary
62
5
39
2
10
127.666486
20
163.723559
11
127.666486
21
162.259448
0
LINE
8
boundary
62
5
39
2
10
127.666486
20
162.259448
11
127.666486
21
160.666374
0
LINE
8
boundary
62
5
39
2
10
127.666486
20
160.666374
11
127.666486
21
98.436456
0
LINE
8
boundary
62
5
39
2
10
127.666486
20
98.436456
11
127.666486
21
36.648657
0
LINE
8
boundary
62
5
39
2
10
127.666486
20
36.648657
11
127.666486
21
35.445007
0
LINE
8
boundary
62
5
39
2
10
127.666486
20
35.445007
11
127.666486
21
33.529687
0
LINE
8
boundary
62
5
39
2
10
127.666486
20
33.529687
11
127.666486
21
26.901254
0
LINE
8
annotation
62
1
39
211
10
151.394028
20
9.985310
11
149.262233
21
9.985310
0
LINE
8
annotation
62
1
39
211
10
149.262233
20
9.985310
11
151.232082
21
13.156513
0
LINE
8
annotation
62
1
39
211
10
151.232082
20
13.156513
11
151.232082
21
13.156513
0
LINE
8
annotation
62
1
39
211
10
151.232082
20
13.156513
11
151.234436
21
13.159427
0
LINE
8
annotation
62
1
39
211
10
151.234436
20
13.159427
11
151.236695
21
13.162366
0
LINE
8
annotation
62
1
39
211
10
151.236695
20
13.162366
11
151.238871
21
13.165354
0
LINE
8
annotation
62
1
39
211
10
151.238871
20
13.165354
11
151.240981
21
13.168417
0
LINE
8
annotation
62
1
39
211
10
151.240981
20
13.168417
11
151.243038
21
13.171578
0
LINE
8
annotation
62
1
39
211
10
151.243038
20
13.171578
11
151.245059
21
13.174864
0
LINE
8
annotation
62
1
39
211
10
151.245059
20
13.174864
11
151.247057
21
13.178298
0
LINE
8
annotation
62
1
39
211
10
151.247057
20
13.178298
11
151.249047
21
13.181906
0
LINE
8
annotation
62
1
39
211
10
151.249047
20
13.181906
11
151.251046
21
13.185712
0
LINE
8
annotation
62
1
39
211
10
151.251046
20
13.185712
11
151.251046
21
13.185712
0
LINE
8
annotation
62
1
39
211
10
151.251046
20
13.185712
11
151.332380
21
13.360344
0
LINE
8
annotation
62
1
39
211
10
151.332380
20
13.360344
11
151.379894
21
13.541366
0
LINE
8
annotation
62
1
39
211
10
151.379894
20
13.541366
11
151.394753
21
13.724686
0
LINE
8
annotation
62
1
39
211
10
151.394753
20
13.724686
11
151.378120
21
13.906216
0
LINE
8
annotation
62
1
39
211
10
151.378120
20
13.906216
11
151.331160
21
14.081864
0
LINE
8
annotation
62
1
39
211
10
151.331160
20
14.081864
11
151.255037
21
14.247540
0
LINE
8
annotation
62
1
39
211
10
151.255037
20
14.247540
11
151.150916
21
14.399154
0
LINE
8
annotation
62
1
39
211
10
151.150916
20
14.399154
11
151.019961
21
14.532615
0
LINE
8
annotation
62
1
39
211
10
151.019961
20
14.532615
11
150.863337
21
14.643833
0
LINE
8
annotation
62
1
39
211
10
150.863337
20
14.643833
11
150.863337
21
14.643833
0
LINE
8
annotation
62
1
39
211
10
150.863337
20
14.643833
11
150.688219
21
14.724012
0
LINE
8
annotation
62
1
39
211
10
150.688219
20
14.724012
11
150.506920
21
14.770794
0
LINE
8
annotation
62
1
39
211
10
150.506920
20
14.770794
11
150.323493
21
14.785232
0
LINE
8
annotation
62
1
39
211
10
150.323493
20
14.785232
11
150.141991
21
14.768380
0
LINE
8
annotation
62
1
39
211
10
150.141991
20
14.768380
11
149.966466
21
14.721290
0
LINE
8
annotation
62
1
39
211
10
149.966466
20
14.721290
11
149.800974
21
14.645015
0
LINE
8
annotation
62
1
39
211
10
149.800974
20
14.645015
11
149.649566
21
14.540608
0
LINE
8
annotation
62
1
39
211
10
149.649566
20
14.540608
11
149.516295
21
14.409121
0
LINE
8
annotation
62
1
39
211
10
149.516295
20
14.409121
11
149.405216
21
14.251609
0
LINE
8
annotation
62
1
39
211
10
149.405216
20
14.251609
11
149.265243
21
13.983103
0
LINE
8
annotation
62
1
39
211
10
149.262233
20
43.364173
11
150.328131
21
43.364173
0
LINE
8
annotation
62
1
39
211
10
150.328131
20
43.364173
11
150.328131
21
43.364173
0
LINE
8
annotation
62
1
39
211
10
150.328131
20
43.364173
11
150.519835
21
43.381371
0
LINE
8
annotation
62
1
39
211
10
150.519835
20
43.381371
11
150.700222
21
43.430934
0
LINE
8
annotation
62
1
39
211
10
150.700222
20
43.430934
11
150.866291
21
43.509821
0
LINE
8
annotation
62
1
39
211
10
150.866291
20
43.509821
11
151.015043
21
43.614989
0
LINE
8
annotation
62
1
39
211
10
151.015043
20
43.614989
11
151.143477
21
43.743396
0
LINE
8
annotation
62
1
39
211
10
151.143477
20
43.743396
11
151.248593
21
43.891999
0
LINE
8
annotation
62
1
39
211
10
151.248593
20
43.891999
11
151.327390
21
44.057757
0
LINE
8
annotation
62
1
39
211
10
151.327390
20
44.057757
11
151.376868
21
44.237627
0
LINE
8
annotation
62
1
39
211
10
151.376868
20
44.237627
11
151.394028
21
44.428566
0
LINE
8
annotation
62
1
39
211
10
151.394028
20
44.428566
11
151.394028
21
44.962267
0
LINE
8
annotation
62
1
39
211
10
151.394028
20
44.962267
11
151.394028
21
44.962267
0
LINE
8
annotation
62
1
39
211
10
151.394028
20
44.962267
11
151.376868
21
45.153127
0
LINE
8
annotation
62
1
39
211
10
151.376868
20
45.153127
11
151.327390
21
45.332954
0
LINE
8
annotation
62
1
39
211
10
151.327390
20
45.332954
11
151.248593
21
45.498700
0
LINE
8
annotation
62
1
39
211
10
151.248593
20
45.498700
11
151.143477
21
45.647313
0
LINE
8
annotation
62
1
39
211
10
151.143477
20
45.647313
11
151.015043
21
45.775745
0
LINE
8
annotation
62
1
39
211
10
151.015043
20
45.775745
11
150.866291
21
45.880945
0
LINE
8
annotation
62
1
39
211
10
150.866291
20
45.880945
11
150.700222
21
45.959864
0
LINE
8
annotation
62
1
39
211
10
150.700222
20
45.959864
11
150.519835
21
46.009452
0
LINE
8
annotation
62
1
39
211
10
150.519835
20
46.009452
11
150.328131
21
46.026659
0
LINE
8
annotation
62
1
39
211
10
150.328131
20
46.026659
11
149.794429
21
46.026659
0
LINE
8
annotation
62
1
39
211
10
149.794429
20
46.026659
11
150.328131
21
46.026659
0
LINE
8
annotation
62
1
39
211
10
150.328131
20
46.026659
11
150.328131
21
46.026659
0
LINE
8
annotation
62
1
39
211
10
150.328131
20
46.026659
11
150.519835
21
46.043871
0
LINE
8
annotation
62
1
39
211
10
150.519835
20
46.043871
11
150.700222
21
46.093487
0
LINE
8
annotation
62
1
39
211
10
150.700222
20
46.093487
11
150.866291
21
46.172485
0
LINE
8
annotation
62
1
39
211
10
150.866291
20
46.172485
11
151.015043
21
46.277838
0
LINE
8
annotation
62
1
39
211
10
151.015043
20
46.277838
11
151.143477
21
46.406522
0
LINE
8
annotation
62
1
39
211
10
151.143477
20
46.406522
11
151.248593
21
46.555511
0
LINE
8
annotation
62
1
39
211
10
151.248593
20
46.555511
11
151.327390
21
46.721781
0
LINE
8
annotation
62
1
39
211
10
151.327390
20
46.721781
11
151.376868
21
46.902306
0
LINE
8
annotation
62
1
39
211
10
151.376868
20
46.902306
11
151.394028
21
47.094062
0
LINE
8
annotation
62
1
39
211
10
151.394028
20
47.094062
11
151.394028
21
47.094062
0
LINE
8
annotation
62
1
39
211
10
151.394028
20
47.094062
11
151.376868
21
47.284922
0
LINE
8
annotation
62
1
39
211
10
151.376868
20
47.284922
11
151.327390
21
47.464749
0
LINE
8
annotation
62
1
39
211
10
151.327390
20
47.464749
11
151.248593
21
47.630495
0
LINE
8
annotation
62
1
39
211
10
151.248593
20
47.630495
11
151.143477
21
47.779108
0
LINE
8
annotation
62
1
39
211
10
151.143477
20
47.779108
11
151.015043
21
47.907540
0
LINE
8
annotation
62
1
39
211
10
151.015043
20
47.907540
11
150.866291
21
48.012740
0
LINE
8
annotation
62
1
39
211
10
150.866291
20
48.012740
11
150.700222
21
48.091659
0
LINE
8
annotation
62
1
39
211
10
150.700222
20
48.091659
11
150.519835
21
48.141247
0
LINE
8
annotation
62
1
39
211
10
150.519835
20
48.141247
11
150.328131
21
48.158454
0
LINE
8
annotation
62
1
39
211
10
150.328131
20
48.158454
11
149.262233
21
48.158454
0
LINE
8
annotation
62
1
39
211
10
151.660728
20
160.320895
11
148.995533
21
160.320895
0
LINE
8
annotation
62
1
39
211
10
148.995533
20
160.320895
11
150.059925
21
164.053794
0
LINE
8
annotation
62
1
39
211
10
150.861832
20
159.253794
11
150.861832
21
161.385588
0
LINE
8
annotation
62
1
39
211
10
145.210059
20
102.911829
11
141.956646
21
102.911829
0
LINE
8
annotation
62
1
39
211
10
141.956646
20
102.911829
11
145.210059
21
108.771206
0
LINE
8
annotation
62
1
39
211
10
145.210059
20
108.771206
11
141.956646
21
108.771206
0
LINE
8
annotation
62
1
39
211
10
150.611683
20
105.841518
11
147.407876
21
105.841518
0
LINE
8
annotation
62
1
39
211
10
155.411130
20
102.911782
11
152.808840
21
102.911782
0
LINE
8
annotation
62
1
39
211
10
152.808840
20
102.911782
11
155.213441
21
106.782880
0
LINE
8
annotation
62
1
39
211
10
155.213441
20
106.782880
11
155.213441
21
106.782880
0
LINE
8
annotation
62
1
39
211
10
155.213441
20
106.782880
11
155.216316
21
106.786437
0
LINE
8
annotation
62
1
39
211
10
155.216316
20
106.786437
11
155.219072
21
106.790024
0
LINE
8
annotation
62
1
39
211
10
155.219072
20
106.790024
11
155.221729
21
106.793672
0
LINE
8
annotation
62
1
39
211
10
155.221729
20
106.793672
11
155.224304
21
106.797411
0
LINE
8
annotation
62
1
39
211
10
155.224304
20
106.797411
11
155.226816
21
106.801270
0
LINE
8
annotation
62
1
39
211
10
155.226816
20
106.801270
11
155.229282
21
106.805281
0
LINE
8
annotation
62
1
39
211
10
155.229282
20
106.805281
11
155.231721
21
106.809473
0
LINE
8
annotation
62
1
39
211
10
155.231721
20
106.809473
11
155.234151
21
106.813877
0
LINE
8
annotation
62
1
39
211
10
155.234151
20
106.813877
11
155.236590
21
106.818523
0
LINE
8
annotation
62
1
39
211
10
155.236590
20
106.818523
11
155.236590
21
106.818523
0
LINE
8
annotation
62
1
39
211
10
155.236590
20
106.818523
11
155.335876
21
107.031697
0
LINE
8
annotation
62
1
39
211
10
155.335876
20
107.031697
11
155.393877
21
107.252671
0
LINE
8
annotation
62
1
39
211
10
155.393877
20
107.252671
11
155.412014
21
107.476451
0
LINE
8
annotation
62
1
39
211
10
155.412014
20
107.476451
11
155.391710
21
107.698045
0
LINE
8
annotation
62
1
39
211
10
155.391710
20
107.698045
11
155.334386
21
107.912459
0
LINE
8
annotation
62
1
39
211
10
155.334386
20
107.912459
11
155.241463
21
108.114700
0
LINE
8
annotation
62
1
39
211
10
155.241463
20
108.114700
11
155.114362
21
108.299775
0
LINE
8
annotation
62
1
39
211
10
155.114362
20
108.299775
11
154.954505
21
108.462692
0
LINE
8
annotation
62
1
39
211
10
154.954505
20
108.462692
11
154.763313
21
108.598456
0
LINE
8
annotation
62
1
39
211
10
154.763313
20
108.598456
11
154.763313
21
108.598456
0
LINE
8
annotation
62
1
39
211
10
154.763313
20
108.598456
11
154.549546
21
108.696331
0
LINE
8
annotation
62
1
39
211
10
154.549546
20
108.696331
11
154.328234
21
108.753438
0
LINE
8
annotation
62
1
39
211
10
154.328234
20
108.753438
11
154.104324
21
108.771063
0
LINE
8
annotation
62
1
39
211
10
154.104324
20
108.771063
11
153.882763
21
108.750491
0
LINE
8
annotation
62
1
39
211
10
153.882763
20
108.750491
11
153.668500
21
108.693008
0
LINE
8
annotation
62
1
39
211
10
153.668500
20
108.693008
11
153.466483
21
108.599899
0
LINE
8
annotation
62
1
39
211
10
153.466483
20
108.599899
11
153.281658
21
108.472449
0
LINE
8
annotation
62
1
39
211
10
153.281658
20
108.472449
11
153.118975
21
108.311943
0
LINE
8
annotation
62
1
39
211
10
153.118975
20
108.311943
11
152.983380
21
108.119667
0
LINE
8
annotation
62
1
39
211
10
152.983380
20
108.119667
11
152.812515
21
107.791901
0
LINE
8
annotation
62
1
39
211
10
160.813196
20
105.841518
11
157.609389
21
105.841518
0
LINE
8
annotation
62
1
39
211
10
165.612643
20
102.911782
11
163.010354
21
102.911782
0
LINE
8
annotation
62
1
39
211
10
163.010354
20
102.911782
11
165.414954
21
106.782880
0
LINE
8
annotation
62
1
39
211
10
165.414954
20
106.782880
11
165.414954
21
106.782880
0
LINE
8
annotation
62
1
39
211
10
165.414954
20
106.782880
11
165.417829
21
106.786437
0
LINE
8
annotation
62
1
39
211
10
165.417829
20
106.786437
11
165.420585
21
106.790024
0
LINE
8
annotation
62
1
39
211
10
165.420585
20
106.790024
11
165.423242
21
106.793672
0
LINE
8
annotation
62
1
39
211
10
165.423242
20
106.793672
11
165.425817
21
106.797411
0
LINE
8
annotation
62
1
39
211
10
165.425817
20
106.797411
11
165.428329
21
106.801270
0
LINE
8
annotation
62
1
39
211
10
165.428329
20
106.801270
11
165.430795
21
106.805281
0
LINE
8
annotation
62
1
39
211
10
165.430795
20
106.805281
11
165.433234
21
106.809473
0
LINE
8
annotation
62
1
39
211
10
165.433234
20
106.809473
11
165.435664
21
106.813877
0
LINE
8
annotation
62
1
39
211
10
165.435664
20
106.813877
11
165.438104
21
106.818523
0
LINE
8
annotation
62
1
39
211
10
165.438104
20
106.818523
11
165.438104
21
106.818523
0
LINE
8
annotation
62
1
39
211
10
165.438104
20
106.818523
11
165.537389
21
107.031697
0
LINE
8
annotation
62
1
39
211
10
165.537389
20
107.031697
11
165.595390
21
107.252671
0
LINE
8
annotation
62
1
39
211
10
165.595390
20
107.252671
11
165.613527
21
107.476451
0
LINE
8
annotation
62
1
39
211
10
165.613527
20
107.476451
11
165.593223
21
107.698045
0
LINE
8
annotation
62
1
39
211
10
165.593223
20
107.698045
11
165.535899
21
107.912459
0
LINE
8
annotation
62
1
39
211
10
165.535899
20
107.912459
11
165.442976
21
108.114700
0
LINE
8
annotation
62
1
39
211
10
165.442976
20
108.114700
11
165.315875
21
108.299775
0
LINE
8
annotation
62
1
39
211
10
165.315875
20
108.299775
11
165.156018
21
108.462692
0
LINE
8
annotation
62
1
39
211
10
165.156018
20
108.462692
11
164.964826
21
108.598456
0
LINE
8
annotation
62
1
39
211
10
164.964826
20
108.598456
11
164.964826
21
108.598456
0
LINE
8
annotation
62
1
39
211
10
164.964826
20
108.598456
11
164.751060
21
108.696331
0
LINE
8
annotation
62
1
39
211
10
164.751060
20
108.696331
11
164.529747
21
108.753438
0
LINE
8
annotation
62
1
39
211
10
164.529747
20
108.753438
11
164.305837
21
108.771063
0
LINE
8
annotation
62
1
39
211
10
164.305837
20
108.771063
11
164.084276
21
108.750491
0
LINE
8
annotation
62
1
39
211
10
164.084276
20
108.750491
11
163.870013
21
108.693008
0
LINE
8
annotation
62
1
39
211
10
163.870013
20
108.693008
11
163.667996
21
108.599899
0
LINE
8
annotation
62
1
39
211
10
163.667996
20
108.599899
11
163.483171
21
108.472449
0
LINE
8
annotation
62
1
39
211
10
163.483171
20
108.472449
11
163.320488
21
108.311943
0
LINE
8
annotation
62
1
39
211
10
163.320488
20
108.311943
11
163.184893
21
108.119667
0
LINE
8
annotation
62
1
39
211
10
163.184893
20
108.119667
11
163.014028
21
107.791901
0
LINE
8
boundary
62
5
39
2
10
127.666486
20
176.362112
11
127.666486
21
175.676061
0
LINE
8
boundary
62
5
39
2
10
127.666486
20
175.676061
11
127.764152
21
174.711077
0
LINE
8
boundary
62
5
39
2
10
127.764152
20
174.711077
11
128.047947
21
174.025935
0
LINE
8
boundary
62
5
39
2
10
128.047947
20
174.025935
11
128.501941
21
173.431451
0
LINE
8
boundary
62
5
39
2
10
128.501941
20
173.431451
11
129.094328
21
172.974729
0
LINE
8
boundary
62
5
39
2
10
129.094328
20
172.974729
11
129.784741
21
172.686893
0
LINE
8
boundary
62
5
39
2
10
129.784741
20
172.686893
11
130.526125
21
172.587552
0
LINE
8
boundary
62
5
39
2
10
130.526125
20
172.587552
11
182.045659
21
172.586685
0
LINE
8
boundary
62
5
39
2
10
182.045659
20
172.586685
11
182.866587
21
172.684350
0
LINE
8
boundary
62
5
39
2
10
182.866587
20
172.684350
11
183.551729
21
172.968143
0
LINE
8
boundary
62
5
39
2
10
183.551729
20
172.968143
11
184.146210
21
173.422136
0
LINE
8
boundary
62
5
39
2
10
184.146210
20
173.422136
11
184.602932
21
174.014527
0
LINE
8
boundary
62
5
39
2
10
184.602932
20
174.014527
11
184.890771
21
174.704939
0
LINE
8
boundary
62
5
39
2
10
184.890771
20
174.704939
11
184.990112
21
175.446323
0
LINE
8
boundary
62
5
39
2
10
184.990112
20
175.446323
11
184.990979
21
176.362112
0
LINE
8
boundary
62
5
39
2
10
184.990979
20
176.362112
11
184.990979
21
192.484513
0
LINE
8
boundary
62
5
39
2
10
184.990979
20
192.484513
11
184.990979
21
270.656298
0
LINE
8
boundary
62
5
39
2
10
184.990979
20
270.656298
11
184.990979
21
271.941141
0
LINE
8
boundary
62
5
39
2
10
184.990979
20
271.941141
11
184.990979
21
272.568480
0
LINE
8
boundary
62
5
39
2
10
184.990979
20
272.568480
11
127.701906
21
272.582961
0
LINE
8
boundary
62
5
39
2
10
127.701906
20
272.582961
11
127.666486
21
271.941141
0
LINE
8
boundary
62
5
39
2
10
127.666486
20
271.941141
11
127.666486
21
270.656298
0
LINE
8
boundary
62
5
39
2
10
127.666486
20
270.656298
11
127.666486
21
268.550613
0
LINE
8
boundary
62
5
39
2
10
127.666486
20
268.550613
11
156.201733
21
268.400613
0
LINE
8
boundary
62
5
39
2
10
156.201733
20
268.400613
11
156.201733
21
265.654613
0
LINE
8
boundary
62
5
39
2
10
156.201733
20
265.654613
11
127.676786
21
265.654613
0
LINE
8
boundary
62
5
39
2
10
127.676786
20
265.654613
11
127.666486
21
246.329218
0
LINE
8
boundary
62
5
39
2
10
127.666486
20
246.329218
11
156.201733
21
246.179218
0
LINE
8
boundary
62
5
39
2
10
156.201733
20
246.179218
11
156.201733
21
243.433218
0
LINE
8
boundary
62
5
39
2
10
156.201733
20
243.433218
11
127.676786
21
243.433218
0
LINE
8
boundary
62
5
39
2
10
127.676786
20
243.433218
11
127.666486
21
212.997125
0
LINE
8
boundary
62
5
39
2
10
127.666486
20
212.997125
11
156.201733
21
212.847126
0
LINE
8
boundary
62
5
39
2
10
156.201733
20
212.847126
11
156.201733
21
210.101126
0
LINE
8
boundary
62
5
39
2
10
156.201733
20
210.101126
11
127.676786
21
210.101126
0
LINE
8
boundary
62
5
39
2
10
127.676786
20
210.101126
11
127.666486
21
192.484513
0
LINE
8
boundary
62
5
39
2
10
127.666486
20
192.484513
11
127.666486
21
179.665034
0
LINE
8
boundary
62
5
39
2
10
127.666486
20
179.665034
11
156.201733
21
179.515034
0
LINE
8
boundary
62
5
39
2
10
156.201733
20
179.515034
11
156.201733
21
176.769033
0
LINE
8
boundary
62
5
39
2
10
156.201733
20
176.769033
11
127.676786
21
176.769034
0
LINE
8
boundary
62
5
39
2
10
127.676786
20
176.769034
11
127.666486
21
176.362112
0
LINE
8
annotation
62
1
39
211
10
162.861832
20
175.742033
11
162.861832
21
180.542033
0
LINE
8
annotation
62
1
39
211
10
162.861832
20
180.542033
11
161.794730
21
179.474631
0
LINE
8
annotation
62
1
39
211
10
163.394028
20
209.074087
11
161.262233
21
209.074087
0
LINE
8
annotation
62
1
39
211
10
161.262233
20
209.074087
11
163.232081
21
212.245289
0
LINE
8
annotation
62
1
39
211
10
163.232081
20
212.245289
11
163.232081
21
212.245289
0
LINE
8
annotation
62
1
39
211
10
163.232081
20
212.245289
11
163.234436
21
212.248203
0
LINE
8
annotation
62
1
39
211
10
163.234436
20
212.248203
11
163.236694
21
212.251142
0
LINE
8
annotation
62
1
39
211
10
163.236694
20
212.251142
11
163.238871
21
212.254130
0
LINE
8
annotation
62
1
39
211
10
163.238871
20
212.254130
11
163.240981
21
212.257193
0
LINE
8
annotation
62
1
39
211
10
163.240981
20
212.257193
11
163.243038
21
212.260355
0
LINE
8
annotation
62
1
39
211
10
163.243038
20
212.260355
11
163.245059
21
212.263640
0
LINE
8
annotation
62
1
39
211
10
163.245059
20
212.263640
11
163.247057
21
212.267074
0
LINE
8
annotation
62
1
39
211
10
163.247057
20
212.267074
11
163.249047
21
212.270682
0
LINE
8
annotation
62
1
39
211
10
163.249047
20
212.270682
11
163.251045
21
212.274488
0
LINE
8
annotation
62
1
39
211
10
163.251045
20
212.274488
11
163.251045
21
212.274488
0
LINE
8
annotation
62
1
39
211
10
163.251045
20
212.274488
11
163.332380
21
212.449120
0
LINE
8
annotation
62
1
39
211
10
163.332380
20
212.449120
11
163.379894
21
212.630142
0
LINE
8
annotation
62
1
39
211
10
163.379894
20
212.630142
11
163.394753
21
212.813463
0
LINE
8
annotation
62
1
39
211
10
163.394753
20
212.813463
11
163.378120
21
212.994992
0
LINE
8
annotation
62
1
39
211
10
163.378120
20
212.994992
11
163.331159
21
213.170640
0
LINE
8
annotation
62
1
39
211
10
163.331159
20
213.170640
11
163.255037
21
213.336316
0
LINE
8
annotation
62
1
39
211
10
163.255037
20
213.336316
11
163.150916
21
213.487930
0
LINE
8
annotation
62
1
39
211
10
163.150916
20
213.487930
11
163.019961
21
213.621391
0
LINE
8
annotation
62
1
39
211
10
163.019961
20
213.621391
11
162.863337
21
213.732609
0
LINE
8
annotation
62
1
39
211
10
162.863337
20
213.732609
11
162.863337
21
213.732609
0
LINE
8
annotation
62
1
39
211
10
162.863337
20
213.732609
11
162.688219
21
213.812788
0
LINE
8
annotation
62
1
39
211
10
162.688219
20
213.812788
11
162.506920
21
213.859570
0
LINE
8
annotation
62
1
39
211
10
162.506920
20
213.859570
11
162.323493
21
213.874009
0
LINE
8
annotation
62
1
39
211
10
162.323493
20
213.874009
11
162.141990
21
213.857156
0
LINE
8
annotation
62
1
39
211
10
162.141990
20
213.857156
11
161.966466
21
213.810066
0
LINE
8
annotation
62
1
39
211
10
161.966466
20
213.810066
11
161.800974
21
213.733791
0
LINE
8
annotation
62
1
39
211
10
161.800974
20
213.733791
11
161.649566
21
213.629384
0
LINE
8
annotation
62
1
39
211
10
161.649566
20
213.629384
11
161.516295
21
213.497898
0
LINE
8
annotation
62
1
39
211
10
161.516295
20
213.497898
11
161.405216
21
213.340385
0
LINE
8
annotation
62
1
39
211
10
161.405216
20
213.340385
11
161.265243
21
213.071879
0
LINE
8
annotation
62
1
39
211
10
161.262233
20
242.406368
11
162.328131
21
242.406368
0
LINE
8
annotation
62
1
39
211
10
162.328131
20
242.406368
11
162.328131
21
242.406368
0
LINE
8
annotation
62
1
39
211
10
162.328131
20
242.406368
11
162.519835
21
242.423565
0
LINE
8
annotation
62
1
39
211
10
162.519835
20
242.423565
11
162.700222
21
242.473129
0
LINE
8
annotation
62
1
39
211
10
162.700222
20
242.473129
11
162.866291
21
242.552015
0
LINE
8
annotation
62
1
39
211
10
162.866291
20
242.552015
11
163.015043
21
242.657183
0
LINE
8
annotation
62
1
39
211
10
163.015043
20
242.657183
11
163.143477
21
242.785591
0
LINE
8
annotation
62
1
39
211
10
163.143477
20
242.785591
11
163.248593
21
242.934194
0
LINE
8
annotation
62
1
39
211
10
163.248593
20
242.934194
11
163.327390
21
243.099952
0
LINE
8
annotation
62
1
39
211
10
163.327390
20
243.099952
11
163.376868
21
243.279822
0
LINE
8
annotation
62
1
39
211
10
163.376868
20
243.279822
11
163.394028
21
243.470761
0
LINE
8
annotation
62
1
39
211
10
163.394028
20
243.470761
11
163.394028
21
244.004462
0
LINE
8
annotation
62
1
39
211
10
163.394028
20
244.004462
11
163.394028
21
244.004462
0
LINE
8
annotation
62
1
39
211
10
163.394028
20
244.004462
11
163.376868
21
244.195322
0
LINE
8
annotation
62
1
39
211
10
163.376868
20
244.195322
11
163.327390
21
244.375149
0
LINE
8
annotation
62
1
39
211
10
163.327390
20
244.375149
11
163.248593
21
244.540895
0
LINE
8
annotation
62
1
39
211
10
163.248593
20
244.540895
11
163.143477
21
244.689508
0
LINE
8
annotation
62
1
39
211
10
163.143477
20
244.689508
11
163.015043
21
244.817940
0
LINE
8
annotation
62
1
39
211
10
163.015043
20
244.817940
11
162.866291
21
244.923140
0
LINE
8
annotation
62
1
39
211
10
162.866291
20
244.923140
11
162.700222
21
245.002059
0
LINE
8
annotation
62
1
39
211
10
162.700222
20
245.002059
11
162.519835
21
245.051647
0
LINE
8
annotation
62
1
39
211
10
162.519835
20
245.051647
11
162.328131
21
245.068854
0
LINE
8
annotation
62
1
39
211
10
162.328131
20
245.068854
11
161.794429
21
245.068854
0
LINE
8
annotation
62
1
39
211
10
161.794429
20
245.068854
11
162.328131
21
245.068854
0
LINE
8
annotation
62
1
39
211
10
162.328131
20
245.068854
11
162.328131
21
245.068854
0
LINE
8
annotation
62
1
39
211
10
162.328131
20
245.068854
11
162.519835
21
245.086065
0
LINE
8
annotation
62
1
39
211
10
162.519835
20
245.086065
11
162.700222
21
245.135682
0
LINE
8
annotation
62
1
39
211
10
162.700222
20
245.135682
11
162.866291
21
245.214680
0
LINE
8
annotation
62
1
39
211
10
162.866291
20
245.214680
11
163.015043
21
245.320033
0
LINE
8
annotation
62
1
39
211
10
163.015043
20
245.320033
11
163.143477
21
245.448716
0
LINE
8
annotation
62
1
39
211
10
163.143477
20
245.448716
11
163.248593
21
245.597706
0
LINE
8
annotation
62
1
39
211
10
163.248593
20
245.597706
11
163.327390
21
245.763975
0
LINE
8
annotation
62
1
39
211
10
163.327390
20
245.763975
11
163.376868
21
245.944501
0
LINE
8
annotation
62
1
39
211
10
163.376868
20
245.944501
11
163.394028
21
246.136257
0
LINE
8
annotation
62
1
39
211
10
163.394028
20
246.136257
11
163.394028
21
246.136257
0
LINE
8
annotation
62
1
39
211
10
163.394028
20
246.136257
11
163.376868
21
246.327116
0
LINE
8
annotation
62
1
39
211
10
163.376868
20
246.327116
11
163.327390
21
246.506944
0
LINE
8
annotation
62
1
39
211
10
163.327390
20
246.506944
11
163.248593
21
246.672689
0
LINE
8
annotation
62
1
39
211
10
163.248593
20
246.672689
11
163.143477
21
246.821303
0
LINE
8
annotation
62
1
39
211
10
163.143477
20
246.821303
11
163.015043
21
246.949735
0
LINE
8
annotation
62
1
39
211
10
163.015043
20
246.949735
11
162.866291
21
247.054935
0
LINE
8
annotation
62
1
39
211
10
162.866291
20
247.054935
11
162.700222
21
247.133854
0
LINE
8
annotation
62
1
39
211
10
162.700222
20
247.133854
11
162.519835
21
247.183442
0
LINE
8
annotation
62
1
39
211
10
162.519835
20
247.183442
11
162.328131
21
247.200649
0
LINE
8
annotation
62
1
39
211
10
162.328131
20
247.200649
11
161.262233
21
247.200649
0
LINE
8
annotation
62
1
39
211
10
163.660728
20
265.694714
11
160.995533
21
265.694714
0
LINE
8
annotation
62
1
39
211
10
160.995533
20
265.694714
11
162.059925
21
269.427613
0
LINE
8
annotation
62
1
39
211
10
162.861832
20
264.627613
11
162.861832
21
266.759407
0
LINE
8
annotation
62
1
39
211
10
147.066264
20
200.096363
11
142.263555
21
193.149684
0
LINE
8
annotation
62
1
39
211
10
142.263555
20
193.149684
11
137.459942
21
200.096363
0
LINE
8
annotation
62
1
39
211
10
142.263555
20
193.708705
11
142.263555
21
185.694556
0
LINE
8
annotation
62
1
39
211
10
160.342577
20
192.895460
11
152.468409
21
192.895460
0
LINE
8
annotation
62
1
39
211
10
168.943518
20
185.695008
11
168.943518
21
200.095912
0
LINE
8
annotation
62
1
39
211
10
168.943518
20
200.095912
11
165.742013
21
196.893503
0
LINE
8
boundary
62
5
39
2
10
127.666486
20
275.767683
11
139.889817
21
275.757961
0
LINE
8
boundary
62
5
39
2
10
139.889817
20
275.757961
11
152.113148
21
275.757961
0
LINE
8
boundary
62
5
39
2
10
152.113148
20
275.757961
11
160.544317
21
275.757961
0
LINE
8
boundary
62
5
39
2
10
160.544317
20
275.757961
11
172.767648
21
275.757961
0
LINE
8
boundary
62
5
39
2
10
172.767648
20
275.757961
11
184.990979
21
275.757961
0
LINE
8
boundary
62
5
39
2
10
184.990979
20
275.757961
11
184.990979
21
282.846031
0
LINE
8
boundary
62
5
39
2
10
184.990979
20
282.846031
11
147.440531
21
282.846031
0
LINE
8
boundary
62
5
39
2
10
147.440531
20
282.846031
11
127.666486
21
282.846031
0
LINE
8
boundary
62
5
39
2
10
127.666486
20
282.846031
11
127.666486
21
278.813683
0
LINE
8
boundary
62
5
39
2
10
127.666486
20
278.813683
11
156.201733
21
278.663683
0
LINE
8
boundary
62
5
39
2
10
156.201733
20
278.663683
11
156.201733
21
275.917683
0
LINE
8
boundary
62
5
39
2
10
156.201733
20
275.917683
11
127.676786
21
275.917683
0
LINE
8
boundary
62
5
39
2
10
127.676786
20
275.917683
11
127.666486
21
275.767683
0
LINE
8
annotation
62
1
39
211
10
159.896322
20
276.642123
11
158.599496
21
276.642123
0
LINE
8
annotation
62
1
39
211
10
158.599496
20
276.642123
11
159.117406
21
278.458471
0
LINE
8
annotation
62
1
39
211
10
159.507597
20
276.122895
11
159.507597
21
277.160180
0
LINE
8
annotation
62
1
39
211
10
166.860360
20
281.229790
11
166.172053
21
280.234216
0
LINE
8
annotation
62
1
39
211
10
166.172053
20
280.234216
11
165.483615
21
281.229790
0
LINE
8
annotation
62
1
39
211
10
166.172053
20
280.314333
11
166.172053
21
279.165772
0
LINE
8
annotation
62
1
39
211
10
168.763076
20
280.197781
11
167.634577
21
280.197781
0
LINE
8
annotation
62
1
39
211
10
169.536840
20
279.165902
11
169.995151
21
279.165902
0
LINE
8
annotation
62
1
39
211
10
169.995151
20
279.165902
11
169.995151
21
279.165902
0
LINE
8
annotation
62
1
39
211
10
169.995151
20
279.165902
11
170.077579
21
279.173296
0
LINE
8
annotation
62
1
39
211
10
170.077579
20
279.173296
11
170.155142
21
279.194607
0
LINE
8
annotation
62
1
39
211
10
170.155142
20
279.194607
11
170.226548
21
279.228527
0
LINE
8
annotation
62
1
39
211
10
170.226548
20
279.228527
11
170.290507
21
279.273746
0
LINE
8
annotation
62
1
39
211
10
170.290507
20
279.273746
11
170.345731
21
279.328958
0
LINE
8
annotation
62
1
39
211
10
170.345731
20
279.328958
11
170.390928
21
279.392855
0
LINE
8
annotation
62
1
39
211
10
170.390928
20
279.392855
11
170.424809
21
279.464127
0
LINE
8
annotation
62
1
39
211
10
170.424809
20
279.464127
11
170.446084
21
279.541466
0
LINE
8
annotation
62
1
39
211
10
170.446084
20
279.541466
11
170.453462
21
279.623566
0
LINE
8
annotation
62
1
39
211
10
170.453462
20
279.623566
11
170.453462
21
279.853045
0
LINE
8
annotation
62
1
39
211
10
170.453462
20
279.853045
11
170.453462
21
279.853045
0
LINE
8
annotation
62
1
39
211
10
170.453462
20
279.853045
11
170.446084
21
279.935110
0
LINE
8
annotation
62
1
39
211
10
170.446084
20
279.935110
11
170.424809
21
280.012432
0
LINE
8
annotation
62
1
39
211
10
170.424809
20
280.012432
11
170.390928
21
280.083698
0
LINE
8
annotation
62
1
39
211
10
170.390928
20
280.083698
11
170.345731
21
280.147599
0
LINE
8
annotation
62
1
39
211
10
170.345731
20
280.147599
11
170.290507
21
280.202821
0
LINE
8
annotation
62
1
39
211
10
170.290507
20
280.202821
11
170.226548
21
280.248055
0
LINE
8
annotation
62
1
39
211
10
170.226548
20
280.248055
11
170.155142
21
280.281988
0
LINE
8
annotation
62
1
39
211
10
170.155142
20
280.281988
11
170.077579
21
280.303310
0
LINE
8
annotation
62
1
39
211
10
170.077579
20
280.303310
11
169.995151
21
280.310709
0
LINE
8
annotation
62
1
39
211
10
169.995151
20
280.310709
11
169.765672
21
280.310709
0
LINE
8
annotation
62
1
39
211
10
169.765672
20
280.310709
11
169.995151
21
280.310709
0
LINE
8
annotation
62
1
39
211
10
169.995151
20
280.310709
11
169.995151
21
280.310709
0
LINE
8
annotation
62
1
39
211
10
169.995151
20
280.310709
11
170.077579
21
280.318109
0
LINE
8
annotation
62
1
39
211
10
170.077579
20
280.318109
11
170.155142
21
280.339443
0
LINE
8
annotation
62
1
39
211
10
170.155142
20
280.339443
11
170.226548
21
280.373410
0
LINE
8
annotation
62
1
39
211
10
170.226548
20
280.373410
11
170.290507
21
280.418710
0
LINE
8
annotation
62
1
39
211
10
170.290507
20
280.418710
11
170.345731
21
280.474041
0
LINE
8
annotation
62
1
39
211
10
170.345731
20
280.474041
11
170.390928
21
280.538102
0
LINE
8
annotation
62
1
39
211
10
170.390928
20
280.538102
11
170.424809
21
280.609595
0
LINE
8
annotation
62
1
39
211
10
170.424809
20
280.609595
11
170.446084
21
280.687216
0
LINE
8
annotation
62
1
39
211
10
170.446084
20
280.687216
11
170.453462
21
280.769667
0
LINE
8
annotation
62
1
39
211
10
170.453462
20
280.769667
11
170.453462
21
280.769667
0
LINE
8
annotation
62
1
39
211
10
170.453462
20
280.769667
11
170.446084
21
280.851732
0
LINE
8
annotation
62
1
39
211
10
170.446084
20
280.851732
11
170.424809
21
280.929054
0
LINE
8
annotation
62
1
39
211
10
170.424809
20
280.929054
11
170.390928
21
281.000320
0
LINE
8
annotation
62
1
39
211
10
170.390928
20
281.000320
11
170.345731
21
281.064221
0
LINE
8
annotation
62
1
39
211
10
170.345731
20
281.064221
11
170.290507
21
281.119443
0
LINE
8
annotation
62
1
39
211
10
170.290507
20
281.119443
11
170.226548
21
281.164677
0
LINE
8
annotation
62
1
39
211
10
170.226548
20
281.164677
11
170.155142
21
281.198610
0
LINE
8
annotation
62
1
39
211
10
170.155142
20
281.198610
11
170.077579
21
281.219932
0
LINE
8
annotation
62
1
39
211
10
170.077579
20
281.219932
11
169.995151
21
281.227331
0
LINE
8
annotation
62
1
39
211
10
169.995151
20
281.227331
11
169.536840
21
281.227331
0
LINE
8
annotation
62
1
39
211
10
172.356113
20
280.197781
11
171.227614
21
280.197781
0
LINE
8
annotation
62
1
39
211
10
174.046655
20
279.165820
11
173.130033
21
279.165820
0
LINE
8
annotation
62
1
39
211
10
173.130033
20
279.165820
11
173.977021
21
280.529364
0
LINE
8
annotation
62
1
39
211
10
173.977021
20
280.529364
11
173.977021
21
280.529364
0
LINE
8
annotation
62
1
39
211
10
173.977021
20
280.529364
11
173.978034
21
280.530616
0
LINE
8
annotation
62
1
39
211
10
173.978034
20
280.530616
11
173.979005
21
280.531880
0
LINE
8
annotation
62
1
39
211
10
173.979005
20
280.531880
11
173.979941
21
280.533165
0
LINE
8
annotation
62
1
39
211
10
173.979941
20
280.533165
11
173.980848
21
280.534482
0
LINE
8
annotation
62
1
39
211
10
173.980848
20
280.534482
11
173.981733
21
280.535841
0
LINE
8
annotation
62
1
39
211
10
173.981733
20
280.535841
11
173.982601
21
280.537254
0
LINE
8
annotation
62
1
39
211
10
173.982601
20
280.537254
11
173.983460
21
280.538731
0
LINE
8
annotation
62
1
39
211
10
173.983460
20
280.538731
11
173.984316
21
280.540282
0
LINE
8
annotation
62
1
39
211
10
173.984316
20
280.540282
11
173.985176
21
280.541918
0
LINE
8
annotation
62
1
39
211
10
173.985176
20
280.541918
11
173.985176
21
280.541918
0
LINE
8
annotation
62
1
39
211
10
173.985176
20
280.541918
11
174.020148
21
280.617006
0
LINE
8
annotation
62
1
39
211
10
174.020148
20
280.617006
11
174.040578
21
280.694841
0
LINE
8
annotation
62
1
39
211
10
174.040578
20
280.694841
11
174.046966
21
280.773665
0
LINE
8
annotation
62
1
39
211
10
174.046966
20
280.773665
11
174.039814
21
280.851718
0
LINE
8
annotation
62
1
39
211
10
174.039814
20
280.851718
11
174.019623
21
280.927243
0
LINE
8
annotation
62
1
39
211
10
174.019623
20
280.927243
11
173.986892
21
280.998480
0
LINE
8
annotation
62
1
39
211
10
173.986892
20
280.998480
11
173.942122
21
281.063670
0
LINE
8
annotation
62
1
39
211
10
173.942122
20
281.063670
11
173.885815
21
281.121055
0
LINE
8
annotation
62
1
39
211
10
173.885815
20
281.121055
11
173.818470
21
281.168876
0
LINE
8
annotation
62
1
39
211
10
173.818470
20
281.168876
11
173.818470
21
281.168876
0
LINE
8
annotation
62
1
39
211
10
173.818470
20
281.168876
11
173.743173
21
281.203351
0
LINE
8
annotation
62
1
39
211
10
173.743173
20
281.203351
11
173.665219
21
281.223467
0
LINE
8
annotation
62
1
39
211
10
173.665219
20
281.223467
11
173.586349
21
281.229675
0
LINE
8
annotation
62
1
39
211
10
173.586349
20
281.229675
11
173.508308
21
281.222429
0
LINE
8
annotation
62
1
39
211
10
173.508308
20
281.222429
11
173.432836
21
281.202181
0
LINE
8
annotation
62
1
39
211
10
173.432836
20
281.202181
11
173.361678
21
281.169384
0
LINE
8
annotation
62
1
39
211
10
173.361678
20
281.169384
11
173.296577
21
281.124492
0
LINE
8
annotation
62
1
39
211
10
173.296577
20
281.124492
11
173.239273
21
281.067956
0
LINE
8
annotation
62
1
39
211
10
173.239273
20
281.067956
11
173.191512
21
281.000229
0
LINE
8
annotation
62
1
39
211
10
173.191512
20
281.000229
11
173.131327
21
280.884778
0
LINE
8
boundary
62
5
39
2
10
127.748782
20
288.262171
11
128.050490
21
287.454144
0
LINE
8
boundary
62
5
39
2
10
128.050490
20
287.454144
11
128.505985
21
286.860527
0
LINE
8
boundary
62
5
39
2
10
128.505985
20
286.860527
11
129.099599
21
286.405032
0
LINE
8
boundary
62
5
39
2
10
129.099599
20
286.405032
11
129.790878
21
286.118697
0
LINE
8
boundary
62
5
39
2
10
129.790878
20
286.118697
11
130.532712
21
286.021031
0
LINE
8
boundary
62
5
39
2
10
130.532712
20
286.021031
11
159.605596
21
286.021031
0
LINE
8
boundary
62
5
39
2
10
159.605596
20
286.021031
11
182.124754
21
286.021031
0
LINE
8
boundary
62
5
39
2
10
182.124754
20
286.021031
11
182.749840
21
286.103327
0
LINE
8
boundary
62
5
39
2
10
182.749840
20
286.103327
11
183.557866
21
286.405032
0
LINE
8
boundary
62
5
39
2
10
183.557866
20
286.405032
11
184.151480
21
286.860527
0
LINE
8
boundary
62
5
39
2
10
184.151480
20
286.860527
11
184.606976
21
287.454144
0
LINE
8
boundary
62
5
39
2
10
184.606976
20
287.454144
11
184.893314
21
288.145423
0
LINE
8
boundary
62
5
39
2
10
184.893314
20
288.145423
11
184.985163
21
288.768873
0
LINE
8
boundary
62
5
39
2
10
184.985163
20
288.768873
11
184.990979
21
289.592883
0
LINE
8
boundary
62
5
39
2
10
184.990979
20
289.592883
11
184.990979
21
290.159578
0
LINE
8
boundary
62
5
39
2
10
184.990979
20
290.159578
11
184.894150
21
290.895058
0
LINE
8
boundary
62
5
39
2
10
184.894150
20
290.895058
11
184.611880
21
291.580849
0
LINE
8
boundary
62
5
39
2
10
184.611880
20
291.580849
11
184.159283
21
292.176139
0
LINE
8
boundary
62
5
39
2
10
184.159283
20
292.176139
11
183.568035
21
292.633997
0
LINE
8
boundary
62
5
39
2
10
183.568035
20
292.633997
11
182.878428
21
292.923233
0
LINE
8
boundary
62
5
39
2
10
182.878428
20
292.923233
11
182.124754
21
293.025803
0
LINE
8
boundary
62
5
39
2
10
182.124754
20
293.025803
11
156.549667
21
293.025803
0
LINE
8
boundary
62
5
39
2
10
156.549667
20
293.025803
11
156.201733
21
290.203380
0
LINE
8
boundary
62
5
39
2
10
156.201733
20
290.203380
11
127.676786
21
290.203380
0
LINE
8
boundary
62
5
39
2
10
127.676786
20
290.203380
11
127.666486
21
289.592883
0
LINE
8
boundary
62
5
39
2
10
127.666486
20
289.592883
11
127.666486
21
288.887257
0
LINE
8
boundary
62
5
39
2
10
127.666486
20
288.887257
11
127.748782
21
288.262171
0
LINE
8
annotation
62
1
39
211
10
160.248592
20
288.936380
11
160.248592
21
291.816380
0
LINE
8
annotation
62
1
39
211
10
160.248592
20
291.816380
11
159.608331
21
291.175939
0
LINE
8
annotation
62
1
39
211
10
167.089257
20
289.659641
11
166.400949
21
288.664067
0
LINE
8
annotation
62
1
39
211
10
166.400949
20
288.664067
11
165.712512
21
289.659641
0
LINE
8
annotation
62
1
39
211
10
166.400949
20
288.744184
11
166.400949
21
287.595624
0
LINE
8
annotation
62
1
39
211
10
168.991973
20
288.627633
11
167.863474
21
288.627633
0
LINE
8
annotation
62
1
39
211
10
170.682515
20
287.595672
11
169.765892
21
287.595672
0
LINE
8
annotation
62
1
39
211
10
169.765892
20
287.595672
11
170.612881
21
288.959215
0
LINE
8
annotation
62
1
39
211
10
170.612881
20
288.959215
11
170.612881
21
288.959215
0
LINE
8
annotation
62
1
39
211
10
170.612881
20
288.959215
11
170.613894
21
288.960468
0
LINE
8
annotation
62
1
39
211
10
170.613894
20
288.960468
11
170.614865
21
288.961731
0
LINE
8
annotation
62
1
39
211
10
170.614865
20
288.961731
11
170.615801
21
288.963016
0
LINE
8
annotation
62
1
39
211
10
170.615801
20
288.963016
11
170.616708
21
288.964333
0
LINE
8
annotation
62
1
39
211
10
170.616708
20
288.964333
11
170.617592
21
288.965693
0
LINE
8
annotation
62
1
39
211
10
170.617592
20
288.965693
11
170.618461
21
288.967105
0
LINE
8
annotation
62
1
39
211
10
170.618461
20
288.967105
11
170.619320
21
288.968582
0
LINE
8
annotation
62
1
39
211
10
170.619320
20
288.968582
11
170.620176
21
288.970133
0
LINE
8
annotation
62
1
39
211
10
170.620176
20
288.970133
11
170.621035
21
288.971770
0
LINE
8
annotation
62
1
39
211
10
170.621035
20
288.971770
11
170.621035
21
288.971770
0
LINE
8
annotation
62
1
39
211
10
170.621035
20
288.971770
11
170.656007
21
289.046857
0
LINE
8
annotation
62
1
39
211
10
170.656007
20
289.046857
11
170.676437
21
289.124693
0
LINE
8
annotation
62
1
39
211
10
170.676437
20
289.124693
11
170.682826
21
289.203516
0
LINE
8
annotation
62
1
39
211
10
170.682826
20
289.203516
11
170.675674
21
289.281570
0
LINE
8
annotation
62
1
39
211
10
170.675674
20
289.281570
11
170.655483
21
289.357094
0
LINE
8
annotation
62
1
39
211
10
170.655483
20
289.357094
11
170.622751
21
289.428331
0
LINE
8
annotation
62
1
39
211
10
170.622751
20
289.428331
11
170.577982
21
289.493521
0
LINE
8
annotation
62
1
39
211
10
170.577982
20
289.493521
11
170.521674
21
289.550907
0
LINE
8
annotation
62
1
39
211
10
170.521674
20
289.550907
11
170.454330
21
289.598728
0
LINE
8
annotation
62
1
39
211
10
170.454330
20
289.598728
11
170.454330
21
289.598728
0
LINE
8
annotation
62
1
39
211
10
170.454330
20
289.598728
11
170.379033
21
289.633203
0
LINE
8
annotation
62
1
39
211
10
170.379033
20
289.633203
11
170.301079
21
289.653318
0
LINE
8
annotation
62
1
39
211
10
170.301079
20
289.653318
11
170.222209
21
289.659526
0
LINE
8
annotation
62
1
39
211
10
170.222209
20
289.659526
11
170.144168
21
289.652280
0
LINE
8
annotation
62
1
39
211
10
170.144168
20
289.652280
11
170.068696
21
289.632032
0
LINE
8
annotation
62
1
39
211
10
170.068696
20
289.632032
11
169.997538
21
289.599236
0
LINE
8
annotation
62
1
39
211
10
169.997538
20
289.599236
11
169.932436
21
289.554343
0
LINE
8
annotation
62
1
39
211
10
169.932436
20
289.554343
11
169.875133
21
289.497807
0
LINE
8
annotation
62
1
39
211
10
169.875133
20
289.497807
11
169.827372
21
289.430081
0
LINE
8
annotation
62
1
39
211
10
169.827372
20
289.430081
11
169.767187
21
289.314629
0
LINE
8
annotation
62
1
39
211
10
172.585321
20
288.627633
11
171.456823
21
288.627633
0
LINE
8
annotation
62
1
39
211
10
173.817979
20
287.595688
11
173.817979
21
289.659577
0
LINE
8
annotation
62
1
39
211
10
173.817979
20
289.659577
11
173.359150
21
289.200618
0
LINE
8
boundary
62
5
39
2
10
188.165979
20
9.891256
11
188.165979
21
8.686402
0
LINE
8
boundary
62
5
39
2
10
188.165979
20
8.686402
11
188.165979
21
6.667500
0
LINE
8
boundary
62
5
39
2
10
188.165979
20
6.667500
11
240.174390
21
6.667500
0
LINE
8
boundary
62
5
39
2
10
240.174390
20
6.667500
11
245.490472
21
6.667500
0
LINE
8
boundary
62
5
39
2
10
245.490472
20
6.667500
11
245.490472
21
8.421028
0
LINE
8
boundary
62
5
39
2
10
245.490472
20
8.421028
11
245.490472
21
11.401741
0
LINE
8
boundary
62
5
39
2
10
245.490472
20
11.401741
11
245.490472
21
12.409520
0
LINE
8
boundary
62
5
39
2
10
245.490472
20
12.409520
11
245.490472
21
13.219254
0
LINE
8
boundary
62
5
39
2
10
245.490472
20
13.219254
11
245.490472
21
14.194846
0
LINE
8
boundary
62
5
39
2
10
245.490472
20
14.194846
11
245.490472
21
15.239155
0
LINE
8
boundary
62
5
39
2
10
245.490472
20
15.239155
11
245.490472
21
16.207073
0
LINE
8
boundary
62
5
39
2
10
245.490472
20
16.207073
11
245.490472
21
30.386463
0
LINE
8
boundary
62
5
39
2
10
245.490472
20
30.386463
11
245.490472
21
43.214524
0
LINE
8
boundary
62
5
39
2
10
245.490472
20
43.214524
11
245.490472
21
44.581248
0
LINE
8
boundary
62
5
39
2
10
245.490472
20
44.581248
11
245.490472
21
45.670316
0
LINE
8
boundary
62
5
39
2
10
245.490472
20
45.670316
11
245.490472
21
46.439641
0
LINE
8
boundary
62
5
39
2
10
245.490472
20
46.439641
11
245.490472
21
50.092230
0
LINE
8
boundary
62
5
39
2
10
245.490472
20
50.092230
11
245.490472
21
52.754098
0
LINE
8
boundary
62
5
39
2
10
245.490472
20
52.754098
11
194.191041
21
52.754098
0
LINE
8
boundary
62
5
39
2
10
194.191041
20
52.754098
11
188.165979
21
52.754098
0
LINE
8
boundary
62
5
39
2
10
188.165979
20
52.754098
11
188.165979
21
50.092230
0
LINE
8
boundary
62
5
39
2
10
188.165979
20
50.092230
11
188.165979
21
46.924580
0
LINE
8
boundary
62
5
39
2
10
188.165979
20
46.924580
11
188.165979
21
46.269347
0
LINE
8
boundary
62
5
39
2
10
188.165979
20
46.269347
11
216.701226
21
46.119348
0
LINE
8
boundary
62
5
39
2
10
216.701226
20
46.119348
11
216.701226
21
43.373348
0
LINE
8
boundary
62
5
39
2
10
216.701226
20
43.373348
11
188.176279
21
43.373348
0
LINE
8
boundary
62
5
39
2
10
188.176279
20
43.373348
11
188.165979
21
30.386463
0
LINE
8
boundary
62
5
39
2
10
188.165979
20
30.386463
11
188.165979
21
16.207073
0
LINE
8
boundary
62
5
39
2
10
188.165979
20
16.207073
11
188.165979
21
15.239155
0
LINE
8
boundary
62
5
39
2
10
188.165979
20
15.239155
11
188.165979
21
14.194846
0
LINE
8
boundary
62
5
39
2
10
188.165979
20
14.194846
11
188.165979
21
13.219254
0
LINE
8
boundary
62
5
39
2
10
188.165979
20
13.219254
11
216.701226
21
12.787256
0
LINE
8
boundary
62
5
39
2
10
216.701226
20
12.787256
11
216.701226
21
10.041256
0
LINE
8
boundary
62
5
39
2
10
216.701226
20
10.041256
11
188.176279
21
10.041256
0
LINE
8
boundary
62
5
39
2
10
188.176279
20
10.041256
11
188.165979
21
9.891256
0
LINE
8
annotation
62
1
39
211
10
223.893521
20
9.014217
11
221.761726
21
9.014217
0
LINE
8
annotation
62
1
39
211
10
221.761726
20
9.014217
11
223.731574
21
12.185420
0
LINE
8
annotation
62
1
39
211
10
223.731574
20
12.185420
11
223.731574
21
12.185420
0
LINE
8
annotation
62
1
39
211
10
223.731574
20
12.185420
11
223.733929
21
12.188334
0
LINE
8
annotation
62
1
39
211
10
223.733929
20
12.188334
11
223.736188
21
12.191272
0
LINE
8
annotation
62
1
39
211
10
223.736188
20
12.191272
11
223.738364
21
12.194261
0
LINE
8
annotation
62
1
39
211
10
223.738364
20
12.194261
11
223.740474
21
12.197323
0
LINE
8
annotation
62
1
39
211
10
223.740474
20
12.197323
11
223.742531
21
12.200485
0
LINE
8
annotation
62
1
39
211
10
223.742531
20
12.200485
11
223.744552
21
12.203770
0
LINE
8
annotation
62
1
39
211
10
223.744552
20
12.203770
11
223.746550
21
12.207205
0
LINE
8
annotation
62
1
39
211
10
223.746550
20
12.207205
11
223.748540
21
12.210812
0
LINE
8
annotation
62
1
39
211
10
223.748540
20
12.210812
11
223.750539
21
12.214618
0
LINE
8
annotation
62
1
39
211
10
223.750539
20
12.214618
11
223.750539
21
12.214618
0
LINE
8
annotation
62
1
39
211
10
223.750539
20
12.214618
11
223.831873
21
12.389250
0
LINE
8
annotation
62
1
39
211
10
223.831873
20
12.389250
11
223.879387
21
12.570272
0
LINE
8
annotation
62
1
39
211
10
223.879387
20
12.570272
11
223.894246
21
12.753593
0
LINE
8
annotation
62
1
39
211
10
223.894246
20
12.753593
11
223.877613
21
12.935122
0
LINE
8
annotation
62
1
39
211
10
223.877613
20
12.935122
11
223.830653
21
13.110770
0
LINE
8
annotation
62
1
39
211
10
223.830653
20
13.110770
11
223.754530
21
13.276446
0
LINE
8
annotation
62
1
39
211
10
223.754530
20
13.276446
11
223.650409
21
13.428060
0
LINE
8
annotation
62
1
39
211
10
223.650409
20
13.428060
11
223.519454
21
13.561521
0
LINE
8
annotation
62
1
39
211
10
223.519454
20
13.561521
11
223.362830
21
13.672739
0
LINE
8
annotation
62
1
39
211
10
223.362830
20
13.672739
11
223.362830
21
13.672739
0
LINE
8
annotation
62
1
39
211
10
223.362830
20
13.672739
11
223.187712
21
13.752918
0
LINE
8
annotation
62
1
39
211
10
223.187712
20
13.752918
11
223.006413
21
13.799700
0
LINE
8
annotation
62
1
39
211
10
223.006413
20
13.799700
11
222.822986
21
13.814139
0
LINE
8
annotation
62
1
39
211
10
222.822986
20
13.814139
11
222.641484
21
13.797286
0
LINE
8
annotation
62
1
39
211
10
222.641484
20
13.797286
11
222.465959
21
13.750196
0
LINE
8
annotation
62
1
39
211
10
222.465959
20
13.750196
11
222.300467
21
13.673921
0
LINE
8
annotation
62
1
39
211
10
222.300467
20
13.673921
11
222.149059
21
13.569514
0
LINE
8
annotation
62
1
39
211
10
222.149059
20
13.569514
11
222.015788
21
13.438028
0
LINE
8
annotation
62
1
39
211
10
222.015788
20
13.438028
11
221.904709
21
13.280516
0
LINE
8
annotation
62
1
39
211
10
221.904709
20
13.280516
11
221.764736
21
13.012009
0
LINE
8
annotation
62
1
39
211
10
221.761726
20
42.346499
11
222.827624
21
42.346499
0
LINE
8
annotation
62
1
39
211
10
222.827624
20
42.346499
11
222.827624
21
42.346499
0
LINE
8
annotation
62
1
39
211
10
222.827624
20
42.346499
11
223.019328
21
42.363696
0
LINE
8
annotation
62
1
39
211
10
223.019328
20
42.363696
11
223.199715
21
42.413259
0
LINE
8
annotation
62
1
39
211
10
223.199715
20
42.413259
11
223.365784
21
42.492146
0
LINE
8
annotation
62
1
39
211
10
223.365784
20
42.492146
11
223.514536
21
42.597314
0
LINE
8
annotation
62
1
39
211
10
223.514536
20
42.597314
11
223.642970
21
42.725721
0
LINE
8
annotation
62
1
39
211
10
223.642970
20
42.725721
11
223.748086
21
42.874324
0
LINE
8
annotation
62
1
39
211
10
223.748086
20
42.874324
11
223.826883
21
43.040082
0
LINE
8
annotation
62
1
39
211
10
223.826883
20
43.040082
11
223.876361
21
43.219952
0
LINE
8
annotation
62
1
39
211
10
223.876361
20
43.219952
11
223.893521
21
43.410891
0
LINE
8
annotation
62
1
39
211
10
223.893521
20
43.410891
11
223.893521
21
43.944592
0
LINE
8
annotation
62
1
39
211
10
223.893521
20
43.944592
11
223.893521
21
43.944592
0
LINE
8
annotation
62
1
39
211
10
223.893521
20
43.944592
11
223.876361
21
44.135452
0
LINE
8
annotation
62
1
39
211
10
223.876361
20
44.135452
11
223.826883
21
44.315279
0
LINE
8
annotation
62
1
39
211
10
223.826883
20
44.315279
11
223.748086
21
44.481025
0
LINE
8
annotation
62
1
39
211
10
223.748086
20
44.481025
11
223.642970
21
44.629638
0
LINE
8
annotation
62
1
39
211
10
223.642970
20
44.629638
11
223.514536
21
44.758070
0
LINE
8
annotation
62
1
39
211
10
223.514536
20
44.758070
11
223.365784
21
44.863270
0
LINE
8
annotation
62
1
39
211
10
223.365784
20
44.863270
11
223.199715
21
44.942189
0
LINE
8
annotation
62
1
39
211
10
223.199715
20
44.942189
11
223.019328
21
44.991777
0
LINE
8
annotation
62
1
39
211
10
223.019328
20
44.991777
11
222.827624
21
45.008984
0
LINE
8
annotation
62
1
39
211
10
222.827624
20
45.008984
11
222.293922
21
45.008984
0
LINE
8
annotation
62
1
39
211
10
222.293922
20
45.008984
11
222.827624
21
45.008984
0
LINE
8
annotation
62
1
39
211
10
222.827624
20
45.008984
11
222.827624
21
45.008984
0
LINE
8
annotation
62
1
39
211
10
222.827624
20
45.008984
11
223.019328
21
45.026196
0
LINE
8
annotation
62
1
39
211
10
223.019328
20
45.026196
11
223.199715
21
45.075812
0
LINE
8
annotation
62
1
39
211
10
223.199715
20
45.075812
11
223.365784
21
45.154810
0
LINE
8
annotation
62
1
39
211
10
223.365784
20
45.154810
11
223.514536
21
45.260163
0
LINE
8
annotation
62
1
39
211
10
223.514536
20
45.260163
11
223.642970
21
45.388847
0
LINE
8
annotation
62
1
39
211
10
223.642970
20
45.388847
11
223.748086
21
45.537836
0
LINE
8
annotation
62
1
39
211
10
223.748086
20
45.537836
11
223.826883
21
45.704106
0
LINE
8
annotation
62
1
39
211
10
223.826883
20
45.704106
11
223.876361
21
45.884631
0
LINE
8
annotation
62
1
39
211
10
223.876361
20
45.884631
11
223.893521
21
46.076387
0
LINE
8
annotation
62
1
39
211
10
223.893521
20
46.076387
11
223.893521
21
46.076387
0
LINE
8
annotation
62
1
39
211
10
223.893521
20
46.076387
11
223.876361
21
46.267247
0
LINE
8
annotation
62
1
39
211
10
223.876361
20
46.267247
11
223.826883
21
46.447074
0
LINE
8
annotation
62
1
39
211
10
223.826883
20
46.447074
11
223.748086
21
46.612820
0
LINE
8
annotation
62
1
39
211
10
223.748086
20
46.612820
11
223.642970
21
46.761433
0
LINE
8
annotation
62
1
39
211
10
223.642970
20
46.761433
11
223.514536
21
46.889865
0
LINE
8
annotation
62
1
39
211
10
223.514536
20
46.889865
11
223.365784
21
46.995065
0
LINE
8
annotation
62
1
39
211
10
223.365784
20
46.995065
11
223.199715
21
47.073984
0
LINE
8
annotation
62
1
39
211
10
223.199715
20
47.073984
11
223.019328
21
47.123572
0
LINE
8
annotation
62
1
39
211
10
223.019328
20
47.123572
11
222.827624
21
47.140779
0
LINE
8
annotation
62
1
39
211
10
222.827624
20
47.140779
11
221.761726
21
47.140779
0
LINE
8
annotation
62
1
39
211
10
204.311243
20
32.943049
11
201.558012
21
28.960752
0
LINE
8
annotation
62
1
39
211
10
201.558012
20
28.960752
11
198.804263
21
32.943049
0
LINE
8
annotation
62
1
39
211
10
201.558012
20
29.281220
11
201.558012
21
24.686979
0
LINE
8
annotation
62
1
39
211
10
211.922105
20
28.815014
11
207.408111
21
28.815014
0
LINE
8
annotation
62
1
39
211
10
218.684273
20
24.687171
11
215.017784
21
24.687171
0
LINE
8
annotation
62
1
39
211
10
215.017784
20
24.687171
11
218.405740
21
30.141344
0
LINE
8
annotation
62
1
39
211
10
218.405740
20
30.141344
11
218.405740
21
30.141344
0
LINE
8
annotation
62
1
39
211
10
218.405740
20
30.141344
11
218.409790
21
30.146356
0
LINE
8
annotation
62
1
39
211
10
218.409790
20
30.146356
11
218.413674
21
30.151410
0
LINE
8
annotation
62
1
39
211
10
218.413674
20
30.151410
11
218.417417
21
30.156550
0
LINE
8
annotation
62
1
39
211
10
218.417417
20
30.156550
11
218.421045
21
30.161817
0
LINE
8
annotation
62
1
39
211
10
218.421045
20
30.161817
11
218.424584
21
30.167255
0
LINE
8
annotation
62
1
39
211
10
218.424584
20
30.167255
11
218.428059
21
30.172906
0
LINE
8
annotation
62
1
39
211
10
218.428059
20
30.172906
11
218.431496
21
30.178812
0
LINE
8
annotation
62
1
39
211
10
218.431496
20
30.178812
11
218.434919
21
30.185017
0
LINE
8
annotation
62
1
39
211
10
218.434919
20
30.185017
11
218.438356
21
30.191563
0
LINE
8
annotation
62
1
39
211
10
218.438356
20
30.191563
11
218.438356
21
30.191563
0
LINE
8
annotation
62
1
39
211
10
218.438356
20
30.191563
11
218.578244
21
30.491914
0
LINE
8
annotation
62
1
39
211
10
218.578244
20
30.491914
11
218.659964
21
30.803254
0
LINE
8
annotation
62
1
39
211
10
218.659964
20
30.803254
11
218.685519
21
31.118549
0
LINE
8
annotation
62
1
39
211
10
218.685519
20
31.118549
11
218.656912
21
31.430763
0
LINE
8
annotation
62
1
39
211
10
218.656912
20
31.430763
11
218.576145
21
31.732861
0
LINE
8
annotation
62
1
39
211
10
218.576145
20
31.732861
11
218.445220
21
32.017808
0
LINE
8
annotation
62
1
39
211
10
218.445220
20
32.017808
11
218.266142
21
32.278570
0
LINE
8
annotation
62
1
39
211
10
218.266142
20
32.278570
11
218.040912
21
32.508110
0
LINE
8
annotation
62
1
39
211
10
218.040912
20
32.508110
11
217.771533
21
32.699395
0
LINE
8
annotation
62
1
39
211
10
217.771533
20
32.699395
11
217.771533
21
32.699395
0
LINE
8
annotation
62
1
39
211
10
217.771533
20
32.699395
11
217.470347
21
32.837295
0
LINE
8
annotation
62
1
39
211
10
217.470347
20
32.837295
11
217.158530
21
32.917756
0
LINE
8
annotation
62
1
39
211
10
217.158530
20
32.917756
11
216.843052
21
32.942589
0
LINE
8
annotation
62
1
39
211
10
216.843052
20
32.942589
11
216.530885
21
32.913605
0
LINE
8
annotation
62
1
39
211
10
216.530885
20
32.913605
11
216.229000
21
32.832614
0
LINE
8
annotation
62
1
39
211
10
216.229000
20
32.832614
11
215.944368
21
32.701428
0
LINE
8
annotation
62
1
39
211
10
215.944368
20
32.701428
11
215.683960
21
32.521857
0
LINE
8
annotation
62
1
39
211
10
215.683960
20
32.521857
11
215.454747
21
32.295713
0
LINE
8
annotation
62
1
39
211
10
215.454747
20
32.295713
11
215.263701
21
32.024807
0
LINE
8
annotation
62
1
39
211
10
215.263701
20
32.024807
11
215.022961
21
31.563001
0
LINE
8
annotation
62
1
39
211
10
226.295499
20
28.815014
11
221.781504
21
28.815014
0
LINE
8
annotation
62
1
39
211
10
233.057666
20
24.687171
11
229.391178
21
24.687171
0
LINE
8
annotation
62
1
39
211
10
229.391178
20
24.687171
11
232.779133
21
30.141344
0
LINE
8
annotation
62
1
39
211
10
232.779133
20
30.141344
11
232.779133
21
30.141344
0
LINE
8
annotation
62
1
39
211
10
232.779133
20
30.141344
11
232.783184
21
30.146356
0
LINE
8
annotation
62
1
39
211
10
232.783184
20
30.146356
11
232.787068
21
30.151410
0
LINE
8
annotation
62
1
39
211
10
232.787068
20
30.151410
11
232.790811
21
30.156550
0
LINE
8
annotation
62
1
39
211
10
232.790811
20
30.156550
11
232.794439
21
30.161817
0
LINE
8
annotation
62
1
39
211
10
232.794439
20
30.161817
11
232.797978
21
30.167255
0
LINE
8
annotation
62
1
39
211
10
232.797978
20
30.167255
11
232.801453
21
30.172906
0
LINE
8
annotation
62
1
39
211
10
232.801453
20
30.172906
11
232.804889
21
30.178812
0
LINE
8
annotation
62
1
39
211
10
232.804889
20
30.178812
11
232.808313
21
30.185017
0
LINE
8
annotation
62
1
39
211
10
232.808313
20
30.185017
11
232.811750
21
30.191563
0
LINE
8
annotation
62
1
39
211
10
232.811750
20
30.191563
11
232.811750
21
30.191563
0
LINE
8
annotation
62
1
39
211
10
232.811750
20
30.191563
11
232.951638
21
30.491914
0
LINE
8
annotation
62
1
39
211
10
232.951638
20
30.491914
11
233.033358
21
30.803254
0
LINE
8
annotation
62
1
39
211
10
233.033358
20
30.803254
11
233.058913
21
31.118549
0
LINE
8
annotation
62
1
39
211
10
233.058913
20
31.118549
11
233.030305
21
31.430763
0
LINE
8
annotation
62
1
39
211
10
233.030305
20
31.430763
11
232.949538
21
31.732861
0
LINE
8
annotation
62
1
39
211
10
232.949538
20
31.732861
11
232.818614
21
32.017808
0
LINE
8
annotation
62
1
39
211
10
232.818614
20
32.017808
11
232.639536
21
32.278570
0
LINE
8
annotation
62
1
39
211
10
232.639536
20
32.278570
11
232.414306
21
32.508110
0
LINE
8
annotation
62
1
39
211
10
232.414306
20
32.508110
11
232.144927
21
32.699395
0
LINE
8
annotation
62
1
39
211
10
232.144927
20
32.699395
11
232.144927
21
32.699395
0
LINE
8
annotation
62
1
39
211
10
232.144927
20
32.699395
11
231.843741
21
32.837295
0
LINE
8
annotation
62
1
39
211
10
231.843741
20
32.837295
11
231.531923
21
32.917756
0
LINE
8
annotation
62
1
39
211
10
231.531923
20
32.917756
11
231.216446
21
32.942589
0
LINE
8
annotation
62
1
39
211
10
231.216446
20
32.942589
11
230.904279
21
32.913605
0
LINE
8
annotation
62
1
39
211
10
230.904279
20
32.913605
11
230.602393
21
32.832614
0
LINE
8
annotation
62
1
39
211
10
230.602393
20
32.832614
11
230.317761
21
32.701428
0
LINE
8
annotation
62
1
39
211
10
230.317761
20
32.701428
11
230.057354
21
32.521857
0
LINE
8
annotation
62
1
39
211
10
230.057354
20
32.521857
11
229.828141
21
32.295713
0
LINE
8
annotation
62
1
39
211
10
229.828141
20
32.295713
11
229.637095
21
32.024807
0
LINE
8
annotation
62
1
39
211
10
229.637095
20
32.024807
11
229.396355
21
31.563001
0
LINE
8
boundary
62
5
39
2
10
248.665472
20
9.533725
11
248.763138
21
8.791892
0
LINE
8
boundary
62
5
39
2
10
248.763138
20
8.791892
11
249.049476
21
8.100613
0
LINE
8
boundary
62
5
39
2
10
249.049476
20
8.100613
11
249.504971
21
7.506996
0
LINE
8
boundary
62
5
39
2
10
249.504971
20
7.506996
11
250.098585
21
7.051500
0
LINE
8
boundary
62
5
39
2
10
250.098585
20
7.051500
11
250.789864
21
6.765165
0
LINE
8
boundary
62
5
39
2
10
250.789864
20
6.765165
11
251.531698
21
6.667500
0
LINE
8
boundary
62
5
39
2
10
251.531698
20
6.667500
11
258.966380
21
6.667500
0
LINE
8
boundary
62
5
39
2
10
258.966380
20
6.667500
11
303.123740
21
6.667500
0
LINE
8
boundary
62
5
39
2
10
303.123740
20
6.667500
11
303.865573
21
6.765166
0
LINE
8
boundary
62
5
39
2
10
303.865573
20
6.765166
11
304.556852
21
7.051500
0
LINE
8
boundary
62
5
39
2
10
304.556852
20
7.051500
11
305.150466
21
7.506996
0
LINE
8
boundary
62
5
39
2
10
305.150466
20
7.506996
11
305.605962
21
8.100613
0
LINE
8
boundary
62
5
39
2
10
305.605962
20
8.100613
11
305.892299
21
8.791892
0
LINE
8
boundary
62
5
39
2
10
305.892299
20
8.791892
11
305.978561
21
9.301589
0
LINE
8
boundary
62
5
39
2
10
305.978561
20
9.301589
11
305.989965
21
10.454145
0
LINE
8
boundary
62
5
39
2
10
305.989965
20
10.454145
11
305.989965
21
11.214064
0
LINE
8
boundary
62
5
39
2
10
305.989965
20
11.214064
11
305.989965
21
11.854348
0
LINE
8
boundary
62
5
39
2
10
305.989965
20
11.854348
11
305.989965
21
12.928478
0
LINE
8
boundary
62
5
39
2
10
305.989965
20
12.928478
11
305.928222
21
14.046164
0
LINE
8
boundary
62
5
39
2
10
305.928222
20
14.046164
11
305.892300
21
14.707934
0
LINE
8
boundary
62
5
39
2
10
305.892300
20
14.707934
11
305.799721
21
15.476648
0
LINE
8
boundary
62
5
39
2
10
305.799721
20
15.476648
11
305.756570
21
16.184604
0
LINE
8
boundary
62
5
39
2
10
305.756570
20
16.184604
11
305.743745
21
22.090634
0
LINE
8
boundary
62
5
39
2
10
305.743745
20
22.090634
11
305.743745
21
27.240227
0
LINE
8
boundary
62
5
39
2
10
305.743745
20
27.240227
11
305.743745
21
32.792368
0
LINE
8
boundary
62
5
39
2
10
305.743745
20
32.792368
11
305.743745
21
37.941961
0
LINE
8
boundary
62
5
39
2
10
305.743745
20
37.941961
11
305.846218
21
38.530331
0
LINE
8
boundary
62
5
39
2
10
305.846218
20
38.530331
11
305.989965
21
39.751462
0
LINE
8
boundary
62
5
39
2
10
305.989965
20
39.751462
11
305.989965
21
40.306072
0
LINE
8
boundary
62
5
39
2
10
305.989965
20
40.306072
11
305.989965
21
41.734762
0
LINE
8
boundary
62
5
39
2
10
305.989965
20
41.734762
11
305.989965
21
47.725309
0
LINE
8
boundary
62
5
39
2
10
305.989965
20
47.725309
11
305.907476
21
48.351871
0
LINE
8
boundary
62
5
39
2
10
305.907476
20
48.351871
11
305.605962
21
49.158422
0
LINE
8
boundary
62
5
39
2
10
305.605962
20
49.158422
11
305.150466
21
49.752036
0
LINE
8
boundary
62
5
39
2
10
305.150466
20
49.752036
11
304.556852
21
50.207533
0
LINE
8
boundary
62
5
39
2
10
304.556852
20
50.207533
11
303.865573
21
50.493869
0
LINE
8
boundary
62
5
39
2
10
303.865573
20
50.493869
11
303.123740
21
50.591534
0
LINE
8
boundary
62
5
39
2
10
303.123740
20
50.591534
11
261.215098
21
50.591534
0
LINE
8
boundary
62
5
39
2
10
261.215098
20
50.591534
11
251.531698
21
50.591534
0
LINE
8
boundary
62
5
39
2
10
251.531698
20
50.591534
11
250.905135
21
50.509045
0
LINE
8
boundary
62
5
39
2
10
250.905135
20
50.509045
11
250.098585
21
50.207533
0
LINE
8
boundary
62
5
39
2
10
250.098585
20
50.207533
11
249.504971
21
49.752036
0
LINE
8
boundary
62
5
39
2
10
249.504971
20
49.752036
11
249.049476
21
49.158422
0
LINE
8
boundary
62
5
39
2
10
249.049476
20
49.158422
11
248.763138
21
48.467143
0
LINE
8
boundary
62
5
39
2
10
248.763138
20
48.467143
11
248.665472
21
47.725309
0
LINE
8
boundary
62
5
39
2
10
248.665472
20
47.725309
11
248.665472
21
47.077941
0
LINE
8
boundary
62
5
39
2
10
248.665472
20
47.077941
11
277.200719
21
46.927941
0
LINE
8
boundary
62
5
39
2
10
277.200719
20
46.927941
11
277.200719
21
44.181941
0
LINE
8
boundary
62
5
39
2
10
277.200719
20
44.181941
11
248.675772
21
44.181941
0
LINE
8
boundary
62
5
39
2
10
248.675772
20
44.181941
11
248.665472
21
43.471892
0
LINE
8
boundary
62
5
39
2
10
248.665472
20
43.471892
11
248.665472
21
42.460219
0
LINE
8
boundary
62
5
39
2
10
248.665472
20
42.460219
11
248.665472
21
41.491341
0
LINE
8
boundary
62
5
39
2
10
248.665472
20
41.491341
11
248.727215
21
40.434293
0
LINE
8
boundary
62
5
39
2
10
248.727215
20
40.434293
11
248.763138
21
39.772524
0
LINE
8
boundary
62
5
39
2
10
248.763138
20
39.772524
11
248.855716
21
39.003808
0
LINE
8
boundary
62
5
39
2
10
248.855716
20
39.003808
11
248.898868
21
38.295852
0
LINE
8
boundary
62
5
39
2
10
248.898868
20
38.295852
11
248.911692
21
32.389821
0
LINE
8
boundary
62
5
39
2
10
248.911692
20
32.389821
11
248.911692
21
27.240227
0
LINE
8
boundary
62
5
39
2
10
248.911692
20
27.240227
11
248.911692
21
21.688087
0
LINE
8
boundary
62
5
39
2
10
248.911692
20
21.688087
11
248.911692
21
16.538494
0
LINE
8
boundary
62
5
39
2
10
248.911692
20
16.538494
11
248.882094
21
15.721752
0
LINE
8
boundary
62
5
39
2
10
248.882094
20
15.721752
11
248.799380
21
14.953155
0
LINE
8
boundary
62
5
39
2
10
248.799380
20
14.953155
11
248.727215
21
14.046164
0
LINE
8
boundary
62
5
39
2
10
248.727215
20
14.046164
11
277.200719
21
13.595849
0
LINE
8
boundary
62
5
39
2
10
277.200719
20
13.595849
11
277.200719
21
10.849849
0
LINE
8
boundary
62
5
39
2
10
277.200719
20
10.849849
11
248.675772
21
10.849849
0
LINE
8
boundary
62
5
39
2
10
248.675772
20
10.849849
11
248.665472
21
9.533725
0
LINE
8
annotation
62
1
39
211
10
283.860818
20
9.822849
11
283.860818
21
14.622849
0
LINE
8
annotation
62
1
39
211
10
283.860818
20
14.622849
11
282.793716
21
13.555446
0
LINE
8
annotation
62
1
39
211
10
284.393014
20
43.154902
11
282.261219
21
43.154902
0
LINE
8
annotation
62
1
39
211
10
282.261219
20
43.154902
11
284.231067
21
46.326105
0
LINE
8
annotation
62
1
39
211
10
284.231067
20
46.326105
11
284.231067
21
46.326105
0
LINE
8
annotation
62
1
39
211
10
284.231067
20
46.326105
11
284.233422
21
46.329019
0
LINE
8
annotation
62
1
39
211
10
284.233422
20
46.329019
11
284.235680
21
46.331957
0
LINE
8
annotation
62
1
39
211
10
284.235680
20
46.331957
11
284.237857
21
46.334946
0
LINE
8
annotation
62
1
39
211
10
284.237857
20
46.334946
11
284.239967
21
46.338008
0
LINE
8
annotation
62
1
39
211
10
284.239967
20
46.338008
11
284.242024
21
46.341170
0
LINE
8
annotation
62
1
39
211
10
284.242024
20
46.341170
11
284.244045
21
46.344456
0
LINE
8
annotation
62
1
39
211
10
284.244045
20
46.344456
11
284.246043
21
46.347890
0
LINE
8
annotation
62
1
39
211
10
284.246043
20
46.347890
11
284.248033
21
46.351497
0
LINE
8
annotation
62
1
39
211
10
284.248033
20
46.351497
11
284.250031
21
46.355303
0
LINE
8
annotation
62
1
39
211
10
284.250031
20
46.355303
11
284.250031
21
46.355303
0
LINE
8
annotation
62
1
39
211
10
284.250031
20
46.355303
11
284.331366
21
46.529935
0
LINE
8
annotation
62
1
39
211
10
284.331366
20
46.529935
11
284.378880
21
46.710957
0
LINE
8
annotation
62
1
39
211
10
284.378880
20
46.710957
11
284.393739
21
46.894278
0
LINE
8
annotation
62
1
39
211
10
284.393739
20
46.894278
11
284.377106
21
47.075807
0
LINE
8
annotation
62
1
39
211
10
284.377106
20
47.075807
11
284.330145
21
47.251455
0
LINE
8
annotation
62
1
39
211
10
284.330145
20
47.251455
11
284.254023
21
47.417131
0
LINE
8
annotation
62
1
39
211
10
284.254023
20
47.417131
11
284.149902
21
47.568745
0
LINE
8
annotation
62
1
39
211
10
284.149902
20
47.568745
11
284.018947
21
47.702206
0
LINE
8
annotation
62
1
39
211
10
284.018947
20
47.702206
11
283.862323
21
47.813424
0
LINE
8
annotation
62
1
39
211
10
283.862323
20
47.813424
11
283.862323
21
47.813424
0
LINE
8
annotation
62
1
39
211
10
283.862323
20
47.813424
11
283.687205
21
47.893603
0
LINE
8
annotation
62
1
39
211
10
283.687205
20
47.893603
11
283.505906
21
47.940385
0
LINE
8
annotation
62
1
39
211
10
283.505906
20
47.940385
11
283.322479
21
47.954824
0
LINE
8
annotation
62
1
39
211
10
283.322479
20
47.954824
11
283.140976
21
47.937971
0
LINE
8
annotation
62
1
39
211
10
283.140976
20
47.937971
11
282.965452
21
47.890881
0
LINE
8
annotation
62
1
39
211
10
282.965452
20
47.890881
11
282.799960
21
47.814606
0
LINE
8
annotation
62
1
39
211
10
282.799960
20
47.814606
11
282.648551
21
47.710199
0
LINE
8
annotation
62
1
39
211
10
282.648551
20
47.710199
11
282.515281
21
47.578713
0
LINE
8
annotation
62
1
39
211
10
282.515281
20
47.578713
11
282.404202
21
47.421201
0
LINE
8
annotation
62
1
39
211
10
282.404202
20
47.421201
11
282.264229
21
47.152694
0
LINE
8
annotation
62
1
39
211
10
267.519138
20
32.757552
11
264.765907
21
28.775255
0
LINE
8
annotation
62
1
39
211
10
264.765907
20
28.775255
11
262.012158
21
32.757552
0
LINE
8
annotation
62
1
39
211
10
264.765907
20
29.095723
11
264.765907
21
24.501482
0
LINE
8
annotation
62
1
39
211
10
275.130001
20
28.629517
11
270.616006
21
28.629517
0
LINE
8
annotation
62
1
39
211
10
278.225057
20
24.502000
11
280.058301
21
24.502000
0
LINE
8
annotation
62
1
39
211
10
280.058301
20
24.502000
11
280.058301
21
24.502000
0
LINE
8
annotation
62
1
39
211
10
280.058301
20
24.502000
11
280.388014
21
24.531577
0
LINE
8
annotation
62
1
39
211
10
280.388014
20
24.531577
11
280.698263
21
24.616821
0
LINE
8
annotation
62
1
39
211
10
280.698263
20
24.616821
11
280.983887
21
24.752499
0
LINE
8
annotation
62
1
39
211
10
280.983887
20
24.752499
11
281.239726
21
24.933378
0
LINE
8
annotation
62
1
39
211
10
281.239726
20
24.933378
11
281.460621
21
25.154226
0
LINE
8
annotation
62
1
39
211
10
281.460621
20
25.154226
11
281.641410
21
25.409811
0
LINE
8
annotation
62
1
39
211
10
281.641410
20
25.409811
11
281.776934
21
25.694899
0
LINE
8
annotation
62
1
39
211
10
281.776934
20
25.694899
11
281.862032
21
26.004258
0
LINE
8
annotation
62
1
39
211
10
281.862032
20
26.004258
11
281.891545
21
26.332655
0
LINE
8
annotation
62
1
39
211
10
281.891545
20
26.332655
11
281.891545
21
27.250571
0
LINE
8
annotation
62
1
39
211
10
281.891545
20
27.250571
11
281.891545
21
27.250571
0
LINE
8
annotation
62
1
39
211
10
281.891545
20
27.250571
11
281.862032
21
27.578832
0
LINE
8
annotation
62
1
39
211
10
281.862032
20
27.578832
11
281.776934
21
27.888119
0
LINE
8
annotation
62
1
39
211
10
281.776934
20
27.888119
11
281.641410
21
28.173186
0
LINE
8
annotation
62
1
39
211
10
281.641410
20
28.173186
11
281.460621
21
28.428787
0
LINE
8
annotation
62
1
39
211
10
281.460621
20
28.428787
11
281.239726
21
28.649678
0
LINE
8
annotation
62
1
39
211
10
281.239726
20
28.649678
11
280.983887
21
28.830612
0
LINE
8
annotation
62
1
39
211
10
280.983887
20
28.830612
11
280.698263
21
28.966346
0
LINE
8
annotation
62
1
39
211
10
280.698263
20
28.966346
11
280.388014
21
29.051632
0
LINE
8
annotation
62
1
39
211
10
280.388014
20
29.051632
11
280.058301
21
29.081227
0
LINE
8
annotation
62
1
39
211
10
280.058301
20
29.081227
11
279.140384
21
29.081227
0
LINE
8
annotation
62
1
39
211
10
279.140384
20
29.081227
11
280.058301
21
29.081227
0
LINE
8
annotation
62
1
39
211
10
280.058301
20
29.081227
11
280.058301
21
29.081227
0
LINE
8
annotation
62
1
39
211
10
280.058301
20
29.081227
11
280.388014
21
29.110829
0
LINE
8
annotation
62
1
39
211
10
280.388014
20
29.110829
11
280.698263
21
29.196165
0
LINE
8
annotation
62
1
39
211
10
280.698263
20
29.196165
11
280.983887
21
29.332033
0
LINE
8
annotation
62
1
39
211
10
280.983887
20
29.332033
11
281.239726
21
29.513231
0
LINE
8
annotation
62
1
39
211
10
281.239726
20
29.513231
11
281.460621
21
29.734555
0
LINE
8
annotation
62
1
39
211
10
281.460621
20
29.734555
11
281.641410
21
29.990802
0
LINE
8
annotation
62
1
39
211
10
281.641410
20
29.990802
11
281.776934
21
30.276771
0
LINE
8
annotation
62
1
39
211
10
281.776934
20
30.276771
11
281.862032
21
30.587258
0
LINE
8
annotation
62
1
39
211
10
281.862032
20
30.587258
11
281.891545
21
30.917060
0
LINE
8
annotation
62
1
39
211
10
281.891545
20
30.917060
11
281.891545
21
30.917060
0
LINE
8
annotation
62
1
39
211
10
281.891545
20
30.917060
11
281.862032
21
31.245321
0
LINE
8
annotation
62
1
39
211
10
281.862032
20
31.245321
11
281.776934
21
31.554607
0
LINE
8
annotation
62
1
39
211
10
281.776934
20
31.554607
11
281.641410
21
31.839674
0
LINE
8
annotation
62
1
39
211
10
281.641410
20
31.839674
11
281.460621
21
32.095275
0
LINE
8
annotation
62
1
39
211
10
281.460621
20
32.095275
11
281.239726
21
32.316166
0
LINE
8
annotation
62
1
39
211
10
281.239726
20
32.316166
11
280.983887
21
32.497101
0
LINE
8
annotation
62
1
39
211
10
280.983887
20
32.497101
11
280.698263
21
32.632834
0
LINE
8
annotation
62
1
39
211
10
280.698263
20
32.632834
11
280.388014
21
32.718121
0
LINE
8
annotation
62
1
39
211
10
280.388014
20
32.718121
11
280.058301
21
32.747715
0
LINE
8
annotation
62
1
39
211
10
280.058301
20
32.747715
11
278.225057
21
32.747715
0
LINE
8
annotation
62
1
39
211
10
289.502148
20
28.629517
11
284.988154
21
28.629517
0
LINE
8
annotation
62
1
39
211
10
294.432778
20
24.501741
11
294.432778
21
32.757293
0
LINE
8
annotation
62
1
39
211
10
294.432778
20
32.757293
11
292.597463
21
30.921460
0
LINE
8
frame
62
5
39
2
10
0.000000
20
0.000000
11
450.000000
21
0.000000
0
LINE
8
frame
62
5
39
2
10
450.000000
20
0.000000
11
450.000000
21
300.000000
0
LINE
8
frame
62
5
39
2
10
450.000000
20
300.000000
11
0.000000
21
300.000000
0
LINE
8
frame
62
5
39
2
10
0.000000
20
300.000000
11
0.000000
21
0.000000
0
ENDSEC
0
EOF
